<svg width="80" height="80" viewBox="0 0 80 80" fill="none" xmlns="http://www.w3.org/2000/svg">
<circle cx="40" cy="40" r="39.75" stroke="#FC7AF6" stroke-width="0.5"/>
<path fill-rule="evenodd" clip-rule="evenodd" d="M51.7607 26.9634C52.1739 26.9636 52.5701 27.1279 52.8623 27.4201C53.1545 27.7122 53.3188 28.1085 53.319 28.5217L53.319 46.1629C53.3264 46.3722 53.2916 46.5808 53.2166 46.7763C53.1416 46.9718 53.028 47.1502 52.8826 47.3009C52.7371 47.4515 52.5629 47.5713 52.3701 47.6532C52.1774 47.735 51.9701 47.7772 51.7607 47.7772C51.5513 47.7772 51.3441 47.735 51.1513 47.6532C50.9586 47.5713 50.7843 47.4515 50.6389 47.3009C50.4934 47.1502 50.3798 46.9718 50.3048 46.7763C50.2299 46.5808 50.195 46.3722 50.2024 46.1629L50.2024 32.2851L29.3416 53.1459C29.0492 53.4383 28.6526 53.6026 28.2391 53.6026C27.8255 53.6026 27.4289 53.4383 27.1365 53.1459C26.8441 52.8535 26.6798 52.4569 26.6798 52.0433C26.6798 51.6298 26.8441 51.2332 27.1365 50.9407L47.9972 30.08L34.1195 30.08C33.9102 30.0874 33.7016 30.0525 33.5061 29.9775C33.3106 29.9026 33.1322 29.789 32.9815 29.6435C32.8309 29.4981 32.711 29.3238 32.6292 29.1311C32.5474 28.9383 32.5052 28.7311 32.5052 28.5217C32.5052 28.3123 32.5474 28.105 32.6292 27.9123C32.711 27.7195 32.8309 27.5452 32.9815 27.3998C33.1322 27.2544 33.3106 27.1408 33.5061 27.0658C33.7016 26.9908 33.9102 26.956 34.1195 26.9634L51.7607 26.9634Z" fill="#F0F0F2"/>
</svg>
