<svg width="193" height="192" viewBox="0 0 193 192" fill="none" xmlns="http://www.w3.org/2000/svg">
<g opacity="0.5">
<path d="M186.677 60.7292C184.25 54.268 181.155 48.0706 177.527 42.2064C176.366 40.3311 173.272 39.5479 172.051 41.7857C170.765 44.1431 169.336 46.0985 168.724 46.9336C168.718 46.9414 168.713 46.9492 168.707 46.957C167.703 48.3347 167.596 50.1722 168.433 51.6573C175.59 64.3551 179.918 78.6573 180.051 93.1989C180.074 95.0883 180.038 97.4256 179.898 99.3035C179.783 101.246 179.556 103.452 179.232 105.371C178.41 110.698 176.81 115.973 175.076 121.07C174.665 122.142 174.087 123.807 173.628 124.849L172.85 126.718C172.558 127.324 171.86 128.894 171.571 129.48C171.272 130.056 170.499 131.599 170.189 132.193C169.24 133.911 168.168 135.825 167.121 137.469C162.201 145.229 156.007 152.222 148.952 158.104C141.877 163.977 133.866 168.793 125.34 172.246C123.521 172.967 121.425 173.718 119.582 174.324C118.976 174.517 117.21 175.027 116.655 175.201C115.977 175.392 114.412 175.766 113.698 175.968C83.147 183.351 48.8819 171.31 29.5396 146.556C16.0585 129.406 9.60732 106.611 12.7641 84.9798C16.0379 63.1971 29.1378 43.4898 46.3955 30.0202C72.1511 9.80563 110.283 6.55216 139.345 21.596C141.311 22.6136 144.319 22.2828 146.026 20.873C147.462 19.6863 147.729 18.9346 149.036 17.5465C150.793 15.679 150.127 13.3984 148.259 12.2882C147.255 11.6908 146.225 11.1004 145.442 10.7034C110.52 -7.2018 65.0444 -2.44711 35.3526 23.5003C17.6725 38.74 4.60014 59.8914 1.04159 83.2054C-4.85407 120.845 14.7362 160.444 48.2069 178.613C65.3659 188.196 85.4061 192.707 105.022 190.758C107.168 190.574 109.955 190.161 112.072 189.784C115.128 189.249 118.326 188.519 121.306 187.656C133.407 184.235 144.822 178.353 154.8 170.715C163.508 164.007 171.222 155.905 177.351 146.777C179.764 143.223 181.978 139.35 183.897 135.511C184.648 133.947 185.685 131.711 186.34 130.093C186.879 128.869 187.584 126.915 188.066 125.653C188.303 124.916 188.957 122.985 189.175 122.271C189.464 121.16 189.857 119.948 190.121 118.839C191.044 115.058 191.765 111.028 192.208 107.164C194.258 91.4931 192.3 75.4866 186.677 60.7292Z" fill="#FC7AF6"/>
<path d="M177.349 12.8443C175.665 10.0424 172.029 9.13631 169.227 10.8205C168.504 11.2551 167.838 11.7405 167.188 12.2392C164.208 14.4622 161.092 18.0408 158.578 20.7367C136.495 44.5524 116.483 70.4771 99.9721 98.5244C98.3294 101.256 96.6261 104.253 95.2478 107.129C93.9211 109.84 92.5076 112.827 91.2455 115.584C82.5608 99.6848 68.8968 82.237 52.6775 75.0972C46.1927 72.4141 39.7762 79.2425 42.9873 85.5796C43.9391 87.4482 45.0503 89.1913 46.1623 90.9475C51.5839 99.489 57.9552 107.29 63.5857 115.653C70.7444 126.13 76.7737 137.224 82.6052 148.466C86.6223 156.046 98.0003 154.909 100.396 146.595C104.417 138.134 108.551 129.776 112.971 121.535C114.383 118.862 116.014 116.015 117.371 113.323C118.691 110.678 120.173 107.619 121.545 104.993C132.916 82.7323 146.56 61.7405 161.312 41.511C163.813 38.101 167.227 33.4846 169.785 30.1121C171.412 27.9328 174.019 24.7188 175.417 22.4538C176.287 21.0874 177.103 19.6933 177.735 18.181C178.439 16.4991 178.358 14.5241 177.349 12.8443Z" fill="#FC7AF6"/>
</g>
</svg>
