<svg width="57" height="57" viewBox="0 0 57 57" fill="none" xmlns="http://www.w3.org/2000/svg">
<path d="M21.75 39.0313V27.75H23.75C23.8958 27.75 24.0417 27.7658 24.1875 27.7975C24.3333 27.8292 24.4792 27.8654 24.625 27.9063L33.2813 31.125C33.5729 31.2292 33.8075 31.4167 33.985 31.6875C34.1625 31.9583 34.2508 32.2396 34.25 32.5313C34.25 32.9688 34.0987 33.3229 33.7962 33.5938C33.4937 33.8646 33.145 34 32.75 34H29.4688C29.3646 34 29.2867 33.995 29.235 33.985C29.1833 33.975 29.1154 33.9488 29.0312 33.9063L27.0313 33.125L26.625 34.3438L29.0312 35.1875C29.0729 35.2083 29.1354 35.2242 29.2188 35.235C29.3021 35.2458 29.375 35.2508 29.4375 35.25H38C38.6667 35.25 39.25 35.4896 39.75 35.9688C40.25 36.4479 40.5 37.0417 40.5 37.75L30.5312 41.5L21.75 39.0313ZM14.25 41.5V27.75H19.25V41.5H14.25ZM33 30.25L27.8125 25.1875C27.1667 24.5625 26.62 23.87 26.1725 23.11C25.725 22.35 25.5008 21.5217 25.5 20.625C25.5 19.4792 25.9013 18.5054 26.7038 17.7038C27.5063 16.9021 28.48 16.5008 29.625 16.5C30.2917 16.5 30.9167 16.6408 31.5 16.9225C32.0833 17.2042 32.5833 17.5842 33 18.0625C33.4167 17.5833 33.9167 17.2029 34.5 16.9213C35.0833 16.6396 35.7083 16.4992 36.375 16.5C37.5208 16.5 38.495 16.9013 39.2975 17.7038C40.1 18.5063 40.5008 19.48 40.5 20.625C40.5 21.5208 40.2813 22.3492 39.8438 23.11C39.4063 23.8708 38.8646 24.5633 38.2187 25.1875L33 30.25Z" fill="#FC7AF6"/>
<circle cx="28.5" cy="28.5" r="28" stroke="#FC7AF6"/>
</svg>
