<svg width="57" height="57" viewBox="0 0 57 57" fill="none" xmlns="http://www.w3.org/2000/svg">
<path d="M43 24V22.75H34.25V24H38V25.25H36.75V27.75H32.625L30.7488 24.5H25.3187L23.4437 27.75H19.25V25.25H18V24H21.75V22.75H13V24H16.75V25.25H15.5V31.5H19.25V30.25H23.2087L23.4788 30.7175C21.8324 31.552 20.4492 32.8259 19.4822 34.398C18.5152 35.9702 18.0022 37.7793 18 39.625C18 39.7908 18.0658 39.9497 18.1831 40.0669C18.3003 40.1842 18.4592 40.25 18.625 40.25C18.7908 40.25 18.9497 40.1842 19.0669 40.0669C19.1842 39.9497 19.25 39.7908 19.25 39.625C19.252 37.9987 19.7073 36.4051 20.5646 35.0231C21.422 33.6411 22.6476 32.5254 24.1038 31.8013L25.3187 33.905H30.7488L31.9487 31.8263C33.3914 32.5558 34.6037 33.6707 35.4512 35.0473C36.2987 36.4239 36.7482 38.0084 36.75 39.625C36.75 39.7908 36.8158 39.9497 36.9331 40.0669C37.0503 40.1842 37.2092 40.25 37.375 40.25C37.5408 40.25 37.6997 40.1842 37.8169 40.0669C37.9342 39.9497 38 39.7908 38 39.625C37.9982 37.7891 37.4911 35.9891 36.5342 34.4223C35.5773 32.8555 34.2075 31.5824 32.575 30.7425L32.8587 30.25H36.75V31.5H40.5V25.25H39.25V24H43Z" fill="#FC7AF6"/>
<circle cx="28.5" cy="28.5" r="28" stroke="#FC7AF6"/>
</svg>
