<svg width="21" height="19" viewBox="0 0 21 19" fill="none" xmlns="http://www.w3.org/2000/svg">
<path opacity="0.5" d="M3.29445 15.9153C1.0246 14.2804 6.34217 9.9078 9.64669 11.7749C12.1561 13.1927 12.4834 18.5 10.568 18.5C8.55644 18.5 8.89827 13.4506 11.5136 11.411C14.7167 8.91298 20.1957 10.0175 19.9783 12.5375C19.6811 15.9823 12.4228 13.9706 11.7197 8.7385C11.0166 3.50644 17.9777 0.795415 18.9783 2.9525C20.0115 5.18 14.4836 8.44397 10.9559 7.20779C7.82408 6.11031 6.07318 1.45714 7.98591 0.62066C10.568 -0.508562 11.1136 6.60552 8.74962 8.7385C6.20225 11.037 -0.0392748 8.3621 1.14874 6.27931C2.17552 4.47921 6.43497 7.20539 7.05245 10.3194C7.66164 13.3916 4.80977 17.0068 3.29445 15.9153Z" stroke="#FC7AF6"/>
</svg>
