<svg width="36" height="36" viewBox="0 0 36 36" fill="none" xmlns="http://www.w3.org/2000/svg">
<circle cx="17.9567" cy="18.13" r="17.6203" stroke="#FC7AF6" stroke-width="0.5"/>
<path d="M10.1973 17.2679C10.1973 14.0167 10.1973 12.3907 11.2077 11.3811C12.2182 10.3715 13.8433 10.3706 17.0946 10.3706H18.8189C22.0701 10.3706 23.6961 10.3706 24.7057 11.3811C25.7153 12.3915 25.7162 14.0167 25.7162 17.2679V18.9922C25.7162 22.2434 25.7162 23.8695 24.7057 24.8791C23.6953 25.8887 22.0701 25.8895 18.8189 25.8895H17.0946C13.8433 25.8895 12.2173 25.8895 11.2077 24.8791C10.1981 23.8686 10.1973 22.2434 10.1973 18.9922V17.2679Z" stroke="#FC7AF6" stroke-width="0.5"/>
<path d="M22.8795 14.2503C22.8795 14.8264 22.4124 15.2935 21.8362 15.2935C21.26 15.2935 20.793 14.8264 20.793 14.2503C20.793 13.6741 21.26 13.207 21.8362 13.207C22.4124 13.207 22.8795 13.6741 22.8795 14.2503Z" fill="#F0F0F2" stroke="#FC7AF6" stroke-width="0.5"/>
<path d="M17.9566 20.7164C19.3851 20.7164 20.5431 19.5584 20.5431 18.1299C20.5431 16.7015 19.3851 15.5435 17.9566 15.5435C16.5281 15.5435 15.3701 16.7015 15.3701 18.1299C15.3701 19.5584 16.5281 20.7164 17.9566 20.7164Z" stroke="#FC7AF6" stroke-width="0.5"/>
</svg>
