<svg width="24" height="24" viewBox="0 0 24 24" fill="none" xmlns="http://www.w3.org/2000/svg">
<g opacity="0.5">
<path d="M15.7475 5.65625C14.2435 5.65625 13.0678 6.78887 12.0035 8.22781C10.541 6.36556 9.31815 5.65625 7.85484 5.65625C4.87134 5.65625 2.58496 9.54 2.58496 13.6496C2.58496 16.2212 3.8289 17.8438 5.91296 17.8438C7.41284 17.8438 8.49184 17.1369 10.4101 13.7837C10.4101 13.7837 11.2096 12.3724 11.7589 11.3998C11.9523 11.711 12.1546 12.0458 12.3683 12.4057L13.2677 13.9186C15.0195 16.8501 15.9961 17.8438 17.7641 17.8438C19.7953 17.8438 20.9247 16.1993 20.9247 13.5741C20.9247 9.27025 18.5871 5.65625 15.7475 5.65625ZM8.94684 12.8761C7.39252 15.3136 6.85465 15.8604 5.98934 15.8604C5.09802 15.8604 4.56827 15.078 4.56827 13.6829C4.56827 10.6994 6.05596 7.6485 7.82965 7.6485C8.79002 7.6485 9.59277 8.20263 10.8221 9.9625C9.65452 11.7533 8.94684 12.8761 8.94684 12.8761ZM14.8171 12.5698L13.7406 10.775C13.4703 10.3336 13.1908 9.89804 12.9021 9.4685C13.8714 7.97269 14.6701 7.22681 15.6215 7.22681C17.5959 7.22681 19.1762 10.1356 19.1762 13.7073C19.1762 15.0691 18.7302 15.8596 17.8063 15.8596C16.9207 15.8596 16.4982 15.2746 14.8163 12.569" fill="#FC7AF6"/>
</g>
</svg>
