<svg width="36" height="36" viewBox="0 0 36 36" fill="none" xmlns="http://www.w3.org/2000/svg">
<circle cx="17.8703" cy="18.13" r="17.6203" stroke="#FC7AF6" stroke-width="0.5"/>
<path d="M17.8702 16.2939C19.5618 13.4942 21.0461 12.0946 22.3233 12.0952C24.239 12.0952 25.4486 14.3213 26.1547 17.3423C26.8289 20.2289 26.6341 24.1655 24.239 24.1655C23.1716 24.1655 21.7025 22.5912 20.2644 20.4927C19.3473 19.1644 18.5462 17.7597 17.8702 16.2939ZM17.8702 16.2939C16.0091 13.4942 14.3764 12.0946 12.9723 12.0952C10.8643 12.0952 9.53396 14.3213 8.75629 17.3423C8.01569 20.2297 8.23123 24.1655 10.8651 24.1655C12.0394 24.1655 13.656 22.5912 15.2363 20.4927C16.2893 19.0919 17.1673 17.6924 17.8702 16.2939Z" stroke="#FC7AF6" stroke-width="0.5" stroke-linecap="round" stroke-linejoin="round"/>
</svg>
