<svg width="603" height="608" viewBox="0 0 603 608" fill="none" xmlns="http://www.w3.org/2000/svg">
<g clip-path="url(#clip0_30_4998)">
<path d="M273.823 592.245C273.823 592.245 273.805 592.245 273.787 592.245L214.849 580.615C214.849 580.615 214.741 580.561 214.723 580.506C214.704 580.452 214.704 580.397 214.723 580.343L217.708 575.346L164.58 559.337C164.58 559.337 164.58 559.337 164.562 559.337L98.784 510.637L45.0762 438.26C45.0762 438.26 45.0219 438.133 45.0762 438.06C45.1124 438.006 45.1667 437.969 45.2391 437.969L58.5755 438.424L19.3261 367.936C19.3261 367.936 19.308 367.864 19.308 367.846V367.809L60.6565 226.526L13.6622 277.279C13.6622 277.279 13.5174 277.351 13.4451 277.315C13.3727 277.279 13.3365 277.188 13.3546 277.115L28.8806 206.21C28.8806 206.21 28.8806 206.174 28.8987 206.156L96.7211 96.0727C96.7211 96.0727 96.7211 96.0545 96.7391 96.0363L166.009 47.1187C166.009 47.1187 166.027 47.1187 166.045 47.1187L245.395 18.3532C245.395 18.3532 245.395 18.3532 245.413 18.3532C245.413 18.3532 245.431 18.3532 245.449 18.3532L338.714 15.9182C338.714 15.9182 338.714 15.9182 338.732 15.9182C338.732 15.9182 338.732 15.9182 338.75 15.9182L409.341 32.0727C409.341 32.0727 409.341 32.0727 409.359 32.0727C409.359 32.0727 409.359 32.0727 409.377 32.0727L458 59.9114C458 59.9114 458.018 59.9114 458.036 59.9296L513.119 106.503C513.119 106.503 513.137 106.521 513.155 106.539L559.1 173.156C559.1 173.156 559.1 173.174 559.1 173.192L574.608 213.024C574.608 213.024 574.608 213.206 574.536 213.242C574.463 213.297 574.373 213.279 574.3 213.206L558.992 196.434L558.829 227.707L582.805 238.701C582.805 238.701 582.896 238.773 582.914 238.846L589.754 289.599C589.754 289.599 589.754 289.635 589.754 289.654C589.754 289.654 589.754 289.654 589.754 289.672L571.55 366.755L581.846 372.352C581.846 372.352 581.955 372.497 581.919 372.57L552.749 446.274C552.749 446.274 552.749 446.292 552.73 446.31L501.285 513.726C501.285 513.726 501.267 513.763 501.248 513.763L440.067 558.083C440.067 558.083 440.049 558.101 440.031 558.101L373.059 584.795C373.059 584.795 372.878 584.795 372.842 584.704L366.689 573.22L341.555 578.399L337.393 591.482C337.393 591.482 337.302 591.609 337.23 591.609L273.895 592.354L273.823 592.245ZM341.084 578.38L275.705 591.864L337.031 591.155L341.084 578.399V578.38ZM218.269 575.128L273.606 591.809L266.385 544.073L234.012 548.779L218.251 575.128H218.269ZM345.011 532.734L274.492 591.736L341.229 577.981L351.67 545.163L345.011 532.734ZM266.747 544.018L273.949 591.718L344.45 532.734L266.729 544.018H266.747ZM215.175 580.307L270.222 591.173L218.07 575.455L215.175 580.307ZM366.997 573.038L373.023 584.286L437.932 558.41L366.997 573.038ZM351.905 545.617L341.627 577.908L366.454 572.784L351.905 545.617ZM165.448 559.209L217.907 575.019L233.56 548.852L210.271 552.232L165.448 559.209ZM352.05 545.127L366.816 572.711L439.126 557.81L355.163 535.35L352.05 545.127ZM152.528 530.698L164.742 558.955L209.529 551.977L152.528 530.698ZM99.9964 511.073L164.2 558.61L152.057 530.517L99.9964 511.073ZM355.289 535.005L439.579 557.538L421.374 523.357L356.484 531.244L355.289 534.987V535.005ZM448.916 520.014L440.212 557.392L500.452 513.763L448.916 520.032V520.014ZM421.754 523.321L439.868 557.32L448.536 520.068L421.754 523.321ZM195.559 476.166L210.398 551.85L233.813 548.452L260.287 504.186L195.577 476.166H195.559ZM152.329 530.226L210 551.759L195.143 475.984L113.622 440.695L152.329 530.226ZM260.414 504.622L234.248 548.379L266.313 543.727L260.396 504.64L260.414 504.622ZM345.409 532.752L351.815 544.709L354.819 535.278L345.409 532.77V532.752ZM260.74 504.368L266.675 543.673L344.269 532.388L260.74 504.368ZM346.024 532.534L354.945 534.914L356.085 531.316L346.024 532.534ZM381.148 452.561L345.373 532.243L356.212 530.916L381.148 452.561ZM261.011 504.077L344.631 532.134L312.584 480.999L261.011 504.095V504.077ZM312.927 480.836L345.029 532.079L381.908 449.962L312.927 480.836ZM382.324 450.053L356.61 530.862L421.193 523.012L382.324 450.035V450.053ZM99.0554 510.346L151.84 530.062L113.333 440.968L99.0554 510.364V510.346ZM382.704 450.035L421.555 522.976L448.608 519.686L455.684 489.267L382.704 450.017V450.035ZM456.027 489.449L449.006 519.632L500.543 513.363L456.046 489.431L456.027 489.449ZM456.118 489.086L500.923 513.181L497.774 447.382L465.654 448.055L456.1 489.086H456.118ZM498.136 447.382L501.248 512.6L525.497 446.819L498.136 447.382ZM525.895 446.801L501.701 512.418L552.188 446.256L525.895 446.801ZM59.1184 438.714L98.5487 509.529L89.2657 439.714L59.1365 438.714H59.1184ZM89.6276 439.75L98.8925 509.383L113.061 440.531L89.6276 439.75ZM45.5286 438.26L97.3544 508.111L58.7022 438.696L45.5286 438.26ZM195.469 475.73L260.396 503.841L276.99 424.377L187.145 433.245L195.469 475.73ZM277.297 424.65L260.776 503.786L312.403 480.672L277.297 424.65ZM382.975 449.763L455.792 488.922L465.311 448.073L382.994 449.781L382.975 449.763ZM277.605 424.45L312.728 480.527L381.709 449.654L277.605 424.468V424.45ZM114.002 440.459L195.071 475.548L186.783 433.263L114.002 440.441V440.459ZM492.128 332.775L382.704 449.399L465.383 447.691L492.128 332.775ZM277.478 424.05L381.998 449.345L334.244 304.3L277.46 424.068L277.478 424.05ZM334.552 304.027L382.27 448.981L420.958 319.509L334.57 304.009L334.552 304.027ZM421.302 319.582L382.668 448.909L492.092 332.284L421.302 319.582ZM492.345 333.465L465.763 447.673L497.774 447.001L492.345 333.447V333.465ZM492.671 332.974L498.118 447.019L525.641 446.455L536.716 416.436L492.671 332.974ZM536.951 416.854L526.039 446.437L552.26 445.892L536.933 416.854H536.951ZM537.114 416.4L552.423 445.42L557.671 360.686L537.114 416.418V416.4ZM558.087 359.741L552.875 443.966L571.097 366.81L558.069 359.741H558.087ZM571.423 366.991L553.309 443.693L581.502 372.461L571.423 366.991ZM89.5733 439.369L112.718 440.15L87.0218 420.288L89.5552 439.369H89.5733ZM166.787 331.266L113.586 440.132L186.711 432.918L166.787 331.266ZM86.9675 419.78L113.079 439.986L109.949 345.204L78.1007 353.199L86.9675 419.78ZM110.311 345.095L113.441 439.623L166.534 330.976L110.311 345.095ZM58.9193 438.351L89.2114 439.369L86.6237 419.98L19.9957 368.445L58.9193 438.351ZM167.131 331.175L187.072 432.881L276.772 424.032L167.131 331.175ZM167.276 330.812L277.152 423.868L333.973 304.027L167.276 330.812ZM19.8147 367.846L86.5694 419.471L77.7569 353.29L19.8147 367.846ZM492.852 332.52L536.879 415.964L557.689 359.541L492.852 332.502V332.52ZM60.8918 226.598L19.67 367.5L77.7026 352.909L60.8918 226.598ZM558.159 359.378L571.188 366.446L588.94 291.289L558.141 359.378H558.159ZM492.924 332.157L557.743 359.178L558.051 303.537L492.924 332.157ZM558.412 303.391L558.105 358.614L589.193 289.872L558.412 303.391ZM61.2175 226.235L78.0645 352.836L109.949 344.822L107.542 272.154L61.2175 226.235ZM107.904 272.518L110.293 344.731L166.498 330.612L107.904 272.536V272.518ZM421.411 319.237L492.092 331.902L441.804 250.966L421.411 319.219V319.237ZM539.828 219.294L492.798 331.811L558.032 303.137L558.449 227.816L539.828 219.275V219.294ZM462.071 183.641L492.508 331.557L539.503 219.148L462.071 183.659V183.641ZM441.949 250.512L492.092 331.212L461.818 184.077L441.967 250.512H441.949ZM283.196 225.708L167.439 330.43L333.991 303.664L283.196 225.708ZM107.886 271.991L166.697 330.303L175.292 215.387L105.859 211.098L107.868 272.009L107.886 271.991ZM175.672 215.369L167.077 330.267L282.997 225.399L269.462 204.629L175.654 215.369H175.672ZM334.678 303.682L421.049 319.164L441.551 250.567L422.822 220.42L334.678 303.682ZM380.062 151.605L334.66 303.21L422.623 220.111L380.062 151.605ZM311.968 199.687L334.316 303.082L379.682 151.623L311.968 199.687ZM558.811 227.998L558.394 302.991L589.338 289.399L582.534 238.882L558.792 227.998H558.811ZM283.468 225.454L333.9 302.882L311.661 199.959L283.468 225.472V225.454ZM29.1159 206.319L13.7708 276.425L60.8013 225.635L65.5061 208.572L29.0978 206.319H29.1159ZM61.1813 225.69L107.506 271.609L105.497 211.044L70.6453 208.881L61.1632 225.69H61.1813ZM423.093 220.166L441.696 250.094L461.474 183.914L423.112 220.166H423.093ZM539.973 218.948L558.449 227.416L558.612 195.907L552.423 189.129L539.955 218.948H539.973ZM269.86 204.593L283.251 225.163L311.208 199.868L269.842 204.593H269.86ZM65.8861 208.609L61.5432 224.363L70.2653 208.881L65.8861 208.609ZM380.442 151.532L422.894 219.857L461.492 183.405L380.442 151.55V151.532ZM462.506 183.441L539.647 218.803L552.169 188.838L539.81 175.3L462.506 183.423V183.441ZM105.859 210.717L174.985 214.987L103.851 150.424L105.841 210.717H105.859ZM227.426 140.084L175.871 214.969L269.245 204.284L227.426 140.084ZM104.104 150.133L175.292 214.769L171.365 144.572L104.104 150.133ZM171.727 144.554L175.654 214.66L227.064 139.975L171.727 144.554ZM558.992 195.78L573.92 212.116L559.118 174.065L558.992 195.78ZM70.8624 208.536L105.497 210.68L103.507 150.642L70.8624 208.536ZM65.9766 208.245L70.4462 208.518L103.073 150.66L76.3273 170.758L65.9766 208.227V208.245ZM29.4778 205.992L65.6147 208.227L75.8568 171.121L29.4597 205.992H29.4778ZM96.2687 97.2356L29.6225 205.411L76.0197 170.539L96.2687 97.2356ZM228.077 140.447L269.643 204.248L311.281 199.487L228.077 140.466V140.447ZM291.882 144.754L311.86 199.305L379.483 151.296L291.882 144.754ZM228.059 139.993L311.389 199.123L291.466 144.736L228.041 139.993H228.059ZM552.586 188.765L558.63 195.38L558.738 174.028L552.586 188.765ZM540.263 175.264L552.314 188.475L558.648 173.338L540.263 175.264ZM497.937 129.436L462.198 183.096L539.521 174.973L497.937 129.436ZM380.334 151.096L461.619 183.041L447.921 83.0255L380.334 151.096ZM448.283 83.08L461.945 182.842L497.684 129.181L476.946 106.485L448.283 83.0982V83.08ZM498.136 129.127L539.955 174.937L558.485 172.993L500.452 125.656L498.136 129.145V129.127ZM500.651 125.347L558.051 172.175L512.974 106.83L500.651 125.347ZM96.7211 96.9812L76.4902 170.194L103.471 149.915L96.7211 96.9812ZM291.737 144.391L379.682 150.969L328.399 48.6451L274.529 97.3992L291.737 144.409V144.391ZM328.779 48.5542L379.954 150.66L403.405 55.2413L328.779 48.5542ZM403.767 55.2595L380.334 150.569L447.794 82.6258L428.504 57.4764L403.749 55.2595H403.767ZM167.963 83.8432L104.14 149.769L171.347 144.209L167.963 83.8432ZM96.9925 96.1999L103.778 149.442L140.784 88.4406L96.9925 96.1999ZM141.254 88.368L104.647 148.715L167.583 83.6979L141.254 88.368ZM227.86 139.612L291.339 144.354L274.239 97.6354L227.86 139.612ZM168.325 83.8796L171.709 144.191L227.009 139.612L168.325 83.8614V83.8796ZM168.398 83.4253L227.299 139.375L240.762 48.5542L189.751 65.4537L168.398 83.4253ZM241.142 48.427L227.679 139.284L274.112 97.272L254.605 43.975L241.142 48.427ZM478.864 108.03L497.883 128.854L500.181 125.42L478.882 108.03H478.864ZM477.199 106.194L500.38 125.111L512.703 106.594L459.809 87.1686L477.181 106.194H477.199ZM459.285 86.5871L512.088 105.976L457.964 60.2203L450.635 77.1198L459.285 86.5871ZM448.988 83.1891L475.263 104.631L459.068 86.8961L448.988 83.1891ZM254.931 43.866L274.384 97.0176L328.11 48.4088L286.526 33.3992L254.931 43.866ZM165.448 47.791L97.8973 95.5094L146.231 79.5003L165.466 47.791H165.448ZM145.923 79.9727L99.2183 95.4367L141.037 88.0227L145.923 79.9545V79.9727ZM146.466 79.791L141.526 87.95L167.945 83.2799L167.348 72.8858L146.466 79.8092V79.791ZM448.283 82.5349L458.543 86.2964L450.472 77.4651L448.283 82.5349ZM167.692 72.7586L168.271 83.0437L188.81 65.7626L167.692 72.7586ZM429.011 57.5128L448.011 82.2805L450.219 77.1743L432.557 57.8217L429.011 57.5128ZM165.919 47.7365L146.755 79.3186L167.33 72.5042L165.919 47.7365ZM433.082 57.8762L450.382 76.8109L457.638 60.0749L433.082 57.8762ZM166.244 47.264L167.674 72.3952L189.57 65.1448L244.508 18.8983L166.244 47.2822V47.264ZM245.159 18.8075L190.493 64.8177L240.816 48.1544L245.159 18.8075ZM432.72 57.4764L457.095 59.657L410.191 32.7995L432.72 57.4764ZM428.703 57.1312L432.177 57.4401L411.983 35.3254L428.703 57.1312ZM403.84 54.8961L428.196 57.0766L409.341 32.4724L403.84 54.8961ZM329.738 48.2635L403.496 54.8597L409.033 32.3089L329.738 48.2635ZM287.087 33.2175L328.345 48.0999L338.406 16.209L287.087 33.1993V33.2175ZM338.804 16.1363L328.725 48.0818L408.4 32.0545L338.786 16.1363H338.804ZM245.485 19.0982L241.196 48.0272L254.46 43.6297L245.467 19.0982H245.485ZM245.702 18.6621L254.804 43.5207L285.965 33.1993L245.702 18.6621ZM246.372 18.5167L286.526 33.0176L337.447 16.1544L246.372 18.5349V18.5167Z" fill="#FC7AF6" fill-opacity="0.15"/>
<path d="M229.488 139.757C229.488 138.612 228.566 137.685 227.426 137.685C226.286 137.685 225.363 138.612 225.363 139.757C225.363 140.902 226.286 141.828 227.426 141.828C228.566 141.828 229.488 140.902 229.488 139.757Z" fill="#FC7AF6" fill-opacity="0.15"/>
<path d="M561 173.12C561 171.975 560.077 171.048 558.937 171.048C557.797 171.048 556.874 171.975 556.874 173.12C556.874 174.265 557.797 175.191 558.937 175.191C560.077 175.191 561 174.265 561 173.12Z" fill="#FC7AF6" fill-opacity="0.15"/>
<path d="M576.508 212.97C576.508 211.825 575.585 210.898 574.445 210.898C573.305 210.898 572.382 211.825 572.382 212.97C572.382 214.115 573.305 215.042 574.445 215.042C575.585 215.042 576.508 214.115 576.508 212.97Z" fill="#FC7AF6" fill-opacity="0.15"/>
<path d="M411.331 32.0728C411.331 30.928 410.408 30.0012 409.268 30.0012C408.128 30.0012 407.206 30.928 407.206 32.0728C407.206 33.2176 408.128 34.1443 409.268 34.1443C410.408 34.1443 411.331 33.2176 411.331 32.0728Z" fill="#FC7AF6" fill-opacity="0.15"/>
<path d="M340.74 15.9363C340.74 14.7915 339.817 13.8647 338.677 13.8647C337.537 13.8647 336.615 14.7915 336.615 15.9363C336.615 17.0811 337.537 18.0078 338.677 18.0078C339.817 18.0078 340.74 17.0811 340.74 15.9363Z" fill="#FC7AF6" fill-opacity="0.15"/>
<path d="M98.8563 96.0545C98.8563 94.9097 97.9334 93.9829 96.7934 93.9829C95.6534 93.9829 94.7305 94.9097 94.7305 96.0545C94.7305 97.1993 95.6534 98.126 96.7934 98.126C97.9334 98.126 98.8563 97.1993 98.8563 96.0545Z" fill="#FC7AF6" fill-opacity="0.15"/>
<path d="M63.027 225.726C63.027 224.582 62.1042 223.655 60.9641 223.655C59.8241 223.655 58.9012 224.582 58.9012 225.726C58.9012 226.871 59.8241 227.798 60.9641 227.798C62.1042 227.798 63.027 226.871 63.027 225.726Z" fill="#FC7AF6" fill-opacity="0.15"/>
<path d="M105.733 149.988C105.733 148.843 104.81 147.916 103.67 147.916C102.53 147.916 101.607 148.843 101.607 149.988C101.607 151.132 102.53 152.059 103.67 152.059C104.81 152.059 105.733 151.132 105.733 149.988Z" fill="#FC7AF6" fill-opacity="0.15"/>
<path d="M115.341 440.35C115.341 439.205 114.418 438.278 113.278 438.278C112.138 438.278 111.216 439.205 111.216 440.35C111.216 441.495 112.138 442.421 113.278 442.421C114.418 442.421 115.341 441.495 115.341 440.35Z" fill="#FC7AF6" fill-opacity="0.15"/>
<path d="M262.585 504.096C262.585 502.951 261.663 502.024 260.522 502.024C259.382 502.024 258.46 502.951 258.46 504.096C258.46 505.24 259.382 506.167 260.522 506.167C261.663 506.167 262.585 505.24 262.585 504.096Z" fill="#FC7AF6" fill-opacity="0.15"/>
<path d="M279.288 424.177C279.288 423.032 278.365 422.106 277.225 422.106C276.085 422.106 275.162 423.032 275.162 424.177C275.162 425.322 276.085 426.249 277.225 426.249C278.365 426.249 279.288 425.322 279.288 424.177Z" fill="#FC7AF6" fill-opacity="0.15"/>
<path d="M115.341 440.35C115.341 439.205 114.418 438.278 113.278 438.278C112.138 438.278 111.216 439.205 111.216 440.35C111.216 441.495 112.138 442.421 113.278 442.421C114.418 442.421 115.341 441.495 115.341 440.35Z" fill="#FC7AF6" fill-opacity="0.15"/>
<path d="M168.923 330.703C168.923 329.558 168 328.631 166.86 328.631C165.72 328.631 164.797 329.558 164.797 330.703C164.797 331.848 165.72 332.774 166.86 332.774C168 332.774 168.923 331.848 168.923 330.703Z" fill="#FC7AF6" fill-opacity="0.15"/>
<path d="M212.316 552.05C212.316 550.905 211.393 549.979 210.253 549.979C209.113 549.979 208.19 550.905 208.19 552.05C208.19 553.195 209.113 554.122 210.253 554.122C211.393 554.122 212.316 553.195 212.316 552.05Z" fill="#FC7AF6" fill-opacity="0.15"/>
<path d="M347.128 532.461C347.128 531.316 346.205 530.39 345.065 530.39C343.925 530.39 343.002 531.316 343.002 532.461C343.002 533.606 343.925 534.533 345.065 534.533C346.205 534.533 347.128 533.606 347.128 532.461Z" fill="#FC7AF6" fill-opacity="0.15"/>
<path d="M275.886 592.064C275.886 590.919 274.963 589.992 273.823 589.992C272.683 589.992 271.76 590.919 271.76 592.064C271.76 593.209 272.683 594.135 273.823 594.135C274.963 594.135 275.886 593.209 275.886 592.064Z" fill="#FC7AF6" fill-opacity="0.15"/>
<path d="M262.585 504.096C262.585 502.951 261.663 502.024 260.522 502.024C259.382 502.024 258.46 502.951 258.46 504.096C258.46 505.24 259.382 506.167 260.522 506.167C261.663 506.167 262.585 505.24 262.585 504.096Z" fill="#FC7AF6" fill-opacity="0.15"/>
<path d="M216.948 580.434C216.948 579.289 216.025 578.362 214.885 578.362C213.745 578.362 212.823 579.289 212.823 580.434C212.823 581.579 213.745 582.505 214.885 582.505C216.025 582.505 216.948 581.579 216.948 580.434Z" fill="#FC7AF6" fill-opacity="0.15"/>
<path d="M275.886 592.064C275.886 590.919 274.963 589.992 273.823 589.992C272.683 589.992 271.76 590.919 271.76 592.064C271.76 593.209 272.683 594.135 273.823 594.135C274.963 594.135 275.886 593.209 275.886 592.064Z" fill="#FC7AF6" fill-opacity="0.15"/>
<path d="M166.697 559.155C166.697 558.01 165.774 557.083 164.634 557.083C163.494 557.083 162.571 558.01 162.571 559.155C162.571 560.3 163.494 561.227 164.634 561.227C165.774 561.227 166.697 560.3 166.697 559.155Z" fill="#FC7AF6" fill-opacity="0.15"/>
<path d="M212.316 552.05C212.316 550.905 211.393 549.979 210.253 549.979C209.113 549.979 208.19 550.905 208.19 552.05C208.19 553.195 209.113 554.122 210.253 554.122C211.393 554.122 212.316 553.195 212.316 552.05Z" fill="#FC7AF6" fill-opacity="0.15"/>
<path d="M100.919 510.455C100.919 509.311 99.9964 508.384 98.8564 508.384C97.7163 508.384 96.7935 509.311 96.7935 510.455C96.7935 511.6 97.7163 512.527 98.8564 512.527C99.9964 512.527 100.919 511.6 100.919 510.455Z" fill="#FC7AF6" fill-opacity="0.15"/>
<path d="M166.697 559.155C166.697 558.01 165.774 557.083 164.634 557.083C163.494 557.083 162.571 558.01 162.571 559.155C162.571 560.3 163.494 561.227 164.634 561.227C165.774 561.227 166.697 560.3 166.697 559.155Z" fill="#FC7AF6" fill-opacity="0.15"/>
<path d="M115.341 440.35C115.341 439.205 114.418 438.278 113.278 438.278C112.138 438.278 111.216 439.205 111.216 440.35C111.216 441.495 112.138 442.421 113.278 442.421C114.418 442.421 115.341 441.495 115.341 440.35Z" fill="#FC7AF6" fill-opacity="0.15"/>
<path d="M100.919 510.455C100.919 509.311 99.9964 508.384 98.8564 508.384C97.7163 508.384 96.7935 509.311 96.7935 510.455C96.7935 511.6 97.7163 512.527 98.8564 512.527C99.9964 512.527 100.919 511.6 100.919 510.455Z" fill="#FC7AF6" fill-opacity="0.15"/>
<path d="M47.2115 438.078C47.2115 436.934 46.2886 436.007 45.1486 436.007C44.0086 436.007 43.0857 436.934 43.0857 438.078C43.0857 439.223 44.0086 440.15 45.1486 440.15C46.2886 440.15 47.2115 439.223 47.2115 438.078Z" fill="#FC7AF6" fill-opacity="0.15"/>
<path d="M115.341 440.35C115.341 439.205 114.418 438.278 113.278 438.278C112.138 438.278 111.216 439.205 111.216 440.35C111.216 441.495 112.138 442.421 113.278 442.421C114.418 442.421 115.341 441.495 115.341 440.35Z" fill="#FC7AF6" fill-opacity="0.15"/>
<path d="M21.4794 367.755C21.4794 366.61 20.5566 365.683 19.4165 365.683C18.2765 365.683 17.3536 366.61 17.3536 367.755C17.3536 368.899 18.2765 369.826 19.4165 369.826C20.5566 369.826 21.4794 368.899 21.4794 367.755Z" fill="#FC7AF6" fill-opacity="0.15"/>
<path d="M100.919 510.455C100.919 509.311 99.9964 508.384 98.8564 508.384C97.7163 508.384 96.7935 509.311 96.7935 510.455C96.7935 511.6 97.7163 512.527 98.8564 512.527C99.9964 512.527 100.919 511.6 100.919 510.455Z" fill="#FC7AF6" fill-opacity="0.15"/>
<path d="M63.027 225.726C63.027 224.582 62.1042 223.655 60.9641 223.655C59.8241 223.655 58.9012 224.582 58.9012 225.726C58.9012 226.871 59.8241 227.798 60.9641 227.798C62.1042 227.798 63.027 226.871 63.027 225.726Z" fill="#FC7AF6" fill-opacity="0.15"/>
<path d="M168.923 330.703C168.923 329.558 168 328.631 166.86 328.631C165.72 328.631 164.797 329.558 164.797 330.703C164.797 331.848 165.72 332.774 166.86 332.774C168 332.774 168.923 331.848 168.923 330.703Z" fill="#FC7AF6" fill-opacity="0.15"/>
<path d="M21.4794 367.755C21.4794 366.61 20.5566 365.683 19.4165 365.683C18.2765 365.683 17.3536 366.61 17.3536 367.755C17.3536 368.899 18.2765 369.826 19.4165 369.826C20.5566 369.826 21.4794 368.899 21.4794 367.755Z" fill="#FC7AF6" fill-opacity="0.15"/>
<path d="M63.027 225.726C63.027 224.582 62.1042 223.655 60.9641 223.655C59.8241 223.655 58.9012 224.582 58.9012 225.726C58.9012 226.871 59.8241 227.798 60.9641 227.798C62.1042 227.798 63.027 226.871 63.027 225.726Z" fill="#FC7AF6" fill-opacity="0.15"/>
<path d="M15.5079 277.043C15.5079 275.898 14.585 274.971 13.445 274.971C12.305 274.971 11.3821 275.898 11.3821 277.043C11.3821 278.188 12.305 279.114 13.445 279.114C14.585 279.114 15.5079 278.188 15.5079 277.043Z" fill="#FC7AF6" fill-opacity="0.15"/>
<path d="M31.034 206.137C31.034 204.993 30.1111 204.066 28.9711 204.066C27.8311 204.066 26.9082 204.993 26.9082 206.137C26.9082 207.282 27.8311 208.209 28.9711 208.209C30.1111 208.209 31.034 207.282 31.034 206.137Z" fill="#FC7AF6" fill-opacity="0.15"/>
<path d="M177.554 215.205C177.554 214.06 176.631 213.134 175.491 213.134C174.351 213.134 173.428 214.06 173.428 215.205C173.428 216.35 174.351 217.277 175.491 217.277C176.631 217.277 177.554 216.35 177.554 215.205Z" fill="#FC7AF6" fill-opacity="0.15"/>
<path d="M168.923 330.703C168.923 329.558 168 328.631 166.86 328.631C165.72 328.631 164.797 329.558 164.797 330.703C164.797 331.848 165.72 332.774 166.86 332.774C168 332.774 168.923 331.848 168.923 330.703Z" fill="#FC7AF6" fill-opacity="0.15"/>
<path d="M279.288 424.177C279.288 423.032 278.365 422.106 277.225 422.106C276.085 422.106 275.162 423.032 275.162 424.177C275.162 425.322 276.085 426.249 277.225 426.249C278.365 426.249 279.288 425.322 279.288 424.177Z" fill="#FC7AF6" fill-opacity="0.15"/>
<path d="M347.128 532.461C347.128 531.316 346.205 530.39 345.065 530.39C343.925 530.39 343.002 531.316 343.002 532.461C343.002 533.606 343.925 534.533 345.065 534.533C346.205 534.533 347.128 533.606 347.128 532.461Z" fill="#FC7AF6" fill-opacity="0.15"/>
<path d="M262.585 504.096C262.585 502.951 261.663 502.024 260.522 502.024C259.382 502.024 258.46 502.951 258.46 504.096C258.46 505.24 259.382 506.167 260.522 506.167C261.663 506.167 262.585 505.24 262.585 504.096Z" fill="#FC7AF6" fill-opacity="0.15"/>
<path d="M384.333 449.599C384.333 448.454 383.41 447.528 382.27 447.528C381.13 447.528 380.207 448.454 380.207 449.599C380.207 450.744 381.13 451.671 382.27 451.671C383.41 451.671 384.333 450.744 384.333 449.599Z" fill="#FC7AF6" fill-opacity="0.15"/>
<path d="M279.288 424.177C279.288 423.032 278.365 422.106 277.225 422.106C276.085 422.106 275.162 423.032 275.162 424.177C275.162 425.322 276.085 426.249 277.225 426.249C278.365 426.249 279.288 425.322 279.288 424.177Z" fill="#FC7AF6" fill-opacity="0.15"/>
<path d="M336.361 303.791C336.361 302.646 335.438 301.719 334.298 301.719C333.158 301.719 332.235 302.646 332.235 303.791C332.235 304.936 333.158 305.863 334.298 305.863C335.438 305.863 336.361 304.936 336.361 303.791Z" fill="#FC7AF6" fill-opacity="0.15"/>
<path d="M168.923 330.703C168.923 329.558 168 328.631 166.86 328.631C165.72 328.631 164.797 329.558 164.797 330.703C164.797 331.848 165.72 332.774 166.86 332.774C168 332.774 168.923 331.848 168.923 330.703Z" fill="#FC7AF6" fill-opacity="0.15"/>
<path d="M313.832 199.614C313.832 198.469 312.909 197.542 311.769 197.542C310.629 197.542 309.706 198.469 309.706 199.614C309.706 200.759 310.629 201.685 311.769 201.685C312.909 201.685 313.832 200.759 313.832 199.614Z" fill="#FC7AF6" fill-opacity="0.15"/>
<path d="M177.554 215.205C177.554 214.06 176.631 213.134 175.491 213.134C174.351 213.134 173.428 214.06 173.428 215.205C173.428 216.35 174.351 217.277 175.491 217.277C176.631 217.277 177.554 216.35 177.554 215.205Z" fill="#FC7AF6" fill-opacity="0.15"/>
<path d="M105.733 149.988C105.733 148.843 104.81 147.916 103.67 147.916C102.53 147.916 101.607 148.843 101.607 149.988C101.607 151.132 102.53 152.059 103.67 152.059C104.81 152.059 105.733 151.132 105.733 149.988Z" fill="#FC7AF6" fill-opacity="0.15"/>
<path d="M31.034 206.137C31.034 204.993 30.1111 204.066 28.9711 204.066C27.8311 204.066 26.9082 204.993 26.9082 206.137C26.9082 207.282 27.8311 208.209 28.9711 208.209C30.1111 208.209 31.034 207.282 31.034 206.137Z" fill="#FC7AF6" fill-opacity="0.15"/>
<path d="M98.8563 96.0545C98.8563 94.9097 97.9334 93.9829 96.7934 93.9829C95.6534 93.9829 94.7305 94.9097 94.7305 96.0545C94.7305 97.1993 95.6534 98.126 96.7934 98.126C97.9334 98.126 98.8563 97.1993 98.8563 96.0545Z" fill="#FC7AF6" fill-opacity="0.15"/>
<path d="M105.733 149.988C105.733 148.843 104.81 147.916 103.67 147.916C102.53 147.916 101.607 148.843 101.607 149.988C101.607 151.132 102.53 152.059 103.67 152.059C104.81 152.059 105.733 151.132 105.733 149.988Z" fill="#FC7AF6" fill-opacity="0.15"/>
<path d="M229.488 139.757C229.488 138.612 228.566 137.685 227.426 137.685C226.286 137.685 225.363 138.612 225.363 139.757C225.363 140.902 226.286 141.828 227.426 141.828C228.566 141.828 229.488 140.902 229.488 139.757Z" fill="#FC7AF6" fill-opacity="0.15"/>
<path d="M177.554 215.205C177.554 214.06 176.631 213.134 175.491 213.134C174.351 213.134 173.428 214.06 173.428 215.205C173.428 216.35 174.351 217.277 175.491 217.277C176.631 217.277 177.554 216.35 177.554 215.205Z" fill="#FC7AF6" fill-opacity="0.15"/>
<path d="M170.189 83.4253C170.189 82.2805 169.266 81.3538 168.126 81.3538C166.986 81.3538 166.063 82.2805 166.063 83.4253C166.063 84.5701 166.986 85.4969 168.126 85.4969C169.266 85.4969 170.189 84.5701 170.189 83.4253Z" fill="#FC7AF6" fill-opacity="0.15"/>
<path d="M105.733 149.988C105.733 148.843 104.81 147.916 103.67 147.916C102.53 147.916 101.607 148.843 101.607 149.988C101.607 151.132 102.53 152.059 103.67 152.059C104.81 152.059 105.733 151.132 105.733 149.988Z" fill="#FC7AF6" fill-opacity="0.15"/>
<path d="M168.126 47.1367C168.126 45.9919 167.203 45.0652 166.063 45.0652C164.923 45.0652 164 45.9919 164 47.1367C164 48.2815 164.923 49.2083 166.063 49.2083C167.203 49.2083 168.126 48.2815 168.126 47.1367Z" fill="#FC7AF6" fill-opacity="0.15"/>
<path d="M98.8563 96.0545C98.8563 94.9097 97.9334 93.9829 96.7934 93.9829C95.6534 93.9829 94.7305 94.9097 94.7305 96.0545C94.7305 97.1993 95.6534 98.126 96.7934 98.126C97.9334 98.126 98.8563 97.1993 98.8563 96.0545Z" fill="#FC7AF6" fill-opacity="0.15"/>
<path d="M170.189 83.4253C170.189 82.2805 169.266 81.3538 168.126 81.3538C166.986 81.3538 166.063 82.2805 166.063 83.4253C166.063 84.5701 166.986 85.4969 168.126 85.4969C169.266 85.4969 170.189 84.5701 170.189 83.4253Z" fill="#FC7AF6" fill-opacity="0.15"/>
<path d="M168.126 47.1367C168.126 45.9919 167.203 45.0652 166.063 45.0652C164.923 45.0652 164 45.9919 164 47.1367C164 48.2815 164.923 49.2083 166.063 49.2083C167.203 49.2083 168.126 48.2815 168.126 47.1367Z" fill="#FC7AF6" fill-opacity="0.15"/>
<path d="M247.476 18.3714C247.476 17.2265 246.553 16.2998 245.413 16.2998C244.273 16.2998 243.35 17.2265 243.35 18.3714C243.35 19.5162 244.273 20.4429 245.413 20.4429C246.553 20.4429 247.476 19.5162 247.476 18.3714Z" fill="#FC7AF6" fill-opacity="0.15"/>
<path d="M170.189 83.4253C170.189 82.2805 169.266 81.3538 168.126 81.3538C166.986 81.3538 166.063 82.2805 166.063 83.4253C166.063 84.5701 166.986 85.4969 168.126 85.4969C169.266 85.4969 170.189 84.5701 170.189 83.4253Z" fill="#FC7AF6" fill-opacity="0.15"/>
<path d="M229.488 139.757C229.488 138.612 228.566 137.685 227.426 137.685C226.286 137.685 225.363 138.612 225.363 139.757C225.363 140.902 226.286 141.828 227.426 141.828C228.566 141.828 229.488 140.902 229.488 139.757Z" fill="#FC7AF6" fill-opacity="0.15"/>
<path d="M336.361 303.791C336.361 302.646 335.438 301.719 334.298 301.719C333.158 301.719 332.235 302.646 332.235 303.791C332.235 304.936 333.158 305.863 334.298 305.863C335.438 305.863 336.361 304.936 336.361 303.791Z" fill="#FC7AF6" fill-opacity="0.15"/>
<path d="M384.333 449.599C384.333 448.454 383.41 447.528 382.27 447.528C381.13 447.528 380.207 448.454 380.207 449.599C380.207 450.744 381.13 451.671 382.27 451.671C383.41 451.671 384.333 450.744 384.333 449.599Z" fill="#FC7AF6" fill-opacity="0.15"/>
<path d="M339.238 591.319C339.238 590.174 338.315 589.247 337.175 589.247C336.035 589.247 335.113 590.174 335.113 591.319C335.113 592.463 336.035 593.39 337.175 593.39C338.315 593.39 339.238 592.463 339.238 591.319Z" fill="#FC7AF6" fill-opacity="0.15"/>
<path d="M275.886 592.064C275.886 590.919 274.963 589.992 273.823 589.992C272.683 589.992 271.76 590.919 271.76 592.064C271.76 593.209 272.683 594.135 273.823 594.135C274.963 594.135 275.886 593.209 275.886 592.064Z" fill="#FC7AF6" fill-opacity="0.15"/>
<path d="M439.922 559.9C441.062 559.9 441.985 558.973 441.985 557.829C441.985 556.685 441.062 555.757 439.922 555.757C438.783 555.757 437.859 556.685 437.859 557.829C437.859 558.973 438.783 559.9 439.922 559.9Z" fill="#FC7AF6" fill-opacity="0.15"/>
<path d="M384.333 449.599C384.333 448.454 383.41 447.528 382.27 447.528C381.13 447.528 380.207 448.454 380.207 449.599C380.207 450.744 381.13 451.671 382.27 451.671C383.41 451.671 384.333 450.744 384.333 449.599Z" fill="#FC7AF6" fill-opacity="0.15"/>
<path d="M347.128 532.461C347.128 531.316 346.205 530.39 345.065 530.39C343.925 530.39 343.002 531.316 343.002 532.461C343.002 533.606 343.925 534.533 345.065 534.533C346.205 534.533 347.128 533.606 347.128 532.461Z" fill="#FC7AF6" fill-opacity="0.15"/>
<path d="M375.013 584.522C375.013 583.377 374.091 582.451 372.951 582.451C371.811 582.451 370.888 583.377 370.888 584.522C370.888 585.667 371.811 586.594 372.951 586.594C374.091 586.594 375.013 585.667 375.013 584.522Z" fill="#FC7AF6" fill-opacity="0.15"/>
<path d="M439.922 559.9C441.062 559.9 441.985 558.973 441.985 557.829C441.985 556.685 441.062 555.757 439.922 555.757C438.783 555.757 437.859 556.685 437.859 557.829C437.859 558.973 438.783 559.9 439.922 559.9Z" fill="#FC7AF6" fill-opacity="0.15"/>
<path d="M347.128 532.461C347.128 531.316 346.205 530.39 345.065 530.39C343.925 530.39 343.002 531.316 343.002 532.461C343.002 533.606 343.925 534.533 345.065 534.533C346.205 534.533 347.128 533.606 347.128 532.461Z" fill="#FC7AF6" fill-opacity="0.15"/>
<path d="M503.185 513.49C503.185 512.345 502.262 511.418 501.122 511.418C499.982 511.418 499.059 512.345 499.059 513.49C499.059 514.635 499.982 515.562 501.122 515.562C502.262 515.562 503.185 514.635 503.185 513.49Z" fill="#FC7AF6" fill-opacity="0.15"/>
<path d="M494.517 332.157C494.517 331.012 493.594 330.085 492.454 330.085C491.314 330.085 490.391 331.012 490.391 332.157C490.391 333.302 491.314 334.228 492.454 334.228C493.594 334.228 494.517 333.302 494.517 332.157Z" fill="#FC7AF6" fill-opacity="0.15"/>
<path d="M439.922 559.9C441.062 559.9 441.985 558.973 441.985 557.829C441.985 556.685 441.062 555.757 439.922 555.757C438.783 555.757 437.859 556.685 437.859 557.829C437.859 558.973 438.783 559.9 439.922 559.9Z" fill="#FC7AF6" fill-opacity="0.15"/>
<path d="M503.185 513.49C503.185 512.345 502.262 511.418 501.122 511.418C499.982 511.418 499.059 512.345 499.059 513.49C499.059 514.635 499.982 515.562 501.122 515.562C502.262 515.562 503.185 514.635 503.185 513.49Z" fill="#FC7AF6" fill-opacity="0.15"/>
<path d="M384.333 449.599C384.333 448.454 383.41 447.528 382.27 447.528C381.13 447.528 380.207 448.454 380.207 449.599C380.207 450.744 381.13 451.671 382.27 451.671C383.41 451.671 384.333 450.744 384.333 449.599Z" fill="#FC7AF6" fill-opacity="0.15"/>
<path d="M554.63 446.074C554.63 444.929 553.708 444.002 552.568 444.002C551.427 444.002 550.505 444.929 550.505 446.074C550.505 447.219 551.427 448.145 552.568 448.145C553.708 448.145 554.63 447.219 554.63 446.074Z" fill="#FC7AF6" fill-opacity="0.15"/>
<path d="M503.185 513.49C503.185 512.345 502.262 511.418 501.122 511.418C499.982 511.418 499.059 512.345 499.059 513.49C499.059 514.635 499.982 515.562 501.122 515.562C502.262 515.562 503.185 514.635 503.185 513.49Z" fill="#FC7AF6" fill-opacity="0.15"/>
<path d="M559.987 359.45C559.987 358.305 559.064 357.379 557.924 357.379C556.784 357.379 555.861 358.305 555.861 359.45C555.861 360.595 556.784 361.522 557.924 361.522C559.064 361.522 559.987 360.595 559.987 359.45Z" fill="#FC7AF6" fill-opacity="0.15"/>
<path d="M583.801 372.37C583.801 371.225 582.878 370.299 581.738 370.299C580.598 370.299 579.675 371.225 579.675 372.37C579.675 373.515 580.598 374.442 581.738 374.442C582.878 374.442 583.801 373.515 583.801 372.37Z" fill="#FC7AF6" fill-opacity="0.15"/>
<path d="M554.63 446.074C554.63 444.929 553.708 444.002 552.568 444.002C551.427 444.002 550.505 444.929 550.505 446.074C550.505 447.219 551.427 448.145 552.568 448.145C553.708 448.145 554.63 447.219 554.63 446.074Z" fill="#FC7AF6" fill-opacity="0.15"/>
<path d="M591.618 289.508C591.618 288.363 590.695 287.437 589.555 287.437C588.415 287.437 587.492 288.363 587.492 289.508C587.492 290.653 588.415 291.58 589.555 291.58C590.695 291.58 591.618 290.653 591.618 289.508Z" fill="#FC7AF6" fill-opacity="0.15"/>
<path d="M559.987 359.45C559.987 358.305 559.064 357.379 557.924 357.379C556.784 357.379 555.861 358.305 555.861 359.45C555.861 360.595 556.784 361.522 557.924 361.522C559.064 361.522 559.987 360.595 559.987 359.45Z" fill="#FC7AF6" fill-opacity="0.15"/>
<path d="M554.63 446.074C554.63 444.929 553.708 444.002 552.568 444.002C551.427 444.002 550.505 444.929 550.505 446.074C550.505 447.219 551.427 448.145 552.568 448.145C553.708 448.145 554.63 447.219 554.63 446.074Z" fill="#FC7AF6" fill-opacity="0.15"/>
<path d="M494.517 332.157C494.517 331.012 493.594 330.085 492.454 330.085C491.314 330.085 490.391 331.012 490.391 332.157C490.391 333.302 491.314 334.228 492.454 334.228C493.594 334.228 494.517 333.302 494.517 332.157Z" fill="#FC7AF6" fill-opacity="0.15"/>
<path d="M384.333 449.599C384.333 448.454 383.41 447.528 382.27 447.528C381.13 447.528 380.207 448.454 380.207 449.599C380.207 450.744 381.13 451.671 382.27 451.671C383.41 451.671 384.333 450.744 384.333 449.599Z" fill="#FC7AF6" fill-opacity="0.15"/>
<path d="M463.899 183.332C463.899 182.187 462.976 181.261 461.836 181.261C460.696 181.261 459.773 182.187 459.773 183.332C459.773 184.477 460.696 185.404 461.836 185.404C462.976 185.404 463.899 184.477 463.899 183.332Z" fill="#FC7AF6" fill-opacity="0.15"/>
<path d="M336.361 303.791C336.361 302.646 335.438 301.719 334.298 301.719C333.158 301.719 332.235 302.646 332.235 303.791C332.235 304.936 333.158 305.863 334.298 305.863C335.438 305.863 336.361 304.936 336.361 303.791Z" fill="#FC7AF6" fill-opacity="0.15"/>
<path d="M494.517 332.157C494.517 331.012 493.594 330.085 492.454 330.085C491.314 330.085 490.391 331.012 490.391 332.157C490.391 333.302 491.314 334.228 492.454 334.228C493.594 334.228 494.517 333.302 494.517 332.157Z" fill="#FC7AF6" fill-opacity="0.15"/>
<path d="M382.071 151.169C382.071 150.024 381.148 149.097 380.008 149.097C378.868 149.097 377.945 150.024 377.945 151.169C377.945 152.314 378.868 153.24 380.008 153.24C381.148 153.24 382.071 152.314 382.071 151.169Z" fill="#FC7AF6" fill-opacity="0.15"/>
<path d="M313.832 199.614C313.832 198.469 312.909 197.542 311.769 197.542C310.629 197.542 309.706 198.469 309.706 199.614C309.706 200.759 310.629 201.685 311.769 201.685C312.909 201.685 313.832 200.759 313.832 199.614Z" fill="#FC7AF6" fill-opacity="0.15"/>
<path d="M336.361 303.791C336.361 302.646 335.438 301.719 334.298 301.719C333.158 301.719 332.235 302.646 332.235 303.791C332.235 304.936 333.158 305.863 334.298 305.863C335.438 305.863 336.361 304.936 336.361 303.791Z" fill="#FC7AF6" fill-opacity="0.15"/>
<path d="M382.071 151.169C382.071 150.024 381.148 149.097 380.008 149.097C378.868 149.097 377.945 150.024 377.945 151.169C377.945 152.314 378.868 153.24 380.008 153.24C381.148 153.24 382.071 152.314 382.071 151.169Z" fill="#FC7AF6" fill-opacity="0.15"/>
<path d="M229.488 139.757C229.488 138.612 228.566 137.685 227.426 137.685C226.286 137.685 225.363 138.612 225.363 139.757C225.363 140.902 226.286 141.828 227.426 141.828C228.566 141.828 229.488 140.902 229.488 139.757Z" fill="#FC7AF6" fill-opacity="0.15"/>
<path d="M313.832 199.614C313.832 198.469 312.909 197.542 311.769 197.542C310.629 197.542 309.706 198.469 309.706 199.614C309.706 200.759 310.629 201.685 311.769 201.685C312.909 201.685 313.832 200.759 313.832 199.614Z" fill="#FC7AF6" fill-opacity="0.15"/>
<path d="M247.476 18.3714C247.476 17.2265 246.553 16.2998 245.413 16.2998C244.273 16.2998 243.35 17.2265 243.35 18.3714C243.35 19.5162 244.273 20.4429 245.413 20.4429C246.553 20.4429 247.476 19.5162 247.476 18.3714Z" fill="#FC7AF6" fill-opacity="0.15"/>
<path d="M229.488 139.757C229.488 138.612 228.566 137.685 227.426 137.685C226.286 137.685 225.363 138.612 225.363 139.757C225.363 140.902 226.286 141.828 227.426 141.828C228.566 141.828 229.488 140.902 229.488 139.757Z" fill="#FC7AF6" fill-opacity="0.15"/>
<path d="M330.534 48.3362C330.534 47.1914 329.612 46.2646 328.472 46.2646C327.332 46.2646 326.409 47.1914 326.409 48.3362C326.409 49.481 327.332 50.4078 328.472 50.4078C329.612 50.4078 330.534 49.481 330.534 48.3362Z" fill="#FC7AF6" fill-opacity="0.15"/>
<path d="M340.74 15.9363C340.74 14.7915 339.817 13.8647 338.677 13.8647C337.537 13.8647 336.615 14.7915 336.615 15.9363C336.615 17.0811 337.537 18.0078 338.677 18.0078C339.817 18.0078 340.74 17.0811 340.74 15.9363Z" fill="#FC7AF6" fill-opacity="0.15"/>
<path d="M247.476 18.3714C247.476 17.2265 246.553 16.2998 245.413 16.2998C244.273 16.2998 243.35 17.2265 243.35 18.3714C243.35 19.5162 244.273 20.4429 245.413 20.4429C246.553 20.4429 247.476 19.5162 247.476 18.3714Z" fill="#FC7AF6" fill-opacity="0.15"/>
<path d="M330.534 48.3362C330.534 47.1914 329.612 46.2646 328.472 46.2646C327.332 46.2646 326.409 47.1914 326.409 48.3362C326.409 49.481 327.332 50.4078 328.472 50.4078C329.612 50.4078 330.534 49.481 330.534 48.3362Z" fill="#FC7AF6" fill-opacity="0.15"/>
<path d="M382.071 151.169C382.071 150.024 381.148 149.097 380.008 149.097C378.868 149.097 377.945 150.024 377.945 151.169C377.945 152.314 378.868 153.24 380.008 153.24C381.148 153.24 382.071 152.314 382.071 151.169Z" fill="#FC7AF6" fill-opacity="0.15"/>
<path d="M411.331 32.0728C411.331 30.928 410.408 30.0012 409.268 30.0012C408.128 30.0012 407.206 30.928 407.206 32.0728C407.206 33.2176 408.128 34.1443 409.268 34.1443C410.408 34.1443 411.331 33.2176 411.331 32.0728Z" fill="#FC7AF6" fill-opacity="0.15"/>
<path d="M330.534 48.3362C330.534 47.1914 329.612 46.2646 328.472 46.2646C327.332 46.2646 326.409 47.1914 326.409 48.3362C326.409 49.481 327.332 50.4078 328.472 50.4078C329.612 50.4078 330.534 49.481 330.534 48.3362Z" fill="#FC7AF6" fill-opacity="0.15"/>
<path d="M459.972 59.9297C459.972 58.7849 459.049 57.8582 457.909 57.8582C456.769 57.8582 455.846 58.7849 455.846 59.9297C455.846 61.0745 456.769 62.0013 457.909 62.0013C459.049 62.0013 459.972 61.0745 459.972 59.9297Z" fill="#FC7AF6" fill-opacity="0.15"/>
<path d="M411.331 32.0728C411.331 30.928 410.408 30.0012 409.268 30.0012C408.128 30.0012 407.206 30.928 407.206 32.0728C407.206 33.2176 408.128 34.1443 409.268 34.1443C410.408 34.1443 411.331 33.2176 411.331 32.0728Z" fill="#FC7AF6" fill-opacity="0.15"/>
<path d="M450.11 82.6441C450.11 81.4993 449.187 80.5725 448.047 80.5725C446.907 80.5725 445.984 81.4993 445.984 82.6441C445.984 83.7889 446.907 84.7156 448.047 84.7156C449.187 84.7156 450.11 83.7889 450.11 82.6441Z" fill="#FC7AF6" fill-opacity="0.15"/>
<path d="M459.972 59.9297C459.972 58.7849 459.049 57.8582 457.909 57.8582C456.769 57.8582 455.846 58.7849 455.846 59.9297C455.846 61.0745 456.769 62.0013 457.909 62.0013C459.049 62.0013 459.972 61.0745 459.972 59.9297Z" fill="#FC7AF6" fill-opacity="0.15"/>
<path d="M515.055 106.503C515.055 105.358 514.132 104.432 512.992 104.432C511.852 104.432 510.929 105.358 510.929 106.503C510.929 107.648 511.852 108.575 512.992 108.575C514.132 108.575 515.055 107.648 515.055 106.503Z" fill="#FC7AF6" fill-opacity="0.15"/>
<path d="M450.11 82.6441C450.11 81.4993 449.187 80.5725 448.047 80.5725C446.907 80.5725 445.984 81.4993 445.984 82.6441C445.984 83.7889 446.907 84.7156 448.047 84.7156C449.187 84.7156 450.11 83.7889 450.11 82.6441Z" fill="#FC7AF6" fill-opacity="0.15"/>
<path d="M382.071 151.169C382.071 150.024 381.148 149.097 380.008 149.097C378.868 149.097 377.945 150.024 377.945 151.169C377.945 152.314 378.868 153.24 380.008 153.24C381.148 153.24 382.071 152.314 382.071 151.169Z" fill="#FC7AF6" fill-opacity="0.15"/>
<path d="M463.899 183.332C463.899 182.187 462.976 181.261 461.836 181.261C460.696 181.261 459.773 182.187 459.773 183.332C459.773 184.477 460.696 185.404 461.836 185.404C462.976 185.404 463.899 184.477 463.899 183.332Z" fill="#FC7AF6" fill-opacity="0.15"/>
<path d="M494.517 332.157C494.517 331.012 493.594 330.085 492.454 330.085C491.314 330.085 490.391 331.012 490.391 332.157C490.391 333.302 491.314 334.228 492.454 334.228C493.594 334.228 494.517 333.302 494.517 332.157Z" fill="#FC7AF6" fill-opacity="0.15"/>
<path d="M559.987 359.45C559.987 358.305 559.064 357.379 557.924 357.379C556.784 357.379 555.861 358.305 555.861 359.45C555.861 360.595 556.784 361.522 557.924 361.522C559.064 361.522 559.987 360.595 559.987 359.45Z" fill="#FC7AF6" fill-opacity="0.15"/>
<path d="M561 173.12C561 171.975 560.077 171.048 558.937 171.048C557.797 171.048 556.874 171.975 556.874 173.12C556.874 174.265 557.797 175.191 558.937 175.191C560.077 175.191 561 174.265 561 173.12Z" fill="#FC7AF6" fill-opacity="0.15"/>
<path d="M450.11 82.6441C450.11 81.4993 449.187 80.5725 448.047 80.5725C446.907 80.5725 445.984 81.4993 445.984 82.6441C445.984 83.7889 446.907 84.7156 448.047 84.7156C449.187 84.7156 450.11 83.7889 450.11 82.6441Z" fill="#FC7AF6" fill-opacity="0.15"/>
<path d="M515.055 106.503C515.055 105.358 514.132 104.432 512.992 104.432C511.852 104.432 510.929 105.358 510.929 106.503C510.929 107.648 511.852 108.575 512.992 108.575C514.132 108.575 515.055 107.648 515.055 106.503Z" fill="#FC7AF6" fill-opacity="0.15"/>
<path d="M463.899 183.332C463.899 182.187 462.976 181.261 461.836 181.261C460.696 181.261 459.773 182.187 459.773 183.332C459.773 184.477 460.696 185.404 461.836 185.404C462.976 185.404 463.899 184.477 463.899 183.332Z" fill="#FC7AF6" fill-opacity="0.15"/>
<path d="M561 173.12C561 171.975 560.077 171.048 558.937 171.048C557.797 171.048 556.874 171.975 556.874 173.12C556.874 174.265 557.797 175.191 558.937 175.191C560.077 175.191 561 174.265 561 173.12Z" fill="#FC7AF6" fill-opacity="0.15"/>
<path d="M463.899 183.332C463.899 182.187 462.976 181.261 461.836 181.261C460.696 181.261 459.773 182.187 459.773 183.332C459.773 184.477 460.696 185.404 461.836 185.404C462.976 185.404 463.899 184.477 463.899 183.332Z" fill="#FC7AF6" fill-opacity="0.15"/>
<path d="M584.778 238.755C584.778 237.61 583.855 236.684 582.715 236.684C581.575 236.684 580.652 237.61 580.652 238.755C580.652 239.9 581.575 240.827 582.715 240.827C583.855 240.827 584.778 239.9 584.778 238.755Z" fill="#FC7AF6" fill-opacity="0.15"/>
<path d="M591.618 289.508C591.618 288.363 590.695 287.437 589.555 287.437C588.415 287.437 587.492 288.363 587.492 289.508C587.492 290.653 588.415 291.58 589.555 291.58C590.695 291.58 591.618 290.653 591.618 289.508Z" fill="#FC7AF6" fill-opacity="0.15"/>
<path d="M494.517 332.157C494.517 331.012 493.594 330.085 492.454 330.085C491.314 330.085 490.391 331.012 490.391 332.157C490.391 333.302 491.314 334.228 492.454 334.228C493.594 334.228 494.517 333.302 494.517 332.157Z" fill="#FC7AF6" fill-opacity="0.15"/>
<path d="M561 173.12C561 171.975 560.077 171.048 558.937 171.048C557.797 171.048 556.874 171.975 556.874 173.12C556.874 174.265 557.797 175.191 558.937 175.191C560.077 175.191 561 174.265 561 173.12Z" fill="#FC7AF6" fill-opacity="0.15"/>
<path d="M273.696 603.966C273.696 603.966 273.642 603.966 273.624 603.966L200.499 587.83C200.499 587.83 200.463 587.83 200.427 587.812C200.409 587.812 200.391 587.793 200.373 587.775L86.8408 517.252C86.8408 517.252 86.8046 517.215 86.7865 517.197C86.7865 517.197 86.7684 517.161 86.7503 517.143L36.2997 445.111C36.2997 445.111 36.2636 445.056 36.2636 445.038C36.2636 445.038 36.2636 445.038 36.2636 445.02L6.55057 362.467C6.55057 362.467 6.55057 362.412 6.55057 362.376L4.03528 265.376C4.03528 265.376 4.03528 265.322 4.03528 265.304C4.03528 265.304 4.03528 265.286 4.03528 265.267L20.6832 191.855C20.6832 191.855 20.7013 191.782 20.7194 191.746L49.4372 141.156C49.4372 141.156 49.4372 141.156 49.4372 141.138C49.4372 141.138 49.4372 141.12 49.4553 141.102L97.4991 83.8068C97.4991 83.8068 97.5534 83.7523 97.5715 83.7342L166.281 35.9431L166.317 35.9249C166.317 35.9249 166.335 35.9249 166.353 35.9249L207.448 19.8068C207.611 19.7341 207.792 19.8068 207.882 19.9522C207.973 20.0976 207.955 20.2975 207.828 20.4065L190.854 36.034L222.558 36.2157L233.849 11.3934C233.904 11.2844 234.012 11.1935 234.139 11.1754L286.49 4.07031C286.49 4.07031 286.526 4.07031 286.544 4.07031C286.58 4.07031 286.598 4.07031 286.616 4.07031L365.984 22.9868L371.684 12.3929C371.774 12.2293 371.955 12.1566 372.136 12.2293L448.156 42.5757C448.156 42.5757 448.156 42.5757 448.174 42.5757C448.174 42.5757 448.228 42.6121 448.246 42.6302L517.77 96.1271C517.77 96.1271 517.806 96.1635 517.824 96.1816C517.824 96.1816 517.824 96.1998 517.842 96.218L563.57 159.855C563.57 159.855 563.57 159.873 563.588 159.891C563.588 159.891 563.588 159.927 563.606 159.945L591.129 229.597C591.202 229.76 591.129 229.96 590.966 230.051L579.222 236.393L584.524 262.305L597.915 266.612C598.06 266.667 598.168 266.794 598.168 266.957L598.928 332.829C598.928 332.829 598.928 332.865 598.928 332.884C598.928 332.884 598.928 332.902 598.928 332.92L586.931 394.212C586.913 394.321 586.822 394.43 586.714 394.467C586.605 394.521 586.479 394.503 586.388 394.449L581.43 391.45L564.981 446.492C564.981 446.492 564.981 446.51 564.981 446.528C564.981 446.528 564.945 446.601 564.927 446.619L514.711 515.016C514.711 515.016 514.675 515.071 514.657 515.089L439.995 570.948C439.886 571.039 439.741 571.039 439.615 570.985C439.488 570.912 439.416 570.785 439.416 570.658L439.868 557.102L367.431 597.769C367.431 597.769 367.232 597.824 367.142 597.806L222.124 555.012L273.931 603.384C274.058 603.493 274.076 603.675 274.004 603.821C273.931 603.948 273.823 604.02 273.678 604.02L273.696 603.966ZM200.934 587.175L272.466 602.967L220.585 554.503L203.232 549.669L200.934 587.157V587.175ZM222.504 554.321L366.744 596.879L351.815 536.968L222.504 554.321ZM352.539 536.859L367.413 596.588L420.18 527.791L352.539 536.877V536.859ZM421.211 527.646L368.626 596.225L439.904 556.211L440.936 525.011L421.211 527.664V527.646ZM164.887 538.985L200.264 586.449L202.526 549.47L164.887 538.985ZM89.3742 517.942L199.124 586.14L163.747 538.676L89.3742 517.96V517.942ZM440.61 556.647L440.176 569.894L509.789 517.815L440.61 556.647ZM441.66 524.902L440.628 555.793L512.594 515.38L441.641 524.902H441.66ZM203.594 544L220.712 553.74L267.67 505.967L205.801 508.039L203.594 544.018V544ZM268.72 505.913L221.762 553.667L351.634 536.241L343.455 503.423L268.702 505.913H268.72ZM203.286 548.924L218.034 553.031L203.539 544.8L203.286 548.924ZM164.181 538.04L202.58 548.743L202.852 544.418L143.987 510.946L164.181 538.058V538.04ZM143.951 510.074L202.888 543.582L205.077 508.02L143.969 510.056L143.951 510.074ZM88.8494 517.052L163.041 537.731L142.503 510.165L88.8675 517.07L88.8494 517.052ZM344.215 503.405L352.376 536.168L420.831 526.973L441.388 500.17L344.215 503.423V503.405ZM441.732 500.879L421.827 526.828L440.954 524.266L441.732 500.879ZM442.492 500.207L441.696 524.157L512.287 514.689L442.492 500.207ZM79.4216 471.514L87.3294 516.525L141.598 509.547L79.4216 471.514ZM37.856 446.092L85.9179 514.708L69.7947 465.626L37.856 446.092ZM443.324 499.643L514.205 514.344L534.345 459.957L443.324 499.625V499.643ZM535.268 459.575L515.671 512.472L563.57 447.219L535.25 459.557L535.268 459.575ZM70.7538 466.208L85.8093 512.018L78.6073 471.005L70.7538 466.208ZM209.493 436.061L143.498 509.365L205.114 507.312L209.493 436.061ZM137.255 439.514L142.937 508.893L209.04 435.462L137.255 439.514ZM74.8434 443.039L142.231 508.82L136.549 439.55L74.8434 443.039ZM79.2406 470.551L140.096 507.766L74.5358 443.766L79.2406 470.551ZM210.253 435.443L205.838 507.294L268.412 505.204L328.236 444.347L210.253 435.443ZM328.851 444.747L269.462 505.149L343.292 502.678L328.851 444.729V444.747ZM329.575 444.711L344.016 502.678L440.664 499.462L329.575 444.729V444.711ZM330.172 444.184L441.732 499.153L434.331 423.596L330.172 444.184ZM479.027 414.764L442.836 499.062L534.707 459.012L556.784 399.391L479.027 414.764ZM435.037 423.468L442.365 498.335L478.176 414.946L435.055 423.468H435.037ZM70.3919 465.136L78.4263 470.042L73.7034 443.094L63.3708 443.693L70.41 465.136H70.3919ZM37.7474 445.165L69.4509 464.554L62.6108 443.748L37.7474 445.165ZM557.2 400.354L535.63 458.63L564.275 446.146L557.2 400.354ZM554.268 375.005L557.707 398.864L564.782 444.711L580.833 391.032L554.268 375.023V375.005ZM7.92583 364.139L36.8245 444.493L62.3755 443.021L54.9744 420.506L7.92583 364.139ZM210.235 434.717L328.164 443.621L220.386 323.489L199.178 337.426L210.217 434.735L210.235 434.717ZM425.174 330.158L329.973 443.493L434.24 422.887L425.174 330.158ZM301.762 270.519L329.268 443.203L424.867 329.395L301.762 270.537V270.519ZM56.223 422.015L63.1174 442.985L73.251 442.403L56.223 422.015ZM221.002 323.071L328.49 442.876L301.02 270.501L221.002 323.071ZM131.808 381.874L74.8796 442.312L136.477 438.842L131.808 381.874ZM55.6259 420.143L74.011 442.185L131.356 381.311L38.2903 367.409L55.6259 420.161V420.143ZM132.532 381.783L137.201 438.805L208.841 434.753L132.532 381.783ZM132.749 381.056L209.457 434.299L198.509 337.844L132.749 381.056ZM425.862 329.722L434.964 422.742L478.52 414.128L507.383 346.894L425.862 329.722ZM7.78107 362.848L54.3592 418.653L37.4941 367.282L7.78107 362.848ZM508.052 347.148L479.371 413.965L556.947 398.628L553.472 374.533L508.052 347.148ZM581.683 390.705L586.352 393.522L596.829 340.043L581.683 390.705ZM554.142 374.078L581.05 390.305L598.114 333.229L549.328 340.661L554.142 374.078ZM38.0369 366.628L131.157 380.547L88.2341 332.702L33.5311 352.909L38.0369 366.646V366.628ZM88.958 332.429L131.808 380.184L136.658 314.839L88.9761 332.447L88.958 332.429ZM137.4 314.549L132.568 379.766L192.863 294.069L137.4 314.549ZM193.569 294.305L133.473 379.711L198.418 337.027L193.569 294.287V294.305ZM508.939 346.821L553.346 373.588L548.623 340.77L508.957 346.821H508.939ZM8.34203 362.194L37.2226 366.519L32.8254 353.163L8.32394 362.212L8.34203 362.194ZM22.1852 320.69L7.49154 361.74L32.6082 352.472L22.1671 320.709L22.1852 320.69ZM4.81339 267.793L7.20201 360.413L21.8052 319.582L4.79529 267.811L4.81339 267.793ZM22.5833 319.564L33.2959 352.2L87.7094 332.102L37.9464 276.643L22.5833 319.564ZM537.005 260.252L508.414 346.167L548.496 340.061L536.987 260.252H537.005ZM426.405 329.086L507.274 346.112L483.659 292.906L426.405 329.068V329.086ZM484.275 292.525L507.853 345.622L536.499 259.543L484.293 292.525H484.275ZM537.675 259.907L549.202 339.952L597.915 332.52L537.657 259.907H537.675ZM194.311 294.396L199.106 336.591L219.916 322.926L194.329 294.396H194.311ZM38.3988 276.061L88.4513 331.848L136.712 314.022L143.462 222.964L38.3988 276.061ZM537.711 258.798L597.987 331.448L583.963 262.832L550.287 252.02L537.711 258.816V258.798ZM584.741 263.069L598.223 328.995L597.499 267.175L584.741 263.087V263.069ZM302.269 269.956L425.211 328.74L451.178 220.529L302.269 269.956ZM451.775 221.111L426.007 328.468L483.352 292.234L451.775 221.092V221.111ZM194.51 293.542L220.513 322.526L299.446 270.664L194.51 293.542ZM4.94006 265.885L22.2033 318.455L37.3312 276.188L4.94006 265.885ZM144.15 223.382L137.454 313.749L193.261 293.142L144.15 223.382ZM144.765 223.001L193.985 292.906L299.844 269.828L144.765 222.982V223.001ZM452.39 220.711L483.967 291.852L536.372 258.744L452.39 220.711ZM4.81339 265.086L37.3312 275.425L21.009 193.654L4.81339 265.086ZM45.058 198.233L38.2179 275.334L142.829 222.455L45.0761 198.233H45.058ZM21.4975 192.4L37.6569 273.426L44.3523 198.069L21.4975 192.4ZM317.65 179.989L301.762 269.356L450.472 220.002L317.65 179.989ZM144.729 222.237L300.098 269.156L214.94 178.244L144.729 222.237ZM215.573 177.844L301.075 269.12L316.963 179.771L246.426 158.51L215.591 177.826L215.573 177.844ZM551.156 251.53L583.782 261.997L578.607 236.702L551.156 251.53ZM457.584 222.274L536.698 258.108L535.395 247.259L457.584 222.292V222.274ZM540.154 248.768L537.711 257.981L549.31 251.711L540.154 248.768ZM536.155 247.478L537.277 256.763L539.466 248.531L536.155 247.478ZM540.335 248.059L550.197 251.221L578.462 235.957L563.262 161.599L540.335 248.059ZM536.064 246.696L539.647 247.841L562.737 160.745L527.939 179.425L536.046 246.696H536.064ZM452.589 219.893L535.304 246.442L527.27 179.789L452.589 219.893ZM564.492 163.998L579.132 235.593L590.387 229.506L564.492 163.979V163.998ZM73.9567 151.841L143.715 221.692L176.468 137.685L73.9567 151.841ZM45.1304 197.506L142.684 221.692L73.1605 152.077L47.3924 171.993L45.1304 197.506ZM177.174 137.903L144.602 221.456L214.451 177.699L177.174 137.903ZM317.777 179.262L450.309 219.184L330.788 106.103L317.777 179.262ZM331.783 106.049L451.304 219.13L449.549 133.688L331.783 106.049ZM492.689 143.827L452.553 219.112L527.179 179.025L523.814 151.132L492.689 143.827ZM450.273 133.869L452.01 218.603L491.965 143.664L450.273 133.869ZM21.8414 191.727L44.4066 197.324L46.5962 172.575L21.8233 191.727H21.8414ZM49.2381 142.955L22.4928 190.074L47.0666 167.45L49.2381 142.973V142.955ZM46.9762 168.504L27.4872 186.458L46.7047 171.593L46.9762 168.504ZM247.24 158.019L317.089 179.062L330.064 106.121L247.24 158.001V158.019ZM524.555 151.296L527.849 178.644L562.285 160.145L524.555 151.296ZM178.224 137.976L215.066 177.299L245.485 158.237L178.224 137.976ZM47.7724 167.777L47.4828 170.994L72.491 151.659L67.6052 149.515L47.7724 167.777ZM50.0705 141.865L47.8628 166.705L66.8632 149.206L50.0705 141.865ZM524.465 150.533L562.448 159.455L518.113 97.7444L524.483 150.551L524.465 150.533ZM178.513 137.304L246.299 157.728L328.634 106.14L178.513 137.304ZM97.8791 121.64L74.0472 151.096L176.052 137.013L121.204 100.179L97.8972 121.64H97.8791ZM68.1842 148.988L72.9976 151.096L76.5806 141.265L68.2023 148.988H68.1842ZM493.051 143.155L523.723 150.351L517.353 97.5445L493.033 143.137L493.051 143.155ZM77.7206 140.211L74.2824 149.679L94.2419 125.02L77.7387 140.211H77.7206ZM50.3419 141.192L67.4604 148.679L77.1053 139.793L96.7572 85.842L50.3419 141.192ZM450.255 133.106L492.327 142.973L516.973 96.7631L449.585 100.016L450.255 133.106ZM97.9696 84.5882L78.2454 138.721L97.3362 121.149L116.717 97.1992L97.9515 84.6064L97.9696 84.5882ZM214.071 56.6768L177.681 136.74L329.358 105.267L214.089 56.6768H214.071ZM121.747 99.6705L176.613 136.504L168.307 56.804L121.765 99.6705H121.747ZM168.959 56.2043L177.265 135.886L213.401 56.4042L182.766 43.4843L168.959 56.2043ZM333.158 105.631L449.531 132.943L448.862 100.052L333.158 105.631ZM117.332 97.599L101.01 117.788L120.571 99.7796L117.332 97.6172V97.599ZM417.484 59.5479L332.163 104.94L448.843 99.3253L448.264 70.9959L417.484 59.5479ZM214.361 56.0226L329.847 104.704L300.496 37.3423L223.028 36.9062L214.342 56.0044L214.361 56.0226ZM358.908 37.7603L331.276 104.595L416.579 59.2026L358.908 37.7603ZM301.31 37.3423L330.552 104.45L358.166 37.6512L301.31 37.3423ZM448.988 71.2503L449.567 99.2889L515.797 96.0908L448.988 71.2503ZM117.802 97.0175L121.132 99.2526L168.217 55.9136L166.262 37.1606L117.82 97.0357L117.802 97.0175ZM98.4401 84.0249L117.187 96.6177L164.616 37.9965L98.422 84.0249H98.4401ZM448.97 70.469L515.453 95.1822L448.409 43.6115L448.952 70.469H448.97ZM418.334 59.0936L448.246 70.2146L447.703 43.4843L418.352 59.1118L418.334 59.0936ZM361.134 37.8148L417.429 58.7483L446.744 43.1572L361.134 37.8148ZM183.345 42.9391L213.691 55.7319L222.25 36.9062L190.094 36.7245L183.345 42.9391ZM166.932 36.8153L168.868 55.2958L182.042 43.1754L166.95 36.8153H166.932ZM168.325 36.6155L182.603 42.6302L189.009 36.7245L168.307 36.6155H168.325ZM359.288 36.9789L443.849 42.2486L366.382 23.7864L359.288 36.9789ZM366.726 23.1322L443.27 41.3764L372.172 12.9925L366.726 23.1322ZM300.984 36.6155L357.008 36.9244L287.268 5.12426L300.984 36.6336V36.6155ZM290.091 5.61489L358.528 36.8335L365.64 23.6228L290.091 5.61489ZM223.372 36.1975L300.188 36.6155L286.327 4.79717L234.447 11.8477L223.372 36.1975ZM168.398 35.8886L189.805 35.9976L205.928 21.1515L168.398 35.8704V35.8886Z" fill="#FC7AF6" fill-opacity="0.15"/>
<path d="M166.516 40.6314C168.934 40.6314 170.895 38.6626 170.895 36.2339C170.895 33.8053 168.934 31.8364 166.516 31.8364C164.097 31.8364 162.137 33.8053 162.137 36.2339C162.137 38.6626 164.097 40.6314 166.516 40.6314Z" fill="#FC7AF6" fill-opacity="0.15"/>
<path d="M207.611 23.4593C209.45 23.4593 210.94 21.9624 210.94 20.1158C210.94 18.2692 209.45 16.7722 207.611 16.7722C205.772 16.7722 204.281 18.2692 204.281 20.1158C204.281 21.9624 205.772 23.4593 207.611 23.4593Z" fill="#FC7AF6" fill-opacity="0.15"/>
<path d="M25.4062 191.909C25.4062 194.344 23.4519 196.307 21.0271 196.307C18.6023 196.307 16.6479 194.344 16.6479 191.909C16.6479 189.474 18.6023 187.512 21.0271 187.512C23.4519 187.512 25.4062 189.474 25.4062 191.909Z" fill="#FC7AF6" fill-opacity="0.15"/>
<path d="M8.75828 265.322C8.75828 267.757 6.80395 269.72 4.37914 269.72C1.95433 269.72 0 267.757 0 265.322C0 262.887 1.95433 260.925 4.37914 260.925C6.80395 260.925 8.75828 262.887 8.75828 265.322Z" fill="#FC7AF6" fill-opacity="0.15"/>
<path d="M91.401 516.925C91.401 519.36 89.4467 521.322 87.0218 521.322C84.597 521.322 82.6427 519.36 82.6427 516.925C82.6427 514.49 84.597 512.527 87.0218 512.527C89.4467 512.527 91.401 514.49 91.401 516.925Z" fill="#FC7AF6" fill-opacity="0.15"/>
<path d="M225.146 554.176C225.146 556.611 223.191 558.574 220.766 558.574C218.342 558.574 216.387 556.611 216.387 554.176C216.387 551.741 218.342 549.779 220.766 549.779C223.191 549.779 225.146 551.741 225.146 554.176Z" fill="#FC7AF6" fill-opacity="0.15"/>
<path d="M142.666 514.162C145.084 514.162 147.045 512.194 147.045 509.765C147.045 507.336 145.084 505.367 142.666 505.367C140.247 505.367 138.287 507.336 138.287 509.765C138.287 512.194 140.247 514.162 142.666 514.162Z" fill="#FC7AF6" fill-opacity="0.15"/>
<path d="M442.148 504.168C444.567 504.168 446.527 502.199 446.527 499.771C446.527 497.342 444.567 495.373 442.148 495.373C439.73 495.373 437.769 497.342 437.769 499.771C437.769 502.199 439.73 504.168 442.148 504.168Z" fill="#FC7AF6" fill-opacity="0.15"/>
<path d="M512.269 346.621C512.269 349.056 510.314 351.019 507.889 351.019C505.465 351.019 503.51 349.056 503.51 346.621C503.51 344.186 505.465 342.224 507.889 342.224C510.314 342.224 512.269 344.186 512.269 346.621Z" fill="#FC7AF6" fill-opacity="0.15"/>
<path d="M429.825 329.249C429.825 331.684 427.871 333.647 425.446 333.647C423.021 333.647 421.067 331.684 421.067 329.249C421.067 326.814 423.021 324.852 425.446 324.852C427.871 324.852 429.825 326.814 429.825 329.249Z" fill="#FC7AF6" fill-opacity="0.15"/>
<path d="M442.148 504.168C444.567 504.168 446.527 502.199 446.527 499.771C446.527 497.342 444.567 495.373 442.148 495.373C439.73 495.373 437.769 497.342 437.769 499.771C437.769 502.199 439.73 504.168 442.148 504.168Z" fill="#FC7AF6" fill-opacity="0.15"/>
<path d="M333.412 444.039C333.412 446.474 331.457 448.436 329.032 448.436C326.608 448.436 324.653 446.474 324.653 444.039C324.653 441.604 326.608 439.641 329.032 439.641C331.457 439.641 333.412 441.604 333.412 444.039Z" fill="#FC7AF6" fill-opacity="0.15"/>
<path d="M561.724 398.919C561.724 401.354 559.77 403.316 557.345 403.316C554.92 403.316 552.966 401.354 552.966 398.919C552.966 396.484 554.92 394.521 557.345 394.521C559.77 394.521 561.724 396.484 561.724 398.919Z" fill="#FC7AF6" fill-opacity="0.15"/>
<path d="M541.511 258.689C541.511 261.124 539.557 263.087 537.132 263.087C534.707 263.087 532.753 261.124 532.753 258.689C532.753 256.254 534.707 254.292 537.132 254.292C539.557 254.292 541.511 256.254 541.511 258.689Z" fill="#FC7AF6" fill-opacity="0.15"/>
<path d="M598.621 337.19C601.039 337.19 603 335.221 603 332.793C603 330.364 601.039 328.395 598.621 328.395C596.202 328.395 594.242 330.364 594.242 332.793C594.242 335.221 596.202 337.19 598.621 337.19Z" fill="#FC7AF6" fill-opacity="0.15"/>
<path d="M512.269 346.621C512.269 349.056 510.314 351.019 507.889 351.019C505.465 351.019 503.51 349.056 503.51 346.621C503.51 344.186 505.465 342.224 507.889 342.224C510.314 342.224 512.269 344.186 512.269 346.621Z" fill="#FC7AF6" fill-opacity="0.15"/>
<path d="M589.935 394.085C589.935 395.92 588.451 397.411 586.623 397.411C584.796 397.411 583.312 395.92 583.312 394.085C583.312 392.25 584.796 390.76 586.623 390.76C588.451 390.76 589.935 392.25 589.935 394.085Z" fill="#FC7AF6" fill-opacity="0.15"/>
<path d="M598.621 337.19C601.039 337.19 603 335.221 603 332.793C603 330.364 601.039 328.395 598.621 328.395C596.202 328.395 594.242 330.364 594.242 332.793C594.242 335.221 596.202 337.19 598.621 337.19Z" fill="#FC7AF6" fill-opacity="0.15"/>
<path d="M564.673 450.762C567.092 450.762 569.053 448.793 569.053 446.365C569.053 443.936 567.092 441.967 564.673 441.967C562.255 441.967 560.294 443.936 560.294 446.365C560.294 448.793 562.255 450.762 564.673 450.762Z" fill="#FC7AF6" fill-opacity="0.15"/>
<path d="M561.724 398.919C561.724 401.354 559.77 403.316 557.345 403.316C554.92 403.316 552.966 401.354 552.966 398.919C552.966 396.484 554.92 394.521 557.345 394.521C559.77 394.521 561.724 396.484 561.724 398.919Z" fill="#FC7AF6" fill-opacity="0.15"/>
<path d="M518.819 514.762C518.819 517.197 516.865 519.16 514.44 519.16C512.015 519.16 510.061 517.197 510.061 514.762C510.061 512.327 512.015 510.365 514.44 510.365C516.865 510.365 518.819 512.327 518.819 514.762Z" fill="#FC7AF6" fill-opacity="0.15"/>
<path d="M564.674 451.271C567.372 451.271 569.559 449.074 569.559 446.365C569.559 443.655 567.372 441.458 564.674 441.458C561.975 441.458 559.788 443.655 559.788 446.365C559.788 449.074 561.975 451.271 564.674 451.271Z" fill="#FC7AF6" fill-opacity="0.15"/>
<path d="M442.148 504.168C444.567 504.168 446.527 502.199 446.527 499.771C446.527 497.342 444.567 495.373 442.148 495.373C439.73 495.373 437.769 497.342 437.769 499.771C437.769 502.199 439.73 504.168 442.148 504.168Z" fill="#FC7AF6" fill-opacity="0.15"/>
<path d="M518.819 514.762C518.819 517.197 516.865 519.16 514.44 519.16C512.015 519.16 510.061 517.197 510.061 514.762C510.061 512.327 512.015 510.365 514.44 510.365C516.865 510.365 518.819 512.327 518.819 514.762Z" fill="#FC7AF6" fill-opacity="0.15"/>
<path d="M445.025 570.621C445.025 573.529 442.673 575.891 439.778 575.891C436.882 575.891 434.53 573.529 434.53 570.621C434.53 567.714 436.882 565.352 439.778 565.352C442.673 565.352 445.025 567.714 445.025 570.621Z" fill="#FC7AF6" fill-opacity="0.15"/>
<path d="M442.148 506.458C445.826 506.458 448.807 503.464 448.807 499.771C448.807 496.077 445.826 493.083 442.148 493.083C438.47 493.083 435.489 496.077 435.489 499.771C435.489 503.464 438.47 506.458 442.148 506.458Z" fill="#FC7AF6" fill-opacity="0.15"/>
<path d="M371.63 597.406C371.63 599.841 369.675 601.804 367.25 601.804C364.826 601.804 362.871 599.841 362.871 597.406C362.871 594.971 364.826 593.009 367.25 593.009C369.675 593.009 371.63 594.971 371.63 597.406Z" fill="#FC7AF6" fill-opacity="0.15"/>
<path d="M518.819 514.762C518.819 517.197 516.865 519.16 514.44 519.16C512.015 519.16 510.061 517.197 510.061 514.762C510.061 512.327 512.015 510.365 514.44 510.365C516.865 510.365 518.819 512.327 518.819 514.762Z" fill="#FC7AF6" fill-opacity="0.15"/>
<path d="M225.146 554.176C225.146 556.611 223.191 558.574 220.766 558.574C218.342 558.574 216.387 556.611 216.387 554.176C216.387 551.741 218.342 549.779 220.766 549.779C223.191 549.779 225.146 551.741 225.146 554.176Z" fill="#FC7AF6" fill-opacity="0.15"/>
<path d="M333.412 444.039C333.412 446.474 331.457 448.436 329.032 448.436C326.608 448.436 324.653 446.474 324.653 444.039C324.653 441.604 326.608 439.641 329.032 439.641C331.457 439.641 333.412 441.604 333.412 444.039Z" fill="#FC7AF6" fill-opacity="0.15"/>
<path d="M371.63 597.406C371.63 599.841 369.675 601.804 367.25 601.804C364.826 601.804 362.871 599.841 362.871 597.406C362.871 594.971 364.826 593.009 367.25 593.009C369.675 593.009 371.63 594.971 371.63 597.406Z" fill="#FC7AF6" fill-opacity="0.15"/>
<path d="M228.168 554.176C228.168 558.283 224.856 561.608 220.766 561.608C216.677 561.608 213.365 558.283 213.365 554.176C213.365 550.069 216.677 546.744 220.766 546.744C224.856 546.744 228.168 550.069 228.168 554.176Z" fill="#FC7AF6" fill-opacity="0.15"/>
<path d="M278.075 603.603C278.075 606.038 276.121 608 273.696 608C271.271 608 269.317 606.038 269.317 603.603C269.317 601.168 271.271 599.205 273.696 599.205C276.121 599.205 278.075 601.168 278.075 603.603Z" fill="#FC7AF6" fill-opacity="0.15"/>
<path d="M204.933 587.448C204.933 589.883 202.979 591.846 200.554 591.846C198.129 591.846 196.175 589.883 196.175 587.448C196.175 585.013 198.129 583.051 200.554 583.051C202.979 583.051 204.933 585.013 204.933 587.448Z" fill="#FC7AF6" fill-opacity="0.15"/>
<path d="M214.288 435.062C214.288 437.497 212.334 439.46 209.909 439.46C207.484 439.46 205.53 437.497 205.53 435.062C205.53 432.627 207.484 430.665 209.909 430.665C212.334 430.665 214.288 432.627 214.288 435.062Z" fill="#FC7AF6" fill-opacity="0.15"/>
<path d="M333.412 444.039C333.412 446.474 331.457 448.436 329.032 448.436C326.608 448.436 324.653 446.474 324.653 444.039C324.653 441.604 326.608 439.641 329.032 439.641C331.457 439.641 333.412 441.604 333.412 444.039Z" fill="#FC7AF6" fill-opacity="0.15"/>
<path d="M429.825 329.249C429.825 331.684 427.871 333.647 425.446 333.647C423.021 333.647 421.067 331.684 421.067 329.249C421.067 326.814 423.021 324.852 425.446 324.852C427.871 324.852 429.825 326.814 429.825 329.249Z" fill="#FC7AF6" fill-opacity="0.15"/>
<path d="M541.511 258.689C541.511 261.124 539.557 263.087 537.132 263.087C534.707 263.087 532.753 261.124 532.753 258.689C532.753 256.254 534.707 254.292 537.132 254.292C539.557 254.292 541.511 256.254 541.511 258.689Z" fill="#FC7AF6" fill-opacity="0.15"/>
<path d="M513.771 346.621C513.771 349.892 511.129 352.527 507.889 352.527C504.65 352.527 502.008 349.874 502.008 346.621C502.008 343.369 504.65 340.716 507.889 340.716C511.129 340.716 513.771 343.369 513.771 346.621Z" fill="#FC7AF6" fill-opacity="0.15"/>
<path d="M456.046 219.984C456.046 222.419 454.091 224.382 451.667 224.382C449.242 224.382 447.287 222.419 447.287 219.984C447.287 217.549 449.242 215.587 451.667 215.587C454.091 215.587 456.046 217.549 456.046 219.984Z" fill="#FC7AF6" fill-opacity="0.15"/>
<path d="M432.431 329.249C432.431 333.12 429.3 336.264 425.446 336.264C421.591 336.264 418.461 333.12 418.461 329.249C418.461 325.379 421.591 322.235 425.446 322.235C429.3 322.235 432.431 325.379 432.431 329.249Z" fill="#FC7AF6" fill-opacity="0.15"/>
<path d="M305.671 269.901C305.671 272.336 303.717 274.299 301.292 274.299C298.867 274.299 296.913 272.336 296.913 269.901C296.913 267.466 298.867 265.504 301.292 265.504C303.717 265.504 305.671 267.466 305.671 269.901Z" fill="#FC7AF6" fill-opacity="0.15"/>
<path d="M335.927 444.039C335.927 447.855 332.851 450.944 329.051 450.944C325.25 450.944 322.174 447.855 322.174 444.039C322.174 440.223 325.25 437.134 329.051 437.134C332.851 437.134 335.927 440.223 335.927 444.039Z" fill="#FC7AF6" fill-opacity="0.15"/>
<path d="M193.822 297.722C196.241 297.722 198.201 295.753 198.201 293.324C198.201 290.896 196.241 288.927 193.822 288.927C191.403 288.927 189.443 290.896 189.443 293.324C189.443 295.753 191.403 297.722 193.822 297.722Z" fill="#FC7AF6" fill-opacity="0.15"/>
<path d="M214.288 435.062C214.288 437.497 212.334 439.46 209.909 439.46C207.484 439.46 205.53 437.497 205.53 435.062C205.53 432.627 207.484 430.665 209.909 430.665C212.334 430.665 214.288 432.627 214.288 435.062Z" fill="#FC7AF6" fill-opacity="0.15"/>
<path d="M142.666 514.162C145.084 514.162 147.045 512.194 147.045 509.765C147.045 507.336 145.084 505.367 142.666 505.367C140.247 505.367 138.287 507.336 138.287 509.765C138.287 512.194 140.247 514.162 142.666 514.162Z" fill="#FC7AF6" fill-opacity="0.15"/>
<path d="M205.928 587.448C205.928 590.428 203.521 592.827 200.572 592.827C197.622 592.827 195.215 590.41 195.215 587.448C195.215 584.486 197.622 582.069 200.572 582.069C203.521 582.069 205.928 584.486 205.928 587.448Z" fill="#FC7AF6" fill-opacity="0.15"/>
<path d="M91.401 516.925C91.401 519.36 89.4467 521.322 87.0218 521.322C84.597 521.322 82.6427 519.36 82.6427 516.925C82.6427 514.49 84.597 512.527 87.0218 512.527C89.4467 512.527 91.401 514.49 91.401 516.925Z" fill="#FC7AF6" fill-opacity="0.15"/>
<path d="M142.666 514.162C145.084 514.162 147.045 512.194 147.045 509.765C147.045 507.336 145.084 505.367 142.666 505.367C140.247 505.367 138.287 507.336 138.287 509.765C138.287 512.194 140.247 514.162 142.666 514.162Z" fill="#FC7AF6" fill-opacity="0.15"/>
<path d="M136.477 381.038C136.477 383.473 134.523 385.436 132.098 385.436C129.673 385.436 127.719 383.473 127.719 381.038C127.719 378.603 129.673 376.641 132.098 376.641C134.523 376.641 136.477 378.603 136.477 381.038Z" fill="#FC7AF6" fill-opacity="0.15"/>
<path d="M214.288 435.062C214.288 437.497 212.334 439.46 209.909 439.46C207.484 439.46 205.53 437.497 205.53 435.062C205.53 432.627 207.484 430.665 209.909 430.665C212.334 430.665 214.288 432.627 214.288 435.062Z" fill="#FC7AF6" fill-opacity="0.15"/>
<path d="M78.372 442.73C78.372 445.165 76.4177 447.128 73.9929 447.128C71.5681 447.128 69.6138 445.165 69.6138 442.73C69.6138 440.295 71.5681 438.333 73.9929 438.333C76.4177 438.333 78.372 440.295 78.372 442.73Z" fill="#FC7AF6" fill-opacity="0.15"/>
<path d="M142.666 514.162C145.084 514.162 147.045 512.194 147.045 509.765C147.045 507.336 145.084 505.367 142.666 505.367C140.247 505.367 138.287 507.336 138.287 509.765C138.287 512.194 140.247 514.162 142.666 514.162Z" fill="#FC7AF6" fill-opacity="0.15"/>
<path d="M40.9504 444.875C40.9504 447.31 38.9961 449.272 36.5713 449.272C34.1465 449.272 32.1921 447.31 32.1921 444.875C32.1921 442.44 34.1465 440.477 36.5713 440.477C38.9961 440.477 40.9504 442.44 40.9504 444.875Z" fill="#FC7AF6" fill-opacity="0.15"/>
<path d="M91.401 516.925C91.401 519.36 89.4467 521.322 87.0218 521.322C84.597 521.322 82.6427 519.36 82.6427 516.925C82.6427 514.49 84.597 512.527 87.0218 512.527C89.4467 512.527 91.401 514.49 91.401 516.925Z" fill="#FC7AF6" fill-opacity="0.15"/>
<path d="M78.372 442.73C78.372 445.165 76.4177 447.128 73.9929 447.128C71.5681 447.128 69.6138 445.165 69.6138 442.73C69.6138 440.295 71.5681 438.333 73.9929 438.333C76.4177 438.333 78.372 440.295 78.372 442.73Z" fill="#FC7AF6" fill-opacity="0.15"/>
<path d="M40.9504 444.875C40.9504 447.31 38.9961 449.272 36.5713 449.272C34.1465 449.272 32.1921 447.31 32.1921 444.875C32.1921 442.44 34.1465 440.477 36.5713 440.477C38.9961 440.477 40.9504 442.44 40.9504 444.875Z" fill="#FC7AF6" fill-opacity="0.15"/>
<path d="M11.2735 362.34C11.2735 364.775 9.31921 366.737 6.8944 366.737C4.46958 366.737 2.51526 364.775 2.51526 362.34C2.51526 359.905 4.46958 357.942 6.8944 357.942C9.31921 357.942 11.2735 359.905 11.2735 362.34Z" fill="#FC7AF6" fill-opacity="0.15"/>
<path d="M79.7292 442.73C79.7292 445.91 77.1596 448.49 73.9929 448.49C70.8262 448.49 68.2566 445.91 68.2566 442.73C68.2566 439.55 70.8262 436.97 73.9929 436.97C77.1596 436.97 79.7292 439.55 79.7292 442.73Z" fill="#FC7AF6" fill-opacity="0.15"/>
<path d="M136.477 381.038C136.477 383.473 134.523 385.436 132.098 385.436C129.673 385.436 127.719 383.473 127.719 381.038C127.719 378.603 129.673 376.641 132.098 376.641C134.523 376.641 136.477 378.603 136.477 381.038Z" fill="#FC7AF6" fill-opacity="0.15"/>
<path d="M305.671 269.901C305.671 272.336 303.717 274.299 301.292 274.299C298.867 274.299 296.913 272.336 296.913 269.901C296.913 267.466 298.867 265.504 301.292 265.504C303.717 265.504 305.671 267.466 305.671 269.901Z" fill="#FC7AF6" fill-opacity="0.15"/>
<path d="M456.046 219.984C456.046 222.419 454.091 224.382 451.667 224.382C449.242 224.382 447.287 222.419 447.287 219.984C447.287 217.549 449.242 215.587 451.667 215.587C454.091 215.587 456.046 217.549 456.046 219.984Z" fill="#FC7AF6" fill-opacity="0.15"/>
<path d="M600.539 266.903C600.539 268.393 599.345 269.592 597.861 269.592C596.377 269.592 595.183 268.393 595.183 266.903C595.183 265.413 596.377 264.214 597.861 264.214C599.345 264.214 600.539 265.413 600.539 266.903Z" fill="#FC7AF6" fill-opacity="0.15"/>
<path d="M598.621 337.19C601.039 337.19 603 335.221 603 332.793C603 330.364 601.039 328.395 598.621 328.395C596.202 328.395 594.242 330.364 594.242 332.793C594.242 335.221 596.202 337.19 598.621 337.19Z" fill="#FC7AF6" fill-opacity="0.15"/>
<path d="M567.696 160.018C567.696 162.453 565.741 164.416 563.316 164.416C560.892 164.416 558.937 162.453 558.937 160.018C558.937 157.583 560.892 155.621 563.316 155.621C565.741 155.621 567.696 157.583 567.696 160.018Z" fill="#FC7AF6" fill-opacity="0.15"/>
<path d="M456.046 219.984C456.046 222.419 454.091 224.382 451.667 224.382C449.242 224.382 447.287 222.419 447.287 219.984C447.287 217.549 449.242 215.587 451.667 215.587C454.091 215.587 456.046 217.549 456.046 219.984Z" fill="#FC7AF6" fill-opacity="0.15"/>
<path d="M541.511 258.689C541.511 261.124 539.557 263.087 537.132 263.087C534.707 263.087 532.753 261.124 532.753 258.689C532.753 256.254 534.707 254.292 537.132 254.292C539.557 254.292 541.511 256.254 541.511 258.689Z" fill="#FC7AF6" fill-opacity="0.15"/>
<path d="M595.219 229.688C595.219 232.123 593.265 234.085 590.84 234.085C588.415 234.085 586.461 232.123 586.461 229.688C586.461 227.253 588.415 225.29 590.84 225.29C593.265 225.29 595.219 227.253 595.219 229.688Z" fill="#FC7AF6" fill-opacity="0.15"/>
<path d="M567.696 160.018C567.696 162.453 565.741 164.416 563.316 164.416C560.892 164.416 558.937 162.453 558.937 160.018C558.937 157.583 560.892 155.621 563.316 155.621C565.741 155.621 567.696 157.583 567.696 160.018Z" fill="#FC7AF6" fill-opacity="0.15"/>
<path d="M541.511 258.689C541.511 261.124 539.557 263.087 537.132 263.087C534.707 263.087 532.753 261.124 532.753 258.689C532.753 256.254 534.707 254.292 537.132 254.292C539.557 254.292 541.511 256.254 541.511 258.689Z" fill="#FC7AF6" fill-opacity="0.15"/>
<path d="M334.932 105.377C334.932 107.811 332.977 109.774 330.552 109.774C328.128 109.774 326.173 107.811 326.173 105.377C326.173 102.942 328.128 100.979 330.552 100.979C332.977 100.979 334.932 102.942 334.932 105.377Z" fill="#FC7AF6" fill-opacity="0.15"/>
<path d="M567.696 160.018C567.696 162.453 565.741 164.416 563.316 164.416C560.892 164.416 558.937 162.453 558.937 160.018C558.937 157.583 560.892 155.621 563.316 155.621C565.741 155.621 567.696 157.583 567.696 160.018Z" fill="#FC7AF6" fill-opacity="0.15"/>
<path d="M456.046 219.984C456.046 222.419 454.091 224.382 451.667 224.382C449.242 224.382 447.287 222.419 447.287 219.984C447.287 217.549 449.242 215.587 451.667 215.587C454.091 215.587 456.046 217.549 456.046 219.984Z" fill="#FC7AF6" fill-opacity="0.15"/>
<path d="M452.408 42.8665C452.408 45.3015 450.454 47.264 448.029 47.264C445.604 47.264 443.65 45.3015 443.65 42.8665C443.65 40.4315 445.604 38.469 448.029 38.469C450.454 38.469 452.408 40.4315 452.408 42.8665Z" fill="#FC7AF6" fill-opacity="0.15"/>
<path d="M521.045 96.3816C521.045 98.3078 519.489 99.8524 517.589 99.8524C515.689 99.8524 514.132 98.2897 514.132 96.3816C514.132 94.4736 515.689 92.9109 517.589 92.9109C519.489 92.9109 521.045 94.4736 521.045 96.3816Z" fill="#FC7AF6" fill-opacity="0.15"/>
<path d="M358.691 41.7037C361.11 41.7037 363.07 39.7349 363.07 37.3062C363.07 34.8775 361.11 32.9087 358.691 32.9087C356.273 32.9087 354.312 34.8775 354.312 37.3062C354.312 39.7349 356.273 41.7037 358.691 41.7037Z" fill="#FC7AF6" fill-opacity="0.15"/>
<path d="M376.407 12.5201C376.407 14.955 374.453 16.9176 372.028 16.9176C369.603 16.9176 367.649 14.955 367.649 12.5201C367.649 10.0851 369.603 8.12256 372.028 8.12256C374.453 8.12256 376.407 10.0851 376.407 12.5201Z" fill="#FC7AF6" fill-opacity="0.15"/>
<path d="M417.538 61.8195C418.997 61.8195 420.18 60.6317 420.18 59.1665C420.18 57.7012 418.997 56.5134 417.538 56.5134C416.079 56.5134 414.896 57.7012 414.896 59.1665C414.896 60.6317 416.079 61.8195 417.538 61.8195Z" fill="#FC7AF6" fill-opacity="0.15"/>
<path d="M451.25 70.7962C451.25 72.2136 450.11 73.3402 448.717 73.3402C447.323 73.3402 446.183 72.1954 446.183 70.7962C446.183 69.397 447.323 68.2522 448.717 68.2522C450.11 68.2522 451.25 69.397 451.25 70.7962Z" fill="#FC7AF6" fill-opacity="0.15"/>
<path d="M449.513 135.832C450.912 135.832 452.046 134.693 452.046 133.288C452.046 131.883 450.912 130.744 449.513 130.744C448.114 130.744 446.98 131.883 446.98 133.288C446.98 134.693 448.114 135.832 449.513 135.832Z" fill="#FC7AF6" fill-opacity="0.15"/>
<path d="M449.278 101.96C450.677 101.96 451.811 100.821 451.811 99.4163C451.811 98.0113 450.677 96.8723 449.278 96.8723C447.879 96.8723 446.745 98.0113 446.745 99.4163C446.745 100.821 447.879 101.96 449.278 101.96Z" fill="#FC7AF6" fill-opacity="0.15"/>
<path d="M492.219 146.008C493.618 146.008 494.752 144.869 494.752 143.464C494.752 142.059 493.618 140.92 492.219 140.92C490.82 140.92 489.685 142.059 489.685 143.464C489.685 144.869 490.82 146.008 492.219 146.008Z" fill="#FC7AF6" fill-opacity="0.15"/>
<path d="M523.976 153.149C525.376 153.149 526.51 152.01 526.51 150.605C526.51 149.2 525.376 148.061 523.976 148.061C522.577 148.061 521.443 149.2 521.443 150.605C521.443 152.01 522.577 153.149 523.976 153.149Z" fill="#FC7AF6" fill-opacity="0.15"/>
<path d="M530.346 179.207C530.346 180.625 529.206 181.751 527.813 181.751C526.419 181.751 525.279 180.607 525.279 179.207C525.279 177.808 526.419 176.663 527.813 176.663C529.206 176.663 530.346 177.808 530.346 179.207Z" fill="#FC7AF6" fill-opacity="0.15"/>
<path d="M535.63 249.113C537.029 249.113 538.163 247.974 538.163 246.569C538.163 245.164 537.029 244.025 535.63 244.025C534.231 244.025 533.097 245.164 533.097 246.569C533.097 247.974 534.231 249.113 535.63 249.113Z" fill="#FC7AF6" fill-opacity="0.15"/>
<path d="M552.947 251.73C552.947 253.147 551.807 254.274 550.414 254.274C549.021 254.274 547.881 253.129 547.881 251.73C547.881 250.331 549.021 249.186 550.414 249.186C551.807 249.186 552.947 250.331 552.947 251.73Z" fill="#FC7AF6" fill-opacity="0.15"/>
<path d="M484.058 294.542C485.457 294.542 486.591 293.403 486.591 291.998C486.591 290.593 485.457 289.454 484.058 289.454C482.658 289.454 481.524 290.593 481.524 291.998C481.524 293.403 482.658 294.542 484.058 294.542Z" fill="#FC7AF6" fill-opacity="0.15"/>
<path d="M548.912 343.005C550.311 343.005 551.446 341.866 551.446 340.461C551.446 339.056 550.311 337.917 548.912 337.917C547.513 337.917 546.379 339.056 546.379 340.461C546.379 341.866 547.513 343.005 548.912 343.005Z" fill="#FC7AF6" fill-opacity="0.15"/>
<path d="M556.277 374.387C556.277 375.805 555.137 376.931 553.744 376.931C552.35 376.931 551.21 375.786 551.21 374.387C551.21 372.988 552.35 371.843 553.744 371.843C555.137 371.843 556.277 372.988 556.277 374.387Z" fill="#FC7AF6" fill-opacity="0.15"/>
<path d="M479.244 416.6C480.643 416.6 481.777 415.461 481.777 414.056C481.777 412.651 480.643 411.512 479.244 411.512C477.845 411.512 476.711 412.651 476.711 414.056C476.711 415.461 477.845 416.6 479.244 416.6Z" fill="#FC7AF6" fill-opacity="0.15"/>
<path d="M434.91 426.285C436.309 426.285 437.443 425.146 437.443 423.741C437.443 422.336 436.309 421.197 434.91 421.197C433.511 421.197 432.376 422.336 432.376 423.741C432.376 425.146 433.511 426.285 434.91 426.285Z" fill="#FC7AF6" fill-opacity="0.15"/>
<path d="M352.267 539.566C353.666 539.566 354.801 538.427 354.801 537.022C354.801 535.617 353.666 534.478 352.267 534.478C350.868 534.478 349.734 535.617 349.734 537.022C349.734 538.427 350.868 539.566 352.267 539.566Z" fill="#FC7AF6" fill-opacity="0.15"/>
<path d="M343.527 505.64C344.926 505.64 346.06 504.501 346.06 503.096C346.06 501.691 344.926 500.552 343.527 500.552C342.128 500.552 340.994 501.691 340.994 503.096C340.994 504.501 342.128 505.64 343.527 505.64Z" fill="#FC7AF6" fill-opacity="0.15"/>
<path d="M268.43 508.366C269.829 508.366 270.964 507.227 270.964 505.822C270.964 504.417 269.829 503.278 268.43 503.278C267.031 503.278 265.897 504.417 265.897 505.822C265.897 507.227 267.031 508.366 268.43 508.366Z" fill="#FC7AF6" fill-opacity="0.15"/>
<path d="M205.222 549.433C205.222 550.851 204.082 551.977 202.689 551.977C201.296 551.977 200.156 550.833 200.156 549.433C200.156 548.034 201.296 546.889 202.689 546.889C204.082 546.889 205.222 548.034 205.222 549.433Z" fill="#FC7AF6" fill-opacity="0.15"/>
<path d="M164.073 541.074C165.472 541.074 166.606 539.935 166.606 538.53C166.606 537.125 165.472 535.986 164.073 535.986C162.674 535.986 161.54 537.125 161.54 538.53C161.54 539.935 162.674 541.074 164.073 541.074Z" fill="#FC7AF6" fill-opacity="0.15"/>
<path d="M205.693 510.492C207.092 510.492 208.226 509.353 208.226 507.948C208.226 506.543 207.092 505.404 205.693 505.404C204.294 505.404 203.159 506.543 203.159 507.948C203.159 509.353 204.294 510.492 205.693 510.492Z" fill="#FC7AF6" fill-opacity="0.15"/>
<path d="M79.9283 472.931C81.3274 472.931 82.4617 471.792 82.4617 470.387C82.4617 468.982 81.3274 467.843 79.9283 467.843C78.5291 467.843 77.3949 468.982 77.3949 470.387C77.3949 471.792 78.5291 472.931 79.9283 472.931Z" fill="#FC7AF6" fill-opacity="0.15"/>
<path d="M69.9758 468.079C71.3749 468.079 72.5092 466.94 72.5092 465.535C72.5092 464.13 71.3749 462.991 69.9758 462.991C68.5766 462.991 67.4424 464.13 67.4424 465.535C67.4424 466.94 68.5766 468.079 69.9758 468.079Z" fill="#FC7AF6" fill-opacity="0.15"/>
<path d="M62.7375 445.983C64.1366 445.983 65.2709 444.844 65.2709 443.439C65.2709 442.034 64.1366 440.895 62.7375 440.895C61.3383 440.895 60.2041 442.034 60.2041 443.439C60.2041 444.844 61.3383 445.983 62.7375 445.983Z" fill="#FC7AF6" fill-opacity="0.15"/>
<path d="M57.743 421.015C57.743 422.433 56.603 423.559 55.2097 423.559C53.8163 423.559 52.6763 422.415 52.6763 421.015C52.6763 419.616 53.8163 418.471 55.2097 418.471C56.603 418.471 57.743 419.616 57.743 421.015Z" fill="#FC7AF6" fill-opacity="0.15"/>
<path d="M37.7112 369.663C39.1104 369.663 40.2446 368.524 40.2446 367.119C40.2446 365.714 39.1104 364.575 37.7112 364.575C36.3121 364.575 35.1779 365.714 35.1779 367.119C35.1779 368.524 36.3121 369.663 37.7112 369.663Z" fill="#FC7AF6" fill-opacity="0.15"/>
<path d="M33.1873 354.817C34.5865 354.817 35.7207 353.678 35.7207 352.273C35.7207 350.867 34.5865 349.729 33.1873 349.729C31.7882 349.729 30.6539 350.867 30.6539 352.273C30.6539 353.678 31.7882 354.817 33.1873 354.817Z" fill="#FC7AF6" fill-opacity="0.15"/>
<path d="M139.173 439.187C139.173 440.604 138.033 441.731 136.64 441.731C135.247 441.731 134.107 440.586 134.107 439.187C134.107 437.788 135.247 436.643 136.64 436.643C138.033 436.643 139.173 437.788 139.173 439.187Z" fill="#FC7AF6" fill-opacity="0.15"/>
<path d="M88.379 334.828C89.7781 334.828 90.9124 333.689 90.9124 332.284C90.9124 330.879 89.7781 329.74 88.379 329.74C86.9798 329.74 85.8456 330.879 85.8456 332.284C85.8456 333.689 86.9798 334.828 88.379 334.828Z" fill="#FC7AF6" fill-opacity="0.15"/>
<path d="M25.171 318.964C25.171 320.382 24.031 321.508 22.6376 321.508C21.2443 321.508 20.1042 320.363 20.1042 318.964C20.1042 317.565 21.2443 316.42 22.6376 316.42C24.031 316.42 25.171 317.565 25.171 318.964Z" fill="#FC7AF6" fill-opacity="0.15"/>
<path d="M45.2028 200.74C46.602 200.74 47.7362 199.601 47.7362 198.196C47.7362 196.791 46.602 195.652 45.2028 195.652C43.8037 195.652 42.6694 196.791 42.6694 198.196C42.6694 199.601 43.8037 200.74 45.2028 200.74Z" fill="#FC7AF6" fill-opacity="0.15"/>
<path d="M98.3315 123.439C99.7306 123.439 100.865 122.3 100.865 120.895C100.865 119.49 99.7306 118.351 98.3315 118.351C96.9323 118.351 95.7981 119.49 95.7981 120.895C95.7981 122.3 96.9323 123.439 98.3315 123.439Z" fill="#FC7AF6" fill-opacity="0.15"/>
<path d="M49.8896 167.523C49.8896 168.94 48.7496 170.067 47.3563 170.067C45.9629 170.067 44.8229 168.922 44.8229 167.523C44.8229 166.124 45.9629 164.979 47.3563 164.979C48.7496 164.979 49.8896 166.124 49.8896 167.523Z" fill="#FC7AF6" fill-opacity="0.15"/>
<path d="M120.951 102.542C122.35 102.542 123.484 101.403 123.484 99.9976C123.484 98.5926 122.35 97.4536 120.951 97.4536C119.552 97.4536 118.418 98.5926 118.418 99.9976C118.418 101.403 119.552 102.542 120.951 102.542Z" fill="#FC7AF6" fill-opacity="0.15"/>
<path d="M80.0549 140.266C80.0549 141.683 78.9149 142.81 77.5215 142.81C76.1282 142.81 74.9882 141.665 74.9882 140.266C74.9882 138.866 76.1282 137.722 77.5215 137.722C78.9149 137.722 80.0549 138.866 80.0549 140.266Z" fill="#FC7AF6" fill-opacity="0.15"/>
<path d="M216.369 56.2044C216.369 57.6218 215.229 58.7484 213.836 58.7484C212.443 58.7484 211.302 57.6036 211.302 56.2044C211.302 54.8052 212.443 53.6604 213.836 53.6604C215.229 53.6604 216.369 54.8052 216.369 56.2044Z" fill="#FC7AF6" fill-opacity="0.15"/>
<path d="M225.417 36.3975C225.417 37.8149 224.277 38.9415 222.884 38.9415C221.49 38.9415 220.35 37.7967 220.35 36.3975C220.35 34.9983 221.49 33.8535 222.884 33.8535C224.277 33.8535 225.417 34.9983 225.417 36.3975Z" fill="#FC7AF6" fill-opacity="0.15"/>
<path d="M182.766 46.2101C184.165 46.2101 185.299 45.0711 185.299 43.6661C185.299 42.2611 184.165 41.1221 182.766 41.1221C181.367 41.1221 180.232 42.2611 180.232 43.6661C180.232 45.0711 181.367 46.2101 182.766 46.2101Z" fill="#FC7AF6" fill-opacity="0.15"/>
<path d="M168.904 58.9301C170.304 58.9301 171.438 57.7911 171.438 56.3861C171.438 54.981 170.304 53.842 168.904 53.842C167.505 53.842 166.371 54.981 166.371 56.3861C166.371 57.7911 167.505 58.9301 168.904 58.9301Z" fill="#FC7AF6" fill-opacity="0.15"/>
<path d="M190.619 38.6327C192.018 38.6327 193.152 37.4937 193.152 36.0887C193.152 34.6837 192.018 33.5447 190.619 33.5447C189.22 33.5447 188.086 34.6837 188.086 36.0887C188.086 37.4937 189.22 38.6327 190.619 38.6327Z" fill="#FC7AF6" fill-opacity="0.15"/>
<path d="M303.228 36.6883C303.228 38.1057 302.088 39.2323 300.695 39.2323C299.301 39.2323 298.161 38.0875 298.161 36.6883C298.161 35.2891 299.301 34.1443 300.695 34.1443C302.088 34.1443 303.228 35.2891 303.228 36.6883Z" fill="#FC7AF6" fill-opacity="0.15"/>
<path d="M248.652 158.437C248.652 159.855 247.512 160.981 246.118 160.981C244.725 160.981 243.585 159.837 243.585 158.437C243.585 157.038 244.725 155.893 246.118 155.893C247.512 155.893 248.652 157.038 248.652 158.437Z" fill="#FC7AF6" fill-opacity="0.15"/>
<path d="M215.048 180.37C216.447 180.37 217.582 179.231 217.582 177.826C217.582 176.421 216.447 175.282 215.048 175.282C213.649 175.282 212.515 176.421 212.515 177.826C212.515 179.231 213.649 180.37 215.048 180.37Z" fill="#FC7AF6" fill-opacity="0.15"/>
<path d="M319.822 179.335C319.822 180.752 318.682 181.879 317.289 181.879C315.895 181.879 314.755 180.734 314.755 179.335C314.755 177.935 315.895 176.791 317.289 176.791C318.682 176.791 319.822 177.935 319.822 179.335Z" fill="#FC7AF6" fill-opacity="0.15"/>
<path d="M366.146 25.9125C367.546 25.9125 368.68 24.7735 368.68 23.3685C368.68 21.9635 367.546 20.8245 366.146 20.8245C364.747 20.8245 363.613 21.9635 363.613 23.3685C363.613 24.7735 364.747 25.9125 366.146 25.9125Z" fill="#FC7AF6" fill-opacity="0.15"/>
<path d="M452.408 42.8665C452.408 45.3015 450.454 47.264 448.029 47.264C445.604 47.264 443.65 45.3015 443.65 42.8665C443.65 40.4315 445.604 38.469 448.029 38.469C450.454 38.469 452.408 40.4315 452.408 42.8665Z" fill="#FC7AF6" fill-opacity="0.15"/>
<path d="M290.923 4.3975C290.923 6.83248 288.969 8.795 286.544 8.795C284.119 8.795 282.165 6.83248 282.165 4.3975C282.165 1.96252 284.119 0 286.544 0C288.969 0 290.923 1.96252 290.923 4.3975Z" fill="#FC7AF6" fill-opacity="0.15"/>
<path d="M358.691 41.7037C361.11 41.7037 363.07 39.7349 363.07 37.3062C363.07 34.8775 361.11 32.9087 358.691 32.9087C356.273 32.9087 354.312 34.8775 354.312 37.3062C354.312 39.7349 356.273 41.7037 358.691 41.7037Z" fill="#FC7AF6" fill-opacity="0.15"/>
<path d="M454.67 42.8664C454.67 46.5553 451.703 49.5354 448.029 49.5354C444.356 49.5354 441.388 46.5553 441.388 42.8664C441.388 39.1776 444.356 36.1975 448.029 36.1975C451.703 36.1975 454.67 39.1776 454.67 42.8664Z" fill="#FC7AF6" fill-opacity="0.15"/>
<path d="M334.932 105.377C334.932 107.811 332.977 109.774 330.552 109.774C328.128 109.774 326.173 107.811 326.173 105.377C326.173 102.942 328.128 100.979 330.552 100.979C332.977 100.979 334.932 102.942 334.932 105.377Z" fill="#FC7AF6" fill-opacity="0.15"/>
<path d="M462.079 231.196C468.259 225.416 468.604 215.7 462.849 209.494C457.094 203.288 447.418 202.942 441.238 208.721C435.058 214.501 434.713 224.217 440.468 230.423C446.223 236.629 455.899 236.975 462.079 231.196Z" fill="#FC7AF6" fill-opacity="0.15"/>
<path d="M177.047 141.647C179.466 141.647 181.427 139.678 181.427 137.249C181.427 134.821 179.466 132.852 177.047 132.852C174.629 132.852 172.668 134.821 172.668 137.249C172.668 139.678 174.629 141.647 177.047 141.647Z" fill="#FC7AF6" fill-opacity="0.15"/>
<path d="M305.671 269.901C305.671 272.336 303.717 274.299 301.292 274.299C298.867 274.299 296.913 272.336 296.913 269.901C296.913 267.466 298.867 265.504 301.292 265.504C303.717 265.504 305.671 267.466 305.671 269.901Z" fill="#FC7AF6" fill-opacity="0.15"/>
<path d="M334.932 105.377C334.932 107.811 332.977 109.774 330.552 109.774C328.128 109.774 326.173 107.811 326.173 105.377C326.173 102.942 328.128 100.979 330.552 100.979C332.977 100.979 334.932 102.942 334.932 105.377Z" fill="#FC7AF6" fill-opacity="0.15"/>
<path d="M148.239 222.346C148.239 224.781 146.285 226.744 143.86 226.744C141.435 226.744 139.481 224.781 139.481 222.346C139.481 219.911 141.435 217.949 143.86 217.949C146.285 217.949 148.239 219.911 148.239 222.346Z" fill="#FC7AF6" fill-opacity="0.15"/>
<path d="M193.822 297.722C196.241 297.722 198.201 295.753 198.201 293.324C198.201 290.896 196.241 288.927 193.822 288.927C191.403 288.927 189.443 290.896 189.443 293.324C189.443 295.753 191.403 297.722 193.822 297.722Z" fill="#FC7AF6" fill-opacity="0.15"/>
<path d="M313.054 269.901C313.054 276.425 307.788 281.713 301.292 281.713C294.796 281.713 289.53 276.425 289.53 269.901C289.53 263.378 294.796 258.09 301.292 258.09C307.788 258.09 313.054 263.378 313.054 269.901Z" fill="#FC7AF6" fill-opacity="0.15"/>
<path d="M148.239 222.346C148.239 224.781 146.285 226.744 143.86 226.744C141.435 226.744 139.481 224.781 139.481 222.346C139.481 219.911 141.435 217.949 143.86 217.949C146.285 217.949 148.239 219.911 148.239 222.346Z" fill="#FC7AF6" fill-opacity="0.15"/>
<path d="M136.477 381.038C136.477 383.473 134.523 385.436 132.098 385.436C129.673 385.436 127.719 383.473 127.719 381.038C127.719 378.603 129.673 376.641 132.098 376.641C134.523 376.641 136.477 378.603 136.477 381.038Z" fill="#FC7AF6" fill-opacity="0.15"/>
<path d="M193.822 299.339C197.13 299.339 199.812 296.646 199.812 293.324C199.812 290.002 197.13 287.31 193.822 287.31C190.514 287.31 187.832 290.002 187.832 293.324C187.832 296.646 190.514 299.339 193.822 299.339Z" fill="#FC7AF6" fill-opacity="0.15"/>
<path d="M11.2735 362.34C11.2735 364.775 9.31921 366.737 6.8944 366.737C4.46958 366.737 2.51526 364.775 2.51526 362.34C2.51526 359.905 4.46958 357.942 6.8944 357.942C9.31921 357.942 11.2735 359.905 11.2735 362.34Z" fill="#FC7AF6" fill-opacity="0.15"/>
<path d="M145.025 384.154C146.716 376.987 142.301 369.799 135.163 368.101C128.025 366.402 120.867 370.836 119.176 378.004C117.485 385.172 121.9 392.359 129.038 394.058C136.176 395.756 143.334 391.322 145.025 384.154Z" fill="#FC7AF6" fill-opacity="0.15"/>
<path d="M42.1809 275.952C42.1809 278.387 40.2266 280.35 37.8017 280.35C35.3769 280.35 33.4226 278.387 33.4226 275.952C33.4226 273.517 35.3769 271.555 37.8017 271.555C40.2266 271.555 42.1809 273.517 42.1809 275.952Z" fill="#FC7AF6" fill-opacity="0.15"/>
<path d="M8.75828 265.322C8.75828 267.757 6.80395 269.72 4.37914 269.72C1.95433 269.72 0 267.757 0 265.322C0 262.887 1.95433 260.925 4.37914 260.925C6.80395 260.925 8.75828 262.887 8.75828 265.322Z" fill="#FC7AF6" fill-opacity="0.15"/>
<path d="M11.2735 362.34C11.2735 364.775 9.31921 366.737 6.8944 366.737C4.46958 366.737 2.51526 364.775 2.51526 362.34C2.51526 359.905 4.46958 357.942 6.8944 357.942C9.31921 357.942 11.2735 359.905 11.2735 362.34Z" fill="#FC7AF6" fill-opacity="0.15"/>
<path d="M42.1809 275.952C42.1809 278.387 40.2266 280.35 37.8017 280.35C35.3769 280.35 33.4226 278.387 33.4226 275.952C33.4226 273.517 35.3769 271.555 37.8017 271.555C40.2266 271.555 42.1809 273.517 42.1809 275.952Z" fill="#FC7AF6" fill-opacity="0.15"/>
<path d="M148.239 222.346C148.239 224.781 146.285 226.744 143.86 226.744C141.435 226.744 139.481 224.781 139.481 222.346C139.481 219.911 141.435 217.949 143.86 217.949C146.285 217.949 148.239 219.911 148.239 222.346Z" fill="#FC7AF6" fill-opacity="0.15"/>
<path d="M25.4062 191.909C25.4062 194.344 23.4519 196.307 21.0271 196.307C18.6023 196.307 16.6479 194.344 16.6479 191.909C16.6479 189.474 18.6023 187.512 21.0271 187.512C23.4519 187.512 25.4062 189.474 25.4062 191.909Z" fill="#FC7AF6" fill-opacity="0.15"/>
<path d="M42.1809 275.952C42.1809 278.387 40.2266 280.35 37.8017 280.35C35.3769 280.35 33.4226 278.387 33.4226 275.952C33.4226 273.517 35.3769 271.555 37.8017 271.555C40.2266 271.555 42.1809 273.517 42.1809 275.952Z" fill="#FC7AF6" fill-opacity="0.15"/>
<path d="M25.4062 191.909C25.4062 194.344 23.4519 196.307 21.0271 196.307C18.6023 196.307 16.6479 194.344 16.6479 191.909C16.6479 189.474 18.6023 187.512 21.0271 187.512C23.4519 187.512 25.4062 189.474 25.4062 191.909Z" fill="#FC7AF6" fill-opacity="0.15"/>
<path d="M73.1968 155.984C75.6153 155.984 77.5759 154.015 77.5759 151.587C77.5759 149.158 75.6153 147.189 73.1968 147.189C70.7782 147.189 68.8176 149.158 68.8176 151.587C68.8176 154.015 70.7782 155.984 73.1968 155.984Z" fill="#FC7AF6" fill-opacity="0.15"/>
<path d="M49.7449 144.809C51.6637 144.809 53.2192 143.247 53.2192 141.32C53.2192 139.393 51.6637 137.831 49.7449 137.831C47.826 137.831 46.2705 139.393 46.2705 141.32C46.2705 143.247 47.826 144.809 49.7449 144.809Z" fill="#FC7AF6" fill-opacity="0.15"/>
<path d="M153.795 222.347C153.795 227.852 149.343 232.323 143.86 232.323C138.377 232.323 133.926 227.852 133.926 222.347C133.926 216.841 138.377 212.37 143.86 212.37C149.343 212.37 153.795 216.841 153.795 222.347Z" fill="#FC7AF6" fill-opacity="0.15"/>
<path d="M177.047 141.647C179.466 141.647 181.427 139.678 181.427 137.249C181.427 134.821 179.466 132.852 177.047 132.852C174.629 132.852 172.668 134.821 172.668 137.249C172.668 139.678 174.629 141.647 177.047 141.647Z" fill="#FC7AF6" fill-opacity="0.15"/>
<path d="M334.932 105.377C334.932 107.811 332.977 109.774 330.552 109.774C328.128 109.774 326.173 107.811 326.173 105.377C326.173 102.942 328.128 100.979 330.552 100.979C332.977 100.979 334.932 102.942 334.932 105.377Z" fill="#FC7AF6" fill-opacity="0.15"/>
<path d="M358.691 43.3208C361.999 43.3208 364.681 40.6279 364.681 37.306C364.681 33.9842 361.999 31.2913 358.691 31.2913C355.383 31.2913 352.701 33.9842 352.701 37.306C352.701 40.6279 355.383 43.3208 358.691 43.3208Z" fill="#FC7AF6" fill-opacity="0.15"/>
<path d="M166.516 40.6314C168.934 40.6314 170.895 38.6626 170.895 36.2339C170.895 33.8053 168.934 31.8364 166.516 31.8364C164.097 31.8364 162.137 33.8053 162.137 36.2339C162.137 38.6626 164.097 40.6314 166.516 40.6314Z" fill="#FC7AF6" fill-opacity="0.15"/>
<path d="M177.047 141.647C179.466 141.647 181.427 139.678 181.427 137.249C181.427 134.821 179.466 132.852 177.047 132.852C174.629 132.852 172.668 134.821 172.668 137.249C172.668 139.678 174.629 141.647 177.047 141.647Z" fill="#FC7AF6" fill-opacity="0.15"/>
<path d="M97.7887 87.0415C99.4477 87.0415 100.793 85.691 100.793 84.025C100.793 82.3591 99.4477 81.0085 97.7887 81.0085C96.1297 81.0085 94.7848 82.3591 94.7848 84.025C94.7848 85.691 96.1297 87.0415 97.7887 87.0415Z" fill="#FC7AF6" fill-opacity="0.15"/>
<path d="M166.516 40.6314C168.934 40.6314 170.895 38.6626 170.895 36.2339C170.895 33.8053 168.934 31.8364 166.516 31.8364C164.097 31.8364 162.137 33.8053 162.137 36.2339C162.137 38.6626 164.097 40.6314 166.516 40.6314Z" fill="#FC7AF6" fill-opacity="0.15"/>
<path d="M177.047 141.647C179.466 141.647 181.427 139.678 181.427 137.249C181.427 134.821 179.466 132.852 177.047 132.852C174.629 132.852 172.668 134.821 172.668 137.249C172.668 139.678 174.629 141.647 177.047 141.647Z" fill="#FC7AF6" fill-opacity="0.15"/>
<path d="M238.572 11.5025C238.572 13.9375 236.618 15.9 234.193 15.9C231.769 15.9 229.814 13.9375 229.814 11.5025C229.814 9.0675 231.769 7.10498 234.193 7.10498C236.618 7.10498 238.572 9.0675 238.572 11.5025Z" fill="#FC7AF6" fill-opacity="0.15"/>
<path d="M338.515 105.377C338.515 109.792 334.95 113.372 330.553 113.372C326.155 113.372 322.59 109.792 322.59 105.377C322.59 100.961 326.155 97.3811 330.553 97.3811C334.95 97.3811 338.515 100.961 338.515 105.377Z" fill="#FC7AF6" fill-opacity="0.15"/>
<path d="M290.923 4.3975C290.923 6.83248 288.969 8.795 286.544 8.795C284.119 8.795 282.165 6.83248 282.165 4.3975C282.165 1.96252 284.119 0 286.544 0C288.969 0 290.923 1.96252 290.923 4.3975Z" fill="#FC7AF6" fill-opacity="0.15"/>
<path d="M166.516 42.5395C169.984 42.5395 172.795 39.7164 172.795 36.234C172.795 32.7515 169.984 29.9285 166.516 29.9285C163.048 29.9285 160.237 32.7515 160.237 36.234C160.237 39.7164 163.048 42.5395 166.516 42.5395Z" fill="#FC7AF6" fill-opacity="0.15"/>
</g>
<defs>
<clipPath id="clip0_30_4998">
<rect width="603" height="608" fill="white"/>
</clipPath>
</defs>
</svg>
