<svg width="519" height="608" viewBox="0 0 519 608" fill="none" xmlns="http://www.w3.org/2000/svg">
<g clip-path="url(#clip0_3_1634)">
<path d="M189.823 592.245C189.823 592.245 189.805 592.245 189.786 592.245L130.849 580.615C130.849 580.615 130.741 580.561 130.722 580.506C130.704 580.452 130.704 580.397 130.722 580.343L133.708 575.346L80.5795 559.337C80.5795 559.337 80.5795 559.337 80.5614 559.337L14.7838 510.637L-38.9239 438.26C-38.9239 438.26 -38.9782 438.133 -38.9239 438.06C-38.8877 438.006 -38.8335 437.969 -38.7611 437.969L-25.4246 438.424L-64.674 367.936C-64.674 367.936 -64.6921 367.864 -64.6921 367.846V367.809L-23.3436 226.526L-70.3379 277.279C-70.3379 277.279 -70.4827 277.351 -70.5551 277.315C-70.6274 277.279 -70.6636 277.188 -70.6455 277.115L-55.1195 206.21C-55.1195 206.21 -55.1195 206.174 -55.1014 206.156L12.7209 96.0727C12.7209 96.0727 12.7209 96.0545 12.739 96.0363L82.009 47.1187C82.009 47.1187 82.0271 47.1187 82.0452 47.1187L161.394 18.3532C161.394 18.3532 161.394 18.3532 161.413 18.3532C161.413 18.3532 161.431 18.3532 161.449 18.3532L254.713 15.9182C254.713 15.9182 254.714 15.9182 254.732 15.9182C254.732 15.9182 254.732 15.9182 254.75 15.9182L325.341 32.0727C325.341 32.0727 325.341 32.0727 325.359 32.0727C325.359 32.0727 325.359 32.0727 325.377 32.0727L374 59.9114C374 59.9114 374.018 59.9114 374.036 59.9296L429.119 106.503C429.119 106.503 429.137 106.521 429.155 106.539L475.1 173.156C475.1 173.156 475.1 173.174 475.1 173.192L490.608 213.024C490.608 213.024 490.608 213.206 490.536 213.242C490.463 213.297 490.373 213.279 490.3 213.206L474.991 196.434L474.829 227.707L498.805 238.701C498.805 238.701 498.896 238.773 498.914 238.846L505.754 289.599C505.754 289.599 505.754 289.635 505.754 289.654C505.754 289.654 505.754 289.654 505.754 289.672L487.55 366.755L497.846 372.352C497.846 372.352 497.955 372.497 497.918 372.57L468.748 446.274C468.748 446.274 468.748 446.292 468.73 446.31L417.284 513.726C417.284 513.726 417.266 513.763 417.248 513.763L356.067 558.083C356.067 558.083 356.049 558.101 356.031 558.101L289.059 584.795C289.059 584.795 288.878 584.795 288.842 584.704L282.689 573.22L257.555 578.399L253.393 591.482C253.393 591.482 253.302 591.609 253.23 591.609L189.895 592.354L189.823 592.245ZM257.084 578.38L191.705 591.864L253.031 591.155L257.084 578.399V578.38ZM134.269 575.128L189.605 591.809L182.385 544.073L150.012 548.779L134.251 575.128H134.269ZM261.011 532.734L190.492 591.736L257.229 577.981L267.67 545.163L261.011 532.734ZM182.747 544.018L189.949 591.718L260.45 532.734L182.729 544.018H182.747ZM131.175 580.307L186.222 591.173L134.07 575.455L131.175 580.307ZM282.997 573.038L289.023 584.286L353.932 558.41L282.997 573.038ZM267.905 545.617L257.627 577.908L282.454 572.784L267.905 545.617ZM81.4481 559.209L133.907 575.019L149.56 548.852L126.271 552.232L81.4481 559.209ZM268.05 545.127L282.816 572.711L355.126 557.81L271.162 535.35L268.05 545.127ZM68.5278 530.698L80.7423 558.955L125.529 551.977L68.5278 530.698ZM15.9962 511.073L80.1995 558.61L68.0573 530.517L15.9962 511.073ZM271.289 535.005L355.578 557.538L337.374 523.357L272.483 531.244L271.289 534.987V535.005ZM364.916 520.014L356.212 557.392L416.452 513.763L364.916 520.032V520.014ZM337.754 523.321L355.868 557.32L364.536 520.068L337.754 523.321ZM111.559 476.166L126.398 551.85L149.813 548.452L176.287 504.186L111.577 476.166H111.559ZM68.3287 530.226L125.999 551.759L111.143 475.984L29.6222 440.695L68.3287 530.226ZM176.414 504.622L150.248 548.379L182.313 543.727L176.396 504.64L176.414 504.622ZM261.409 532.752L267.815 544.709L270.819 535.278L261.409 532.77V532.752ZM176.74 504.368L182.675 543.673L260.269 532.388L176.74 504.368ZM262.024 532.534L270.945 534.914L272.085 531.316L262.024 532.534ZM297.148 452.561L261.373 532.243L272.212 530.916L297.148 452.561ZM177.011 504.077L260.631 532.134L228.583 480.999L177.011 504.095V504.077ZM228.927 480.836L261.029 532.079L297.908 449.962L228.927 480.836ZM298.324 450.053L272.61 530.862L337.193 523.012L298.324 450.035V450.053ZM15.0553 510.346L67.8402 530.062L29.3327 440.968L15.0553 510.364V510.346ZM298.704 450.035L337.555 522.976L364.608 519.686L371.684 489.267L298.704 450.017V450.035ZM372.027 489.449L365.006 519.632L416.543 513.363L372.045 489.431L372.027 489.449ZM372.118 489.086L416.923 513.181L413.774 447.382L381.654 448.055L372.1 489.086H372.118ZM414.136 447.382L417.248 512.6L441.496 446.819L414.136 447.382ZM441.895 446.801L417.701 512.418L468.187 446.256L441.895 446.801ZM-24.8817 438.714L14.5486 509.529L5.26555 439.714L-24.8636 438.714H-24.8817ZM5.62745 439.75L14.8924 509.383L29.0613 440.531L5.62745 439.75ZM-38.4715 438.26L13.3543 508.111L-25.2979 438.696L-38.4715 438.26ZM111.469 475.73L176.396 503.841L192.989 424.377L103.145 433.245L111.469 475.73ZM193.297 424.65L176.776 503.786L228.402 480.672L193.297 424.65ZM298.975 449.763L371.792 488.922L381.31 448.073L298.993 449.781L298.975 449.763ZM193.605 424.45L228.728 480.527L297.709 449.654L193.605 424.468V424.45ZM30.0022 440.459L111.071 475.548L102.783 433.263L30.0022 440.441V440.459ZM408.128 332.775L298.704 449.399L381.383 447.691L408.128 332.775ZM193.478 424.05L297.998 449.345L250.244 304.3L193.46 424.068L193.478 424.05ZM250.552 304.027L298.27 448.981L336.958 319.509L250.57 304.009L250.552 304.027ZM337.302 319.582L298.668 448.909L408.092 332.284L337.302 319.582ZM408.345 333.465L381.763 447.673L413.774 447.001L408.345 333.447V333.465ZM408.671 332.974L414.118 447.019L441.641 446.455L452.716 416.436L408.671 332.974ZM452.951 416.854L442.039 446.437L468.26 445.892L452.933 416.854H452.951ZM453.114 416.4L468.423 445.42L473.67 360.686L453.114 416.418V416.4ZM474.087 359.741L468.875 443.966L487.097 366.81L474.068 359.741H474.087ZM487.423 366.991L469.309 443.693L497.502 372.461L487.423 366.991ZM5.57317 439.369L28.7175 440.15L3.02169 420.288L5.55508 439.369H5.57317ZM82.7871 331.266L29.586 440.132L102.71 432.918L82.7871 331.266ZM2.9674 419.78L29.0794 439.986L25.9488 345.204L-5.89945 353.199L2.9674 419.78ZM26.3107 345.095L29.4413 439.623L82.5338 330.976L26.3107 345.095ZM-25.0808 438.351L5.21125 439.369L2.62358 419.98L-64.0044 368.445L-25.0808 438.351ZM83.131 331.175L103.072 432.881L192.772 424.032L83.131 331.175ZM83.2757 330.812L193.152 423.868L249.972 304.027L83.2757 330.812ZM-64.1854 367.846L2.5693 419.471L-6.24326 353.29L-64.1854 367.846ZM408.852 332.52L452.879 415.964L473.689 359.541L408.852 332.502V332.52ZM-23.1084 226.598L-64.3302 367.5L-6.29755 352.909L-23.1084 226.598ZM474.159 359.378L487.188 366.446L504.94 291.289L474.141 359.378H474.159ZM408.924 332.157L473.743 359.178L474.05 303.537L408.924 332.157ZM474.412 303.391L474.105 358.614L505.193 289.872L474.412 303.391ZM-22.7826 226.235L-5.93564 352.836L25.9488 344.822L23.5421 272.154L-22.7826 226.235ZM23.904 272.518L26.2926 344.731L82.4976 330.612L23.904 272.536V272.518ZM337.41 319.237L408.092 331.902L357.804 250.966L337.41 319.219V319.237ZM455.828 219.294L408.798 331.811L474.032 303.137L474.448 227.816L455.828 219.275V219.294ZM378.071 183.641L408.508 331.557L455.502 219.148L378.071 183.659V183.641ZM357.949 250.512L408.092 331.212L377.818 184.077L357.967 250.512H357.949ZM199.196 225.708L83.4386 330.43L249.991 303.664L199.196 225.708ZM23.8859 271.991L82.6967 330.303L91.2921 215.387L21.8592 211.098L23.8678 272.009L23.8859 271.991ZM91.6721 215.369L83.0767 330.267L198.997 225.399L185.462 204.629L91.654 215.369H91.6721ZM250.678 303.682L337.049 319.164L357.551 250.567L338.822 220.42L250.678 303.682ZM296.062 151.605L250.66 303.21L338.623 220.111L296.062 151.605ZM227.968 199.687L250.316 303.082L295.682 151.623L227.968 199.687ZM474.81 227.998L474.394 302.991L505.338 289.399L498.534 238.882L474.792 227.998H474.81ZM199.468 225.454L249.9 302.882L227.661 199.959L199.468 225.472V225.454ZM-54.8843 206.319L-70.2293 276.425L-23.1988 225.635L-18.494 208.572L-54.9024 206.319H-54.8843ZM-22.8188 225.69L23.5059 271.609L21.4973 211.044L-13.3548 208.881L-22.8369 225.69H-22.8188ZM339.093 220.166L357.696 250.094L377.474 183.914L339.111 220.166H339.093ZM455.973 218.948L474.448 227.416L474.611 195.907L468.423 189.129L455.955 218.948H455.973ZM185.86 204.593L199.25 225.163L227.208 199.868L185.842 204.593H185.86ZM-18.114 208.609L-22.4569 224.363L-13.7348 208.881L-18.114 208.609ZM296.442 151.532L338.894 219.857L377.492 183.405L296.442 151.55V151.532ZM378.506 183.441L455.647 218.803L468.169 188.838L455.81 175.3L378.506 183.423V183.441ZM21.8592 210.717L90.9844 214.987L19.8506 150.424L21.8411 210.717H21.8592ZM143.426 140.084L91.8711 214.969L185.244 204.284L143.426 140.084ZM20.1039 150.133L91.2921 214.769L87.3653 144.572L20.1039 150.133ZM87.7272 144.554L91.654 214.66L143.064 139.975L87.7272 144.554ZM474.991 195.78L489.92 212.116L475.118 174.065L474.991 195.78ZM-13.1377 208.536L21.4973 210.68L19.5068 150.642L-13.1377 208.536ZM-18.0235 208.245L-13.5539 208.518L19.0725 150.66L-7.67282 170.758L-18.0235 208.227V208.245ZM-54.5223 205.992L-18.3854 208.227L-8.14331 171.121L-54.5404 205.992H-54.5223ZM12.2685 97.2356L-54.3776 205.411L-7.98045 170.539L12.2685 97.2356ZM144.077 140.447L185.643 204.248L227.281 199.487L144.077 140.466V140.447ZM207.882 144.754L227.86 199.305L295.483 151.296L207.882 144.754ZM144.059 139.993L227.389 199.123L207.466 144.736L144.041 139.993H144.059ZM468.586 188.765L474.629 195.38L474.738 174.028L468.586 188.765ZM456.262 175.264L468.314 188.475L474.648 173.338L456.262 175.264ZM413.937 129.436L378.198 183.096L455.52 174.973L413.937 129.436ZM296.333 151.096L377.619 183.041L363.921 83.0255L296.333 151.096ZM364.282 83.08L377.945 182.842L413.683 129.181L392.946 106.485L364.282 83.0982V83.08ZM414.136 129.127L455.955 174.937L474.485 172.993L416.452 125.656L414.136 129.145V129.127ZM416.651 125.347L474.05 172.175L428.974 106.83L416.651 125.347ZM12.7209 96.9812L-7.50996 170.194L19.4706 149.915L12.7209 96.9812ZM207.737 144.391L295.682 150.969L244.399 48.6451L190.528 97.3992L207.737 144.409V144.391ZM244.779 48.5542L295.953 150.66L319.405 55.2413L244.779 48.5542ZM319.767 55.2595L296.333 150.569L363.794 82.6258L344.504 57.4764L319.749 55.2595H319.767ZM83.9634 83.8432L20.1401 149.769L87.3472 144.209L83.9634 83.8432ZM12.9924 96.1999L19.7782 149.442L56.7838 88.4406L12.9924 96.1999ZM57.2542 88.368L20.6468 148.715L83.5833 83.6979L57.2542 88.368ZM143.86 139.612L207.339 144.354L190.239 97.6354L143.86 139.612ZM84.3253 83.8796L87.7091 144.191L143.009 139.612L84.3253 83.8614V83.8796ZM84.3976 83.4253L143.299 139.375L156.762 48.5542L105.75 65.4537L84.3976 83.4253ZM157.142 48.427L143.679 139.284L190.112 97.272L170.605 43.975L157.142 48.427ZM394.864 108.03L413.883 128.854L416.181 125.42L394.882 108.03H394.864ZM393.199 106.194L416.38 125.111L428.703 106.594L375.809 87.1686L393.181 106.194H393.199ZM375.285 86.5871L428.088 105.976L373.964 60.2203L366.635 77.1198L375.285 86.5871ZM364.988 83.1891L391.263 104.631L375.067 86.8961L364.988 83.1891ZM170.931 43.866L190.384 97.0176L244.109 48.4088L202.526 33.3992L170.931 43.866ZM81.4481 47.791L13.8971 95.5094L62.2305 79.5003L81.4662 47.791H81.4481ZM61.9229 79.9727L15.2181 95.4367L57.0371 88.0227L61.9229 79.9545V79.9727ZM62.4658 79.791L57.5257 87.95L83.9453 83.2799L83.3481 72.8858L62.4658 79.8092V79.791ZM364.282 82.5349L374.543 86.2964L366.472 77.4651L364.282 82.5349ZM83.6919 72.7586L84.271 83.0437L104.809 65.7626L83.6919 72.7586ZM345.011 57.5128L364.011 82.2805L366.219 77.1743L348.557 57.8217L345.011 57.5128ZM81.9186 47.7365L62.7553 79.3186L83.33 72.5042L81.9186 47.7365ZM349.082 57.8762L366.382 76.8109L373.638 60.0749L349.082 57.8762ZM82.2443 47.264L83.6738 72.3952L105.57 65.1448L160.508 18.8983L82.2443 47.2822V47.264ZM161.159 18.8075L106.492 64.8177L156.816 48.1544L161.159 18.8075ZM348.72 57.4764L373.095 59.657L326.191 32.7995L348.72 57.4764ZM344.703 57.1312L348.177 57.4401L327.983 35.3254L344.703 57.1312ZM319.84 54.8961L344.196 57.0766L325.341 32.4724L319.84 54.8961ZM245.738 48.2635L319.496 54.8597L325.033 32.3089L245.738 48.2635ZM203.087 33.2175L244.345 48.0999L254.406 16.209L203.087 33.1993V33.2175ZM254.804 16.1363L244.725 48.0818L324.4 32.0545L254.786 16.1363H254.804ZM161.485 19.0982L157.196 48.0272L170.46 43.6297L161.467 19.0982H161.485ZM161.702 18.6621L170.804 43.5207L201.965 33.1993L161.702 18.6621ZM162.372 18.5167L202.526 33.0176L253.447 16.1544L162.372 18.5349V18.5167Z" fill="#FC7AF6" fill-opacity="0.15"/>
<path d="M145.489 139.757C145.489 138.612 144.566 137.685 143.426 137.685C142.286 137.685 141.363 138.612 141.363 139.757C141.363 140.902 142.286 141.828 143.426 141.828C144.566 141.828 145.489 140.902 145.489 139.757Z" fill="#FC7AF6" fill-opacity="0.15"/>
<path d="M477 173.12C477 171.975 476.077 171.048 474.937 171.048C473.797 171.048 472.874 171.975 472.874 173.12C472.874 174.265 473.797 175.191 474.937 175.191C476.077 175.191 477 174.265 477 173.12Z" fill="#FC7AF6" fill-opacity="0.15"/>
<path d="M492.508 212.97C492.508 211.825 491.585 210.898 490.445 210.898C489.305 210.898 488.382 211.825 488.382 212.97C488.382 214.115 489.305 215.042 490.445 215.042C491.585 215.042 492.508 214.115 492.508 212.97Z" fill="#FC7AF6" fill-opacity="0.15"/>
<path d="M327.331 32.0728C327.331 30.928 326.408 30.0012 325.268 30.0012C324.128 30.0012 323.206 30.928 323.206 32.0728C323.206 33.2176 324.128 34.1443 325.268 34.1443C326.408 34.1443 327.331 33.2176 327.331 32.0728Z" fill="#FC7AF6" fill-opacity="0.15"/>
<path d="M256.741 15.9363C256.741 14.7915 255.818 13.8647 254.678 13.8647C253.538 13.8647 252.615 14.7915 252.615 15.9363C252.615 17.0811 253.538 18.0078 254.678 18.0078C255.818 18.0078 256.741 17.0811 256.741 15.9363Z" fill="#FC7AF6" fill-opacity="0.15"/>
<path d="M14.8563 96.0545C14.8563 94.9097 13.9334 93.9829 12.7934 93.9829C11.6534 93.9829 10.7305 94.9097 10.7305 96.0545C10.7305 97.1993 11.6534 98.126 12.7934 98.126C13.9334 98.126 14.8563 97.1993 14.8563 96.0545Z" fill="#FC7AF6" fill-opacity="0.15"/>
<path d="M21.7327 149.988C21.7327 148.843 20.8099 147.916 19.6698 147.916C18.5298 147.916 17.6069 148.843 17.6069 149.988C17.6069 151.132 18.5298 152.059 19.6698 152.059C20.8099 152.059 21.7327 151.132 21.7327 149.988Z" fill="#FC7AF6" fill-opacity="0.15"/>
<path d="M31.3414 440.35C31.3414 439.205 30.4185 438.278 29.2785 438.278C28.1385 438.278 27.2156 439.205 27.2156 440.35C27.2156 441.495 28.1385 442.421 29.2785 442.421C30.4185 442.421 31.3414 441.495 31.3414 440.35Z" fill="#FC7AF6" fill-opacity="0.15"/>
<path d="M178.585 504.096C178.585 502.951 177.662 502.024 176.522 502.024C175.382 502.024 174.459 502.951 174.459 504.096C174.459 505.24 175.382 506.167 176.522 506.167C177.662 506.167 178.585 505.24 178.585 504.096Z" fill="#FC7AF6" fill-opacity="0.15"/>
<path d="M195.288 424.177C195.288 423.032 194.365 422.106 193.225 422.106C192.085 422.106 191.162 423.032 191.162 424.177C191.162 425.322 192.085 426.249 193.225 426.249C194.365 426.249 195.288 425.322 195.288 424.177Z" fill="#FC7AF6" fill-opacity="0.15"/>
<path d="M31.3414 440.35C31.3414 439.205 30.4185 438.278 29.2785 438.278C28.1385 438.278 27.2156 439.205 27.2156 440.35C27.2156 441.495 28.1385 442.421 29.2785 442.421C30.4185 442.421 31.3414 441.495 31.3414 440.35Z" fill="#FC7AF6" fill-opacity="0.15"/>
<path d="M84.9224 330.703C84.9224 329.558 83.9996 328.631 82.8595 328.631C81.7195 328.631 80.7966 329.558 80.7966 330.703C80.7966 331.848 81.7195 332.774 82.8595 332.774C83.9996 332.774 84.9224 331.848 84.9224 330.703Z" fill="#FC7AF6" fill-opacity="0.15"/>
<path d="M128.316 552.05C128.316 550.905 127.393 549.979 126.253 549.979C125.113 549.979 124.19 550.905 124.19 552.05C124.19 553.195 125.113 554.122 126.253 554.122C127.393 554.122 128.316 553.195 128.316 552.05Z" fill="#FC7AF6" fill-opacity="0.15"/>
<path d="M263.128 532.461C263.128 531.316 262.205 530.39 261.065 530.39C259.925 530.39 259.002 531.316 259.002 532.461C259.002 533.606 259.925 534.533 261.065 534.533C262.205 534.533 263.128 533.606 263.128 532.461Z" fill="#FC7AF6" fill-opacity="0.15"/>
<path d="M191.886 592.064C191.886 590.919 190.963 589.992 189.823 589.992C188.683 589.992 187.76 590.919 187.76 592.064C187.76 593.209 188.683 594.135 189.823 594.135C190.963 594.135 191.886 593.209 191.886 592.064Z" fill="#FC7AF6" fill-opacity="0.15"/>
<path d="M178.585 504.096C178.585 502.951 177.662 502.024 176.522 502.024C175.382 502.024 174.459 502.951 174.459 504.096C174.459 505.24 175.382 506.167 176.522 506.167C177.662 506.167 178.585 505.24 178.585 504.096Z" fill="#FC7AF6" fill-opacity="0.15"/>
<path d="M132.948 580.434C132.948 579.289 132.025 578.362 130.885 578.362C129.745 578.362 128.823 579.289 128.823 580.434C128.823 581.579 129.745 582.505 130.885 582.505C132.025 582.505 132.948 581.579 132.948 580.434Z" fill="#FC7AF6" fill-opacity="0.15"/>
<path d="M191.886 592.064C191.886 590.919 190.963 589.992 189.823 589.992C188.683 589.992 187.76 590.919 187.76 592.064C187.76 593.209 188.683 594.135 189.823 594.135C190.963 594.135 191.886 593.209 191.886 592.064Z" fill="#FC7AF6" fill-opacity="0.15"/>
<path d="M82.6969 559.155C82.6969 558.01 81.774 557.083 80.634 557.083C79.4939 557.083 78.571 558.01 78.571 559.155C78.571 560.3 79.4939 561.227 80.634 561.227C81.774 561.227 82.6969 560.3 82.6969 559.155Z" fill="#FC7AF6" fill-opacity="0.15"/>
<path d="M128.316 552.05C128.316 550.905 127.393 549.979 126.253 549.979C125.113 549.979 124.19 550.905 124.19 552.05C124.19 553.195 125.113 554.122 126.253 554.122C127.393 554.122 128.316 553.195 128.316 552.05Z" fill="#FC7AF6" fill-opacity="0.15"/>
<path d="M16.9193 510.455C16.9193 509.311 15.9964 508.384 14.8564 508.384C13.7163 508.384 12.7935 509.311 12.7935 510.455C12.7935 511.6 13.7163 512.527 14.8564 512.527C15.9964 512.527 16.9193 511.6 16.9193 510.455Z" fill="#FC7AF6" fill-opacity="0.15"/>
<path d="M82.6969 559.155C82.6969 558.01 81.774 557.083 80.634 557.083C79.4939 557.083 78.571 558.01 78.571 559.155C78.571 560.3 79.4939 561.227 80.634 561.227C81.774 561.227 82.6969 560.3 82.6969 559.155Z" fill="#FC7AF6" fill-opacity="0.15"/>
<path d="M31.3414 440.35C31.3414 439.205 30.4185 438.278 29.2785 438.278C28.1385 438.278 27.2156 439.205 27.2156 440.35C27.2156 441.495 28.1385 442.421 29.2785 442.421C30.4185 442.421 31.3414 441.495 31.3414 440.35Z" fill="#FC7AF6" fill-opacity="0.15"/>
<path d="M16.9193 510.455C16.9193 509.311 15.9964 508.384 14.8564 508.384C13.7163 508.384 12.7935 509.311 12.7935 510.455C12.7935 511.6 13.7163 512.527 14.8564 512.527C15.9964 512.527 16.9193 511.6 16.9193 510.455Z" fill="#FC7AF6" fill-opacity="0.15"/>
<path d="M31.3414 440.35C31.3414 439.205 30.4185 438.278 29.2785 438.278C28.1385 438.278 27.2156 439.205 27.2156 440.35C27.2156 441.495 28.1385 442.421 29.2785 442.421C30.4185 442.421 31.3414 441.495 31.3414 440.35Z" fill="#FC7AF6" fill-opacity="0.15"/>
<path d="M16.9193 510.455C16.9193 509.311 15.9964 508.384 14.8564 508.384C13.7163 508.384 12.7935 509.311 12.7935 510.455C12.7935 511.6 13.7163 512.527 14.8564 512.527C15.9964 512.527 16.9193 511.6 16.9193 510.455Z" fill="#FC7AF6" fill-opacity="0.15"/>
<path d="M84.9224 330.703C84.9224 329.558 83.9996 328.631 82.8595 328.631C81.7195 328.631 80.7966 329.558 80.7966 330.703C80.7966 331.848 81.7195 332.774 82.8595 332.774C83.9996 332.774 84.9224 331.848 84.9224 330.703Z" fill="#FC7AF6" fill-opacity="0.15"/>
<path d="M93.554 215.205C93.554 214.06 92.6312 213.134 91.4911 213.134C90.3511 213.134 89.4282 214.06 89.4282 215.205C89.4282 216.35 90.3511 217.277 91.4911 217.277C92.6312 217.277 93.554 216.35 93.554 215.205Z" fill="#FC7AF6" fill-opacity="0.15"/>
<path d="M84.9224 330.703C84.9224 329.558 83.9996 328.631 82.8595 328.631C81.7195 328.631 80.7966 329.558 80.7966 330.703C80.7966 331.848 81.7195 332.774 82.8595 332.774C83.9996 332.774 84.9224 331.848 84.9224 330.703Z" fill="#FC7AF6" fill-opacity="0.15"/>
<path d="M195.288 424.177C195.288 423.032 194.365 422.106 193.225 422.106C192.085 422.106 191.162 423.032 191.162 424.177C191.162 425.322 192.085 426.249 193.225 426.249C194.365 426.249 195.288 425.322 195.288 424.177Z" fill="#FC7AF6" fill-opacity="0.15"/>
<path d="M263.128 532.461C263.128 531.316 262.205 530.39 261.065 530.39C259.925 530.39 259.002 531.316 259.002 532.461C259.002 533.606 259.925 534.533 261.065 534.533C262.205 534.533 263.128 533.606 263.128 532.461Z" fill="#FC7AF6" fill-opacity="0.15"/>
<path d="M178.585 504.096C178.585 502.951 177.662 502.024 176.522 502.024C175.382 502.024 174.459 502.951 174.459 504.096C174.459 505.24 175.382 506.167 176.522 506.167C177.662 506.167 178.585 505.24 178.585 504.096Z" fill="#FC7AF6" fill-opacity="0.15"/>
<path d="M300.333 449.599C300.333 448.454 299.41 447.528 298.27 447.528C297.13 447.528 296.207 448.454 296.207 449.599C296.207 450.744 297.13 451.671 298.27 451.671C299.41 451.671 300.333 450.744 300.333 449.599Z" fill="#FC7AF6" fill-opacity="0.15"/>
<path d="M195.288 424.177C195.288 423.032 194.365 422.106 193.225 422.106C192.085 422.106 191.162 423.032 191.162 424.177C191.162 425.322 192.085 426.249 193.225 426.249C194.365 426.249 195.288 425.322 195.288 424.177Z" fill="#FC7AF6" fill-opacity="0.15"/>
<path d="M252.361 303.791C252.361 302.646 251.438 301.719 250.298 301.719C249.158 301.719 248.235 302.646 248.235 303.791C248.235 304.936 249.158 305.863 250.298 305.863C251.438 305.863 252.361 304.936 252.361 303.791Z" fill="#FC7AF6" fill-opacity="0.15"/>
<path d="M84.9224 330.703C84.9224 329.558 83.9996 328.631 82.8595 328.631C81.7195 328.631 80.7966 329.558 80.7966 330.703C80.7966 331.848 81.7195 332.774 82.8595 332.774C83.9996 332.774 84.9224 331.848 84.9224 330.703Z" fill="#FC7AF6" fill-opacity="0.15"/>
<path d="M229.832 199.614C229.832 198.469 228.909 197.542 227.769 197.542C226.629 197.542 225.707 198.469 225.707 199.614C225.707 200.759 226.629 201.685 227.769 201.685C228.909 201.685 229.832 200.759 229.832 199.614Z" fill="#FC7AF6" fill-opacity="0.15"/>
<path d="M93.554 215.205C93.554 214.06 92.6312 213.134 91.4911 213.134C90.3511 213.134 89.4282 214.06 89.4282 215.205C89.4282 216.35 90.3511 217.277 91.4911 217.277C92.6312 217.277 93.554 216.35 93.554 215.205Z" fill="#FC7AF6" fill-opacity="0.15"/>
<path d="M21.7327 149.988C21.7327 148.843 20.8099 147.916 19.6698 147.916C18.5298 147.916 17.6069 148.843 17.6069 149.988C17.6069 151.132 18.5298 152.059 19.6698 152.059C20.8099 152.059 21.7327 151.132 21.7327 149.988Z" fill="#FC7AF6" fill-opacity="0.15"/>
<path d="M14.8563 96.0545C14.8563 94.9097 13.9334 93.9829 12.7934 93.9829C11.6534 93.9829 10.7305 94.9097 10.7305 96.0545C10.7305 97.1993 11.6534 98.126 12.7934 98.126C13.9334 98.126 14.8563 97.1993 14.8563 96.0545Z" fill="#FC7AF6" fill-opacity="0.15"/>
<path d="M21.7327 149.988C21.7327 148.843 20.8099 147.916 19.6698 147.916C18.5298 147.916 17.6069 148.843 17.6069 149.988C17.6069 151.132 18.5298 152.059 19.6698 152.059C20.8099 152.059 21.7327 151.132 21.7327 149.988Z" fill="#FC7AF6" fill-opacity="0.15"/>
<path d="M145.489 139.757C145.489 138.612 144.566 137.685 143.426 137.685C142.286 137.685 141.363 138.612 141.363 139.757C141.363 140.902 142.286 141.828 143.426 141.828C144.566 141.828 145.489 140.902 145.489 139.757Z" fill="#FC7AF6" fill-opacity="0.15"/>
<path d="M93.554 215.205C93.554 214.06 92.6312 213.134 91.4911 213.134C90.3511 213.134 89.4282 214.06 89.4282 215.205C89.4282 216.35 90.3511 217.277 91.4911 217.277C92.6312 217.277 93.554 216.35 93.554 215.205Z" fill="#FC7AF6" fill-opacity="0.15"/>
<path d="M86.1893 83.4253C86.1893 82.2805 85.2664 81.3538 84.1264 81.3538C82.9864 81.3538 82.0635 82.2805 82.0635 83.4253C82.0635 84.5701 82.9864 85.4969 84.1264 85.4969C85.2664 85.4969 86.1893 84.5701 86.1893 83.4253Z" fill="#FC7AF6" fill-opacity="0.15"/>
<path d="M21.7327 149.988C21.7327 148.843 20.8099 147.916 19.6698 147.916C18.5298 147.916 17.6069 148.843 17.6069 149.988C17.6069 151.132 18.5298 152.059 19.6698 152.059C20.8099 152.059 21.7327 151.132 21.7327 149.988Z" fill="#FC7AF6" fill-opacity="0.15"/>
<path d="M84.1263 47.1367C84.1263 45.9919 83.2034 45.0652 82.0634 45.0652C80.9234 45.0652 80.0005 45.9919 80.0005 47.1367C80.0005 48.2815 80.9234 49.2083 82.0634 49.2083C83.2034 49.2083 84.1263 48.2815 84.1263 47.1367Z" fill="#FC7AF6" fill-opacity="0.15"/>
<path d="M14.8563 96.0545C14.8563 94.9097 13.9334 93.9829 12.7934 93.9829C11.6534 93.9829 10.7305 94.9097 10.7305 96.0545C10.7305 97.1993 11.6534 98.126 12.7934 98.126C13.9334 98.126 14.8563 97.1993 14.8563 96.0545Z" fill="#FC7AF6" fill-opacity="0.15"/>
<path d="M86.1893 83.4253C86.1893 82.2805 85.2664 81.3538 84.1264 81.3538C82.9864 81.3538 82.0635 82.2805 82.0635 83.4253C82.0635 84.5701 82.9864 85.4969 84.1264 85.4969C85.2664 85.4969 86.1893 84.5701 86.1893 83.4253Z" fill="#FC7AF6" fill-opacity="0.15"/>
<path d="M84.1263 47.1367C84.1263 45.9919 83.2034 45.0652 82.0634 45.0652C80.9234 45.0652 80.0005 45.9919 80.0005 47.1367C80.0005 48.2815 80.9234 49.2083 82.0634 49.2083C83.2034 49.2083 84.1263 48.2815 84.1263 47.1367Z" fill="#FC7AF6" fill-opacity="0.15"/>
<path d="M163.476 18.3714C163.476 17.2265 162.553 16.2998 161.413 16.2998C160.273 16.2998 159.35 17.2265 159.35 18.3714C159.35 19.5162 160.273 20.4429 161.413 20.4429C162.553 20.4429 163.476 19.5162 163.476 18.3714Z" fill="#FC7AF6" fill-opacity="0.15"/>
<path d="M86.1893 83.4253C86.1893 82.2805 85.2664 81.3538 84.1264 81.3538C82.9864 81.3538 82.0635 82.2805 82.0635 83.4253C82.0635 84.5701 82.9864 85.4969 84.1264 85.4969C85.2664 85.4969 86.1893 84.5701 86.1893 83.4253Z" fill="#FC7AF6" fill-opacity="0.15"/>
<path d="M145.489 139.757C145.489 138.612 144.566 137.685 143.426 137.685C142.286 137.685 141.363 138.612 141.363 139.757C141.363 140.902 142.286 141.828 143.426 141.828C144.566 141.828 145.489 140.902 145.489 139.757Z" fill="#FC7AF6" fill-opacity="0.15"/>
<path d="M252.361 303.791C252.361 302.646 251.438 301.719 250.298 301.719C249.158 301.719 248.235 302.646 248.235 303.791C248.235 304.936 249.158 305.863 250.298 305.863C251.438 305.863 252.361 304.936 252.361 303.791Z" fill="#FC7AF6" fill-opacity="0.15"/>
<path d="M300.333 449.599C300.333 448.454 299.41 447.528 298.27 447.528C297.13 447.528 296.207 448.454 296.207 449.599C296.207 450.744 297.13 451.671 298.27 451.671C299.41 451.671 300.333 450.744 300.333 449.599Z" fill="#FC7AF6" fill-opacity="0.15"/>
<path d="M255.239 591.319C255.239 590.174 254.316 589.247 253.176 589.247C252.036 589.247 251.113 590.174 251.113 591.319C251.113 592.463 252.036 593.39 253.176 593.39C254.316 593.39 255.239 592.463 255.239 591.319Z" fill="#FC7AF6" fill-opacity="0.15"/>
<path d="M191.886 592.064C191.886 590.919 190.963 589.992 189.823 589.992C188.683 589.992 187.76 590.919 187.76 592.064C187.76 593.209 188.683 594.135 189.823 594.135C190.963 594.135 191.886 593.209 191.886 592.064Z" fill="#FC7AF6" fill-opacity="0.15"/>
<path d="M355.922 559.9C357.062 559.9 357.985 558.973 357.985 557.829C357.985 556.685 357.062 555.757 355.922 555.757C354.783 555.757 353.859 556.685 353.859 557.829C353.859 558.973 354.783 559.9 355.922 559.9Z" fill="#FC7AF6" fill-opacity="0.15"/>
<path d="M300.333 449.599C300.333 448.454 299.41 447.528 298.27 447.528C297.13 447.528 296.207 448.454 296.207 449.599C296.207 450.744 297.13 451.671 298.27 451.671C299.41 451.671 300.333 450.744 300.333 449.599Z" fill="#FC7AF6" fill-opacity="0.15"/>
<path d="M263.128 532.461C263.128 531.316 262.205 530.39 261.065 530.39C259.925 530.39 259.002 531.316 259.002 532.461C259.002 533.606 259.925 534.533 261.065 534.533C262.205 534.533 263.128 533.606 263.128 532.461Z" fill="#FC7AF6" fill-opacity="0.15"/>
<path d="M291.013 584.522C291.013 583.377 290.091 582.451 288.951 582.451C287.811 582.451 286.888 583.377 286.888 584.522C286.888 585.667 287.811 586.594 288.951 586.594C290.091 586.594 291.013 585.667 291.013 584.522Z" fill="#FC7AF6" fill-opacity="0.15"/>
<path d="M355.922 559.9C357.062 559.9 357.985 558.973 357.985 557.829C357.985 556.685 357.062 555.757 355.922 555.757C354.783 555.757 353.859 556.685 353.859 557.829C353.859 558.973 354.783 559.9 355.922 559.9Z" fill="#FC7AF6" fill-opacity="0.15"/>
<path d="M263.128 532.461C263.128 531.316 262.205 530.39 261.065 530.39C259.925 530.39 259.002 531.316 259.002 532.461C259.002 533.606 259.925 534.533 261.065 534.533C262.205 534.533 263.128 533.606 263.128 532.461Z" fill="#FC7AF6" fill-opacity="0.15"/>
<path d="M419.184 513.49C419.184 512.345 418.261 511.418 417.121 511.418C415.981 511.418 415.059 512.345 415.059 513.49C415.059 514.635 415.981 515.562 417.121 515.562C418.261 515.562 419.184 514.635 419.184 513.49Z" fill="#FC7AF6" fill-opacity="0.15"/>
<path d="M410.517 332.157C410.517 331.012 409.594 330.085 408.454 330.085C407.314 330.085 406.391 331.012 406.391 332.157C406.391 333.302 407.314 334.228 408.454 334.228C409.594 334.228 410.517 333.302 410.517 332.157Z" fill="#FC7AF6" fill-opacity="0.15"/>
<path d="M355.922 559.9C357.062 559.9 357.985 558.973 357.985 557.829C357.985 556.685 357.062 555.757 355.922 555.757C354.783 555.757 353.859 556.685 353.859 557.829C353.859 558.973 354.783 559.9 355.922 559.9Z" fill="#FC7AF6" fill-opacity="0.15"/>
<path d="M419.184 513.49C419.184 512.345 418.261 511.418 417.121 511.418C415.981 511.418 415.059 512.345 415.059 513.49C415.059 514.635 415.981 515.562 417.121 515.562C418.261 515.562 419.184 514.635 419.184 513.49Z" fill="#FC7AF6" fill-opacity="0.15"/>
<path d="M300.333 449.599C300.333 448.454 299.41 447.528 298.27 447.528C297.13 447.528 296.207 448.454 296.207 449.599C296.207 450.744 297.13 451.671 298.27 451.671C299.41 451.671 300.333 450.744 300.333 449.599Z" fill="#FC7AF6" fill-opacity="0.15"/>
<path d="M470.631 446.074C470.631 444.929 469.708 444.002 468.568 444.002C467.428 444.002 466.505 444.929 466.505 446.074C466.505 447.219 467.428 448.145 468.568 448.145C469.708 448.145 470.631 447.219 470.631 446.074Z" fill="#FC7AF6" fill-opacity="0.15"/>
<path d="M419.184 513.49C419.184 512.345 418.261 511.418 417.121 511.418C415.981 511.418 415.059 512.345 415.059 513.49C415.059 514.635 415.981 515.562 417.121 515.562C418.261 515.562 419.184 514.635 419.184 513.49Z" fill="#FC7AF6" fill-opacity="0.15"/>
<path d="M475.987 359.45C475.987 358.305 475.064 357.379 473.924 357.379C472.784 357.379 471.861 358.305 471.861 359.45C471.861 360.595 472.784 361.522 473.924 361.522C475.064 361.522 475.987 360.595 475.987 359.45Z" fill="#FC7AF6" fill-opacity="0.15"/>
<path d="M499.801 372.37C499.801 371.225 498.878 370.299 497.738 370.299C496.598 370.299 495.675 371.225 495.675 372.37C495.675 373.515 496.598 374.442 497.738 374.442C498.878 374.442 499.801 373.515 499.801 372.37Z" fill="#FC7AF6" fill-opacity="0.15"/>
<path d="M470.631 446.074C470.631 444.929 469.708 444.002 468.568 444.002C467.428 444.002 466.505 444.929 466.505 446.074C466.505 447.219 467.428 448.145 468.568 448.145C469.708 448.145 470.631 447.219 470.631 446.074Z" fill="#FC7AF6" fill-opacity="0.15"/>
<path d="M507.618 289.508C507.618 288.363 506.695 287.437 505.555 287.437C504.415 287.437 503.492 288.363 503.492 289.508C503.492 290.653 504.415 291.58 505.555 291.58C506.695 291.58 507.618 290.653 507.618 289.508Z" fill="#FC7AF6" fill-opacity="0.15"/>
<path d="M475.987 359.45C475.987 358.305 475.064 357.379 473.924 357.379C472.784 357.379 471.861 358.305 471.861 359.45C471.861 360.595 472.784 361.522 473.924 361.522C475.064 361.522 475.987 360.595 475.987 359.45Z" fill="#FC7AF6" fill-opacity="0.15"/>
<path d="M470.631 446.074C470.631 444.929 469.708 444.002 468.568 444.002C467.428 444.002 466.505 444.929 466.505 446.074C466.505 447.219 467.428 448.145 468.568 448.145C469.708 448.145 470.631 447.219 470.631 446.074Z" fill="#FC7AF6" fill-opacity="0.15"/>
<path d="M410.517 332.157C410.517 331.012 409.594 330.085 408.454 330.085C407.314 330.085 406.391 331.012 406.391 332.157C406.391 333.302 407.314 334.228 408.454 334.228C409.594 334.228 410.517 333.302 410.517 332.157Z" fill="#FC7AF6" fill-opacity="0.15"/>
<path d="M300.333 449.599C300.333 448.454 299.41 447.528 298.27 447.528C297.13 447.528 296.207 448.454 296.207 449.599C296.207 450.744 297.13 451.671 298.27 451.671C299.41 451.671 300.333 450.744 300.333 449.599Z" fill="#FC7AF6" fill-opacity="0.15"/>
<path d="M379.899 183.332C379.899 182.187 378.976 181.261 377.836 181.261C376.696 181.261 375.773 182.187 375.773 183.332C375.773 184.477 376.696 185.404 377.836 185.404C378.976 185.404 379.899 184.477 379.899 183.332Z" fill="#FC7AF6" fill-opacity="0.15"/>
<path d="M252.361 303.791C252.361 302.646 251.438 301.719 250.298 301.719C249.158 301.719 248.235 302.646 248.235 303.791C248.235 304.936 249.158 305.863 250.298 305.863C251.438 305.863 252.361 304.936 252.361 303.791Z" fill="#FC7AF6" fill-opacity="0.15"/>
<path d="M410.517 332.157C410.517 331.012 409.594 330.085 408.454 330.085C407.314 330.085 406.391 331.012 406.391 332.157C406.391 333.302 407.314 334.228 408.454 334.228C409.594 334.228 410.517 333.302 410.517 332.157Z" fill="#FC7AF6" fill-opacity="0.15"/>
<path d="M298.071 151.169C298.071 150.024 297.148 149.097 296.008 149.097C294.868 149.097 293.945 150.024 293.945 151.169C293.945 152.314 294.868 153.24 296.008 153.24C297.148 153.24 298.071 152.314 298.071 151.169Z" fill="#FC7AF6" fill-opacity="0.15"/>
<path d="M229.832 199.614C229.832 198.469 228.909 197.542 227.769 197.542C226.629 197.542 225.707 198.469 225.707 199.614C225.707 200.759 226.629 201.685 227.769 201.685C228.909 201.685 229.832 200.759 229.832 199.614Z" fill="#FC7AF6" fill-opacity="0.15"/>
<path d="M252.361 303.791C252.361 302.646 251.438 301.719 250.298 301.719C249.158 301.719 248.235 302.646 248.235 303.791C248.235 304.936 249.158 305.863 250.298 305.863C251.438 305.863 252.361 304.936 252.361 303.791Z" fill="#FC7AF6" fill-opacity="0.15"/>
<path d="M298.071 151.169C298.071 150.024 297.148 149.097 296.008 149.097C294.868 149.097 293.945 150.024 293.945 151.169C293.945 152.314 294.868 153.24 296.008 153.24C297.148 153.24 298.071 152.314 298.071 151.169Z" fill="#FC7AF6" fill-opacity="0.15"/>
<path d="M145.489 139.757C145.489 138.612 144.566 137.685 143.426 137.685C142.286 137.685 141.363 138.612 141.363 139.757C141.363 140.902 142.286 141.828 143.426 141.828C144.566 141.828 145.489 140.902 145.489 139.757Z" fill="#FC7AF6" fill-opacity="0.15"/>
<path d="M229.832 199.614C229.832 198.469 228.909 197.542 227.769 197.542C226.629 197.542 225.707 198.469 225.707 199.614C225.707 200.759 226.629 201.685 227.769 201.685C228.909 201.685 229.832 200.759 229.832 199.614Z" fill="#FC7AF6" fill-opacity="0.15"/>
<path d="M163.476 18.3714C163.476 17.2265 162.553 16.2998 161.413 16.2998C160.273 16.2998 159.35 17.2265 159.35 18.3714C159.35 19.5162 160.273 20.4429 161.413 20.4429C162.553 20.4429 163.476 19.5162 163.476 18.3714Z" fill="#FC7AF6" fill-opacity="0.15"/>
<path d="M145.489 139.757C145.489 138.612 144.566 137.685 143.426 137.685C142.286 137.685 141.363 138.612 141.363 139.757C141.363 140.902 142.286 141.828 143.426 141.828C144.566 141.828 145.489 140.902 145.489 139.757Z" fill="#FC7AF6" fill-opacity="0.15"/>
<path d="M246.534 48.3362C246.534 47.1914 245.612 46.2646 244.472 46.2646C243.332 46.2646 242.409 47.1914 242.409 48.3362C242.409 49.481 243.332 50.4078 244.472 50.4078C245.612 50.4078 246.534 49.481 246.534 48.3362Z" fill="#FC7AF6" fill-opacity="0.15"/>
<path d="M256.741 15.9363C256.741 14.7915 255.818 13.8647 254.678 13.8647C253.538 13.8647 252.615 14.7915 252.615 15.9363C252.615 17.0811 253.538 18.0078 254.678 18.0078C255.818 18.0078 256.741 17.0811 256.741 15.9363Z" fill="#FC7AF6" fill-opacity="0.15"/>
<path d="M163.476 18.3714C163.476 17.2265 162.553 16.2998 161.413 16.2998C160.273 16.2998 159.35 17.2265 159.35 18.3714C159.35 19.5162 160.273 20.4429 161.413 20.4429C162.553 20.4429 163.476 19.5162 163.476 18.3714Z" fill="#FC7AF6" fill-opacity="0.15"/>
<path d="M246.534 48.3362C246.534 47.1914 245.612 46.2646 244.472 46.2646C243.332 46.2646 242.409 47.1914 242.409 48.3362C242.409 49.481 243.332 50.4078 244.472 50.4078C245.612 50.4078 246.534 49.481 246.534 48.3362Z" fill="#FC7AF6" fill-opacity="0.15"/>
<path d="M298.071 151.169C298.071 150.024 297.148 149.097 296.008 149.097C294.868 149.097 293.945 150.024 293.945 151.169C293.945 152.314 294.868 153.24 296.008 153.24C297.148 153.24 298.071 152.314 298.071 151.169Z" fill="#FC7AF6" fill-opacity="0.15"/>
<path d="M327.331 32.0728C327.331 30.928 326.408 30.0012 325.268 30.0012C324.128 30.0012 323.206 30.928 323.206 32.0728C323.206 33.2176 324.128 34.1443 325.268 34.1443C326.408 34.1443 327.331 33.2176 327.331 32.0728Z" fill="#FC7AF6" fill-opacity="0.15"/>
<path d="M246.534 48.3362C246.534 47.1914 245.612 46.2646 244.472 46.2646C243.332 46.2646 242.409 47.1914 242.409 48.3362C242.409 49.481 243.332 50.4078 244.472 50.4078C245.612 50.4078 246.534 49.481 246.534 48.3362Z" fill="#FC7AF6" fill-opacity="0.15"/>
<path d="M375.972 59.9297C375.972 58.7849 375.05 57.8582 373.91 57.8582C372.77 57.8582 371.847 58.7849 371.847 59.9297C371.847 61.0745 372.77 62.0013 373.91 62.0013C375.05 62.0013 375.972 61.0745 375.972 59.9297Z" fill="#FC7AF6" fill-opacity="0.15"/>
<path d="M327.331 32.0728C327.331 30.928 326.408 30.0012 325.268 30.0012C324.128 30.0012 323.206 30.928 323.206 32.0728C323.206 33.2176 324.128 34.1443 325.268 34.1443C326.408 34.1443 327.331 33.2176 327.331 32.0728Z" fill="#FC7AF6" fill-opacity="0.15"/>
<path d="M366.11 82.6441C366.11 81.4993 365.187 80.5725 364.047 80.5725C362.907 80.5725 361.984 81.4993 361.984 82.6441C361.984 83.7889 362.907 84.7156 364.047 84.7156C365.187 84.7156 366.11 83.7889 366.11 82.6441Z" fill="#FC7AF6" fill-opacity="0.15"/>
<path d="M375.972 59.9297C375.972 58.7849 375.05 57.8582 373.91 57.8582C372.77 57.8582 371.847 58.7849 371.847 59.9297C371.847 61.0745 372.77 62.0013 373.91 62.0013C375.05 62.0013 375.972 61.0745 375.972 59.9297Z" fill="#FC7AF6" fill-opacity="0.15"/>
<path d="M431.055 106.503C431.055 105.358 430.133 104.432 428.993 104.432C427.853 104.432 426.93 105.358 426.93 106.503C426.93 107.648 427.853 108.575 428.993 108.575C430.133 108.575 431.055 107.648 431.055 106.503Z" fill="#FC7AF6" fill-opacity="0.15"/>
<path d="M366.11 82.6441C366.11 81.4993 365.187 80.5725 364.047 80.5725C362.907 80.5725 361.984 81.4993 361.984 82.6441C361.984 83.7889 362.907 84.7156 364.047 84.7156C365.187 84.7156 366.11 83.7889 366.11 82.6441Z" fill="#FC7AF6" fill-opacity="0.15"/>
<path d="M298.071 151.169C298.071 150.024 297.148 149.097 296.008 149.097C294.868 149.097 293.945 150.024 293.945 151.169C293.945 152.314 294.868 153.24 296.008 153.24C297.148 153.24 298.071 152.314 298.071 151.169Z" fill="#FC7AF6" fill-opacity="0.15"/>
<path d="M379.899 183.332C379.899 182.187 378.976 181.261 377.836 181.261C376.696 181.261 375.773 182.187 375.773 183.332C375.773 184.477 376.696 185.404 377.836 185.404C378.976 185.404 379.899 184.477 379.899 183.332Z" fill="#FC7AF6" fill-opacity="0.15"/>
<path d="M410.517 332.157C410.517 331.012 409.594 330.085 408.454 330.085C407.314 330.085 406.391 331.012 406.391 332.157C406.391 333.302 407.314 334.228 408.454 334.228C409.594 334.228 410.517 333.302 410.517 332.157Z" fill="#FC7AF6" fill-opacity="0.15"/>
<path d="M475.987 359.45C475.987 358.305 475.064 357.379 473.924 357.379C472.784 357.379 471.861 358.305 471.861 359.45C471.861 360.595 472.784 361.522 473.924 361.522C475.064 361.522 475.987 360.595 475.987 359.45Z" fill="#FC7AF6" fill-opacity="0.15"/>
<path d="M477 173.12C477 171.975 476.077 171.048 474.937 171.048C473.797 171.048 472.874 171.975 472.874 173.12C472.874 174.265 473.797 175.191 474.937 175.191C476.077 175.191 477 174.265 477 173.12Z" fill="#FC7AF6" fill-opacity="0.15"/>
<path d="M366.11 82.6441C366.11 81.4993 365.187 80.5725 364.047 80.5725C362.907 80.5725 361.984 81.4993 361.984 82.6441C361.984 83.7889 362.907 84.7156 364.047 84.7156C365.187 84.7156 366.11 83.7889 366.11 82.6441Z" fill="#FC7AF6" fill-opacity="0.15"/>
<path d="M431.055 106.503C431.055 105.358 430.133 104.432 428.993 104.432C427.853 104.432 426.93 105.358 426.93 106.503C426.93 107.648 427.853 108.575 428.993 108.575C430.133 108.575 431.055 107.648 431.055 106.503Z" fill="#FC7AF6" fill-opacity="0.15"/>
<path d="M379.899 183.332C379.899 182.187 378.976 181.261 377.836 181.261C376.696 181.261 375.773 182.187 375.773 183.332C375.773 184.477 376.696 185.404 377.836 185.404C378.976 185.404 379.899 184.477 379.899 183.332Z" fill="#FC7AF6" fill-opacity="0.15"/>
<path d="M477 173.12C477 171.975 476.077 171.048 474.937 171.048C473.797 171.048 472.874 171.975 472.874 173.12C472.874 174.265 473.797 175.191 474.937 175.191C476.077 175.191 477 174.265 477 173.12Z" fill="#FC7AF6" fill-opacity="0.15"/>
<path d="M379.899 183.332C379.899 182.187 378.976 181.261 377.836 181.261C376.696 181.261 375.773 182.187 375.773 183.332C375.773 184.477 376.696 185.404 377.836 185.404C378.976 185.404 379.899 184.477 379.899 183.332Z" fill="#FC7AF6" fill-opacity="0.15"/>
<path d="M500.778 238.755C500.778 237.61 499.855 236.684 498.715 236.684C497.575 236.684 496.652 237.61 496.652 238.755C496.652 239.9 497.575 240.827 498.715 240.827C499.855 240.827 500.778 239.9 500.778 238.755Z" fill="#FC7AF6" fill-opacity="0.15"/>
<path d="M507.618 289.508C507.618 288.363 506.695 287.437 505.555 287.437C504.415 287.437 503.492 288.363 503.492 289.508C503.492 290.653 504.415 291.58 505.555 291.58C506.695 291.58 507.618 290.653 507.618 289.508Z" fill="#FC7AF6" fill-opacity="0.15"/>
<path d="M410.517 332.157C410.517 331.012 409.594 330.085 408.454 330.085C407.314 330.085 406.391 331.012 406.391 332.157C406.391 333.302 407.314 334.228 408.454 334.228C409.594 334.228 410.517 333.302 410.517 332.157Z" fill="#FC7AF6" fill-opacity="0.15"/>
<path d="M477 173.12C477 171.975 476.077 171.048 474.937 171.048C473.797 171.048 472.874 171.975 472.874 173.12C472.874 174.265 473.797 175.191 474.937 175.191C476.077 175.191 477 174.265 477 173.12Z" fill="#FC7AF6" fill-opacity="0.15"/>
<path d="M189.696 603.966C189.696 603.966 189.642 603.966 189.624 603.966L116.499 587.83C116.499 587.83 116.463 587.83 116.427 587.812C116.409 587.812 116.391 587.793 116.373 587.775L2.84091 517.252C2.84091 517.252 2.80471 517.215 2.78662 517.197C2.78662 517.197 2.76852 517.161 2.75043 517.143L-47.7001 445.111C-47.7001 445.111 -47.7363 445.056 -47.7363 445.038C-47.7363 445.038 -47.7363 445.038 -47.7363 445.02L-77.4493 362.467C-77.4493 362.467 -77.4493 362.412 -77.4493 362.376L-79.9646 265.376C-79.9646 265.376 -79.9646 265.322 -79.9646 265.304C-79.9646 265.304 -79.9646 265.286 -79.9646 265.267L-63.3166 191.855C-63.3166 191.855 -63.2985 191.782 -63.2804 191.746L-34.5627 141.156C-34.5627 141.156 -34.5627 141.156 -34.5627 141.138C-34.5627 141.138 -34.5627 141.12 -34.5446 141.102L13.4992 83.8068C13.4992 83.8068 13.5535 83.7523 13.5716 83.7342L82.2806 35.9431L82.3168 35.9249C82.3168 35.9249 82.3349 35.9249 82.353 35.9249L123.448 19.8068C123.611 19.7341 123.792 19.8068 123.882 19.9522C123.973 20.0976 123.955 20.2975 123.828 20.4065L106.854 36.034L138.558 36.2157L149.85 11.3934C149.904 11.2844 150.012 11.1935 150.139 11.1754L202.49 4.07031C202.49 4.07031 202.526 4.07031 202.544 4.07031C202.58 4.07031 202.598 4.07031 202.616 4.07031L281.984 22.9868L287.684 12.3929C287.774 12.2293 287.955 12.1566 288.136 12.2293L364.156 42.5757C364.156 42.5757 364.156 42.5757 364.174 42.5757C364.174 42.5757 364.228 42.6121 364.246 42.6302L433.77 96.1271C433.77 96.1271 433.806 96.1635 433.824 96.1816C433.824 96.1816 433.824 96.1998 433.842 96.218L479.57 159.855C479.57 159.855 479.57 159.873 479.588 159.891C479.588 159.891 479.588 159.927 479.606 159.945L507.129 229.597C507.202 229.76 507.129 229.96 506.966 230.051L495.222 236.393L500.524 262.305L513.915 266.612C514.06 266.667 514.169 266.794 514.169 266.957L514.929 332.829C514.929 332.829 514.929 332.865 514.929 332.884C514.929 332.884 514.929 332.902 514.929 332.92L502.931 394.212C502.913 394.321 502.823 394.43 502.714 394.467C502.605 394.521 502.479 394.503 502.388 394.449L497.43 391.45L480.981 446.492C480.981 446.492 480.981 446.51 480.981 446.528C480.981 446.528 480.945 446.601 480.927 446.619L430.712 515.016C430.712 515.016 430.675 515.071 430.657 515.089L355.995 570.948C355.886 571.039 355.741 571.039 355.615 570.985C355.488 570.912 355.416 570.785 355.416 570.658L355.868 557.102L283.431 597.769C283.431 597.769 283.232 597.824 283.142 597.806L138.124 555.012L189.931 603.384C190.058 603.493 190.076 603.675 190.004 603.821C189.931 603.948 189.823 604.02 189.678 604.02L189.696 603.966ZM116.934 587.175L188.466 602.967L136.586 554.503L119.232 549.669L116.934 587.157V587.175ZM138.504 554.321L282.744 596.879L267.815 536.968L138.504 554.321ZM268.539 536.859L283.413 596.588L336.18 527.791L268.539 536.877V536.859ZM337.212 527.646L284.626 596.225L355.904 556.211L356.936 525.011L337.212 527.664V527.646ZM80.8873 538.985L116.264 586.449L118.526 549.47L80.8873 538.985ZM5.37429 517.942L115.124 586.14L79.7472 538.676L5.37429 517.96V517.942ZM356.61 556.647L356.176 569.894L425.79 517.815L356.61 556.647ZM357.66 524.902L356.628 555.793L428.594 515.38L357.642 524.902H357.66ZM119.594 544L136.712 553.74L183.67 505.967L121.801 508.039L119.594 544.018V544ZM184.72 505.913L137.762 553.667L267.634 536.241L259.455 503.423L184.702 505.913H184.72ZM119.286 548.924L134.034 553.031L119.539 544.8L119.286 548.924ZM80.1815 538.04L118.58 548.743L118.852 544.418L59.9868 510.946L80.1815 538.058V538.04ZM59.9506 510.074L118.888 543.582L121.078 508.02L59.9687 510.056L59.9506 510.074ZM4.84952 517.052L79.0415 537.731L58.503 510.165L4.86762 517.07L4.84952 517.052ZM260.215 503.405L268.376 536.168L336.832 526.973L357.388 500.17L260.215 503.423V503.405ZM357.732 500.879L337.827 526.828L356.954 524.266L357.732 500.879ZM358.492 500.207L357.696 524.157L428.287 514.689L358.492 500.207ZM-4.57829 471.514L3.32949 516.525L57.5982 509.547L-4.57829 471.514ZM-46.1439 446.092L1.91803 514.708L-14.2052 465.626L-46.1439 446.092ZM359.324 499.643L430.205 514.344L450.345 459.957L359.324 499.625V499.643ZM451.268 459.575L431.671 512.472L479.57 447.219L451.25 459.557L451.268 459.575ZM-13.2461 466.208L1.80945 512.018L-5.3926 471.005L-13.2461 466.208ZM125.493 436.061L59.4983 509.365L121.114 507.312L125.493 436.061ZM53.2553 439.514L58.9373 508.893L125.041 435.462L53.2553 439.514ZM-9.15648 443.039L58.2316 508.82L52.5495 439.55L-9.15648 443.039ZM-4.75925 470.551L56.0963 507.766L-9.46411 443.766L-4.75925 470.551ZM126.253 435.443L121.838 507.294L184.412 505.204L244.236 444.347L126.253 435.443ZM244.852 444.747L185.462 505.149L259.292 502.678L244.852 444.729V444.747ZM245.575 444.711L260.016 502.678L356.664 499.462L245.575 444.729V444.711ZM246.173 444.184L357.732 499.153L350.331 423.596L246.173 444.184ZM395.027 414.764L358.836 499.062L450.707 459.012L472.784 399.391L395.027 414.764ZM351.037 423.468L358.365 498.335L394.177 414.946L351.055 423.468H351.037ZM-13.608 465.136L-5.57355 470.042L-10.2965 443.094L-20.6291 443.693L-13.5899 465.136H-13.608ZM-46.2525 445.165L-14.549 464.554L-21.3891 443.748L-46.2525 445.165ZM473.2 400.354L451.63 458.63L480.275 446.146L473.2 400.354ZM470.269 375.005L473.707 398.864L480.782 444.711L496.833 391.032L470.269 375.023V375.005ZM-76.074 364.139L-47.1754 444.493L-21.6244 443.021L-29.0255 420.506L-76.074 364.139ZM126.235 434.717L244.164 443.621L136.386 323.489L115.178 337.426L126.217 434.735L126.235 434.717ZM341.175 330.158L245.974 443.493L350.24 422.887L341.175 330.158ZM217.762 270.519L245.268 443.203L340.867 329.395L217.762 270.537V270.519ZM-27.7769 422.015L-20.8824 442.985L-10.7489 442.403L-27.7769 422.015ZM137.002 323.071L244.49 442.876L217.021 270.501L137.002 323.071ZM47.8085 381.874L-9.12029 442.312L52.4772 438.842L47.8085 381.874ZM-28.374 420.143L-9.98888 442.185L47.3561 381.311L-45.7096 367.409L-28.374 420.161V420.143ZM48.5323 381.783L53.201 438.805L124.842 434.753L48.5323 381.783ZM48.7495 381.056L125.457 434.299L114.509 337.844L48.7495 381.056ZM341.862 329.722L350.964 422.742L394.52 414.128L423.383 346.894L341.862 329.722ZM-76.2188 362.848L-29.6407 418.653L-46.5058 367.282L-76.2188 362.848ZM424.052 347.148L395.371 413.965L472.947 398.628L469.472 374.533L424.052 347.148ZM497.683 390.705L502.352 393.522L512.829 340.043L497.683 390.705ZM470.142 374.078L497.05 390.305L514.114 333.229L465.328 340.661L470.142 374.078ZM-45.9629 366.628L47.1571 380.547L4.23427 332.702L-50.4688 352.909L-45.9629 366.646V366.628ZM4.95809 332.429L47.8085 380.184L52.6581 314.839L4.97619 332.447L4.95809 332.429ZM53.4 314.549L48.5685 379.766L108.863 294.069L53.4 314.549ZM109.569 294.305L49.4733 379.711L114.418 337.027L109.569 294.287V294.305ZM424.939 346.821L469.346 373.588L464.623 340.77L424.957 346.821H424.939ZM-75.6578 362.194L-46.7773 366.519L-51.1745 353.163L-75.6759 362.212L-75.6578 362.194ZM-61.8147 320.69L-76.5083 361.74L-51.3916 352.472L-61.8328 320.709L-61.8147 320.69ZM-79.1865 267.793L-76.7979 360.413L-62.1947 319.582L-79.2046 267.811L-79.1865 267.793ZM-61.4166 319.564L-50.704 352.2L3.7095 332.102L-46.0534 276.643L-61.4166 319.564ZM453.005 260.252L424.414 346.167L464.496 340.061L452.987 260.252H453.005ZM342.405 329.086L423.274 346.112L399.659 292.906L342.405 329.068V329.086ZM400.275 292.525L423.853 345.622L452.499 259.543L400.293 292.525H400.275ZM453.675 259.907L465.202 339.952L513.915 332.52L453.657 259.907H453.675ZM110.311 294.396L115.106 336.591L135.916 322.926L110.329 294.396H110.311ZM-45.601 276.061L4.45142 331.848L52.7124 314.022L59.4621 222.964L-45.601 276.061ZM453.711 258.798L513.988 331.448L499.963 262.832L466.288 252.02L453.711 258.816V258.798ZM500.742 263.069L514.223 328.995L513.499 267.175L500.742 263.087V263.069ZM218.269 269.956L341.211 328.74L367.178 220.529L218.269 269.956ZM367.775 221.111L342.007 328.468L399.352 292.234L367.775 221.092V221.111ZM110.51 293.542L136.513 322.526L215.446 270.664L110.51 293.542ZM-79.0598 265.885L-61.7966 318.455L-46.6687 276.188L-79.0598 265.885ZM60.1497 223.382L53.4543 313.749L109.261 293.142L60.1497 223.382ZM60.7649 223.001L109.985 292.906L215.844 269.828L60.7649 222.982V223.001ZM368.39 220.711L399.967 291.852L452.372 258.744L368.39 220.711ZM-79.1865 265.086L-46.6687 275.425L-62.9909 193.654L-79.1865 265.086ZM-38.9419 198.233L-45.782 275.334L58.8287 222.455L-38.9238 198.233H-38.9419ZM-62.5023 192.4L-46.343 273.426L-39.6476 198.069L-62.5023 192.4ZM233.65 179.989L217.762 269.356L366.472 220.002L233.65 179.989ZM60.7288 222.237L216.098 269.156L130.94 178.244L60.7288 222.237ZM131.573 177.844L217.075 269.12L232.963 179.771L162.426 158.51L131.591 177.826L131.573 177.844ZM467.156 251.53L499.782 261.997L494.607 236.702L467.156 251.53ZM373.584 222.274L452.698 258.108L451.395 247.259L373.584 222.292V222.274ZM456.154 248.768L453.711 257.981L465.31 251.711L456.154 248.768ZM452.155 247.478L453.277 256.763L455.466 248.531L452.155 247.478ZM456.335 248.059L466.197 251.221L494.462 235.957L479.262 161.599L456.335 248.059ZM452.064 246.696L455.647 247.841L478.737 160.745L443.939 179.425L452.046 246.696H452.064ZM368.589 219.893L451.304 246.442L443.27 179.789L368.589 219.893ZM480.493 163.998L495.132 235.593L506.387 229.506L480.493 163.979V163.998ZM-10.0432 151.841L59.7154 221.692L92.4684 137.685L-10.0432 151.841ZM-38.8695 197.506L58.6839 221.692L-10.8394 152.077L-36.6075 171.993L-38.8695 197.506ZM93.1742 137.903L60.6021 221.456L130.451 177.699L93.1742 137.903ZM233.777 179.262L366.309 219.184L246.788 106.103L233.777 179.262ZM247.783 106.049L367.305 219.13L365.549 133.688L247.783 106.049ZM408.689 143.827L368.553 219.112L443.179 179.025L439.814 151.132L408.689 143.827ZM366.273 133.869L368.01 218.603L407.965 143.664L366.273 133.869ZM-62.1585 191.727L-39.5933 197.324L-37.4037 172.575L-62.1766 191.727H-62.1585ZM-34.7618 142.955L-61.5071 190.074L-36.9332 167.45L-34.7618 142.973V142.955ZM-37.0237 168.504L-56.5127 186.458L-37.2952 171.593L-37.0237 168.504ZM163.24 158.019L233.089 179.062L246.064 106.121L163.24 158.001V158.019ZM440.556 151.296L443.849 178.644L478.285 160.145L440.556 151.296ZM94.2237 137.976L131.066 177.299L161.485 158.237L94.2237 137.976ZM-36.2275 167.777L-36.517 170.994L-11.5089 151.659L-16.3947 149.515L-36.2275 167.777ZM-33.9294 141.865L-36.137 166.705L-17.1366 149.206L-33.9294 141.865ZM440.465 150.533L478.448 159.455L434.114 97.7444L440.483 150.551L440.465 150.533ZM94.5133 137.304L162.299 157.728L244.634 106.14L94.5133 137.304ZM13.8792 121.64L-9.95269 151.096L92.0523 137.013L37.2045 100.179L13.8973 121.64H13.8792ZM-15.8157 148.988L-11.0022 151.096L-7.4193 141.265L-15.7976 148.988H-15.8157ZM409.051 143.155L439.723 150.351L433.354 97.5445L409.033 143.137L409.051 143.155ZM-6.27928 140.211L-9.71745 149.679L10.242 125.02L-6.26119 140.211H-6.27928ZM-33.6579 141.192L-16.5395 148.679L-6.89453 139.793L12.7573 85.842L-33.6579 141.192ZM366.255 133.106L408.327 142.973L432.974 96.7631L365.585 100.016L366.255 133.106ZM13.9697 84.5882L-5.7545 138.721L13.3364 121.149L32.7168 97.1992L13.9516 84.6064L13.9697 84.5882ZM130.071 56.6768L93.6809 136.74L245.358 105.267L130.089 56.6768H130.071ZM37.7473 99.6705L92.6132 136.504L84.3073 56.804L37.7654 99.6705H37.7473ZM84.9588 56.2043L93.2647 135.886L129.402 56.4042L98.7657 43.4843L84.9588 56.2043ZM249.158 105.631L365.531 132.943L364.862 100.052L249.158 105.631ZM33.332 97.599L17.0098 117.788L36.5711 99.7796L33.332 97.6172V97.599ZM333.484 59.5479L248.163 104.94L364.844 99.3253L364.265 70.9959L333.484 59.5479ZM130.361 56.0226L245.847 104.704L216.496 37.3423L139.028 36.9062L130.343 56.0044L130.361 56.0226ZM274.908 37.7603L247.276 104.595L332.579 59.2026L274.908 37.7603ZM217.31 37.3423L246.553 104.45L274.166 37.6512L217.31 37.3423ZM364.988 71.2503L365.567 99.2889L431.797 96.0908L364.988 71.2503ZM33.8025 97.0175L37.1321 99.2526L84.2169 55.9136L82.2625 37.1606L33.8206 97.0357L33.8025 97.0175ZM14.4402 84.0249L33.1872 96.6177L80.6158 37.9965L14.4221 84.0249H14.4402ZM364.97 70.469L431.453 95.1822L364.409 43.6115L364.952 70.469H364.97ZM334.334 59.0936L364.246 70.2146L363.704 43.4843L334.352 59.1118L334.334 59.0936ZM277.134 37.8148L333.43 58.7483L362.744 43.1572L277.134 37.8148ZM99.3448 42.9391L129.691 55.7319L138.25 36.9062L106.094 36.7245L99.3448 42.9391ZM82.9321 36.8153L84.8683 55.2958L98.0419 43.1754L82.9502 36.8153H82.9321ZM84.3254 36.6155L98.6029 42.6302L105.009 36.7245L84.3073 36.6155H84.3254ZM275.288 36.9789L359.849 42.2486L282.382 23.7864L275.288 36.9789ZM282.726 23.1322L359.27 41.3764L288.172 12.9925L282.726 23.1322ZM216.984 36.6155L273.008 36.9244L203.268 5.12426L216.984 36.6336V36.6155ZM206.091 5.61489L274.528 36.8335L281.64 23.6228L206.091 5.61489ZM139.372 36.1975L216.188 36.6155L202.327 4.79717L150.447 11.8477L139.372 36.1975ZM84.3978 35.8886L105.805 35.9976L121.928 21.1515L84.3978 35.8704V35.8886Z" fill="#FC7AF6" fill-opacity="0.15"/>
<path d="M82.5159 40.6314C84.9344 40.6314 86.895 38.6626 86.895 36.2339C86.895 33.8053 84.9344 31.8364 82.5159 31.8364C80.0973 31.8364 78.1367 33.8053 78.1367 36.2339C78.1367 38.6626 80.0973 40.6314 82.5159 40.6314Z" fill="#FC7AF6" fill-opacity="0.15"/>
<path d="M123.611 23.4593C125.45 23.4593 126.94 21.9624 126.94 20.1158C126.94 18.2692 125.45 16.7722 123.611 16.7722C121.772 16.7722 120.281 18.2692 120.281 20.1158C120.281 21.9624 121.772 23.4593 123.611 23.4593Z" fill="#FC7AF6" fill-opacity="0.15"/>
<path d="M7.40085 516.925C7.40085 519.36 5.44653 521.322 3.02172 521.322C0.596908 521.322 -1.35742 519.36 -1.35742 516.925C-1.35742 514.49 0.596908 512.527 3.02172 512.527C5.44653 512.527 7.40085 514.49 7.40085 516.925Z" fill="#FC7AF6" fill-opacity="0.15"/>
<path d="M141.145 554.176C141.145 556.611 139.191 558.574 136.766 558.574C134.342 558.574 132.387 556.611 132.387 554.176C132.387 551.741 134.342 549.779 136.766 549.779C139.191 549.779 141.145 551.741 141.145 554.176Z" fill="#FC7AF6" fill-opacity="0.15"/>
<path d="M58.6658 514.162C61.0843 514.162 63.0449 512.194 63.0449 509.765C63.0449 507.336 61.0843 505.367 58.6658 505.367C56.2472 505.367 54.2866 507.336 54.2866 509.765C54.2866 512.194 56.2472 514.162 58.6658 514.162Z" fill="#FC7AF6" fill-opacity="0.15"/>
<path d="M358.148 504.168C360.567 504.168 362.527 502.199 362.527 499.771C362.527 497.342 360.567 495.373 358.148 495.373C355.73 495.373 353.769 497.342 353.769 499.771C353.769 502.199 355.73 504.168 358.148 504.168Z" fill="#FC7AF6" fill-opacity="0.15"/>
<path d="M428.269 346.621C428.269 349.056 426.314 351.019 423.889 351.019C421.465 351.019 419.51 349.056 419.51 346.621C419.51 344.186 421.465 342.224 423.889 342.224C426.314 342.224 428.269 344.186 428.269 346.621Z" fill="#FC7AF6" fill-opacity="0.15"/>
<path d="M345.825 329.249C345.825 331.684 343.871 333.647 341.446 333.647C339.021 333.647 337.067 331.684 337.067 329.249C337.067 326.814 339.021 324.852 341.446 324.852C343.871 324.852 345.825 326.814 345.825 329.249Z" fill="#FC7AF6" fill-opacity="0.15"/>
<path d="M358.148 504.168C360.567 504.168 362.527 502.199 362.527 499.771C362.527 497.342 360.567 495.373 358.148 495.373C355.73 495.373 353.769 497.342 353.769 499.771C353.769 502.199 355.73 504.168 358.148 504.168Z" fill="#FC7AF6" fill-opacity="0.15"/>
<path d="M249.412 444.039C249.412 446.474 247.457 448.436 245.032 448.436C242.608 448.436 240.653 446.474 240.653 444.039C240.653 441.604 242.608 439.641 245.032 439.641C247.457 439.641 249.412 441.604 249.412 444.039Z" fill="#FC7AF6" fill-opacity="0.15"/>
<path d="M477.724 398.919C477.724 401.354 475.77 403.316 473.345 403.316C470.92 403.316 468.966 401.354 468.966 398.919C468.966 396.484 470.92 394.521 473.345 394.521C475.77 394.521 477.724 396.484 477.724 398.919Z" fill="#FC7AF6" fill-opacity="0.15"/>
<path d="M457.511 258.689C457.511 261.124 455.557 263.087 453.132 263.087C450.707 263.087 448.753 261.124 448.753 258.689C448.753 256.254 450.707 254.292 453.132 254.292C455.557 254.292 457.511 256.254 457.511 258.689Z" fill="#FC7AF6" fill-opacity="0.15"/>
<path d="M514.621 337.19C517.039 337.19 519 335.221 519 332.793C519 330.364 517.039 328.395 514.621 328.395C512.202 328.395 510.242 330.364 510.242 332.793C510.242 335.221 512.202 337.19 514.621 337.19Z" fill="#FC7AF6" fill-opacity="0.15"/>
<path d="M428.269 346.621C428.269 349.056 426.314 351.019 423.889 351.019C421.465 351.019 419.51 349.056 419.51 346.621C419.51 344.186 421.465 342.224 423.889 342.224C426.314 342.224 428.269 344.186 428.269 346.621Z" fill="#FC7AF6" fill-opacity="0.15"/>
<path d="M505.935 394.085C505.935 395.92 504.451 397.411 502.623 397.411C500.796 397.411 499.312 395.92 499.312 394.085C499.312 392.25 500.796 390.76 502.623 390.76C504.451 390.76 505.935 392.25 505.935 394.085Z" fill="#FC7AF6" fill-opacity="0.15"/>
<path d="M514.621 337.19C517.039 337.19 519 335.221 519 332.793C519 330.364 517.039 328.395 514.621 328.395C512.202 328.395 510.242 330.364 510.242 332.793C510.242 335.221 512.202 337.19 514.621 337.19Z" fill="#FC7AF6" fill-opacity="0.15"/>
<path d="M480.674 450.762C483.092 450.762 485.053 448.793 485.053 446.365C485.053 443.936 483.092 441.967 480.674 441.967C478.255 441.967 476.294 443.936 476.294 446.365C476.294 448.793 478.255 450.762 480.674 450.762Z" fill="#FC7AF6" fill-opacity="0.15"/>
<path d="M477.724 398.919C477.724 401.354 475.77 403.316 473.345 403.316C470.92 403.316 468.966 401.354 468.966 398.919C468.966 396.484 470.92 394.521 473.345 394.521C475.77 394.521 477.724 396.484 477.724 398.919Z" fill="#FC7AF6" fill-opacity="0.15"/>
<path d="M434.819 514.762C434.819 517.197 432.865 519.16 430.44 519.16C428.015 519.16 426.061 517.197 426.061 514.762C426.061 512.327 428.015 510.365 430.44 510.365C432.865 510.365 434.819 512.327 434.819 514.762Z" fill="#FC7AF6" fill-opacity="0.15"/>
<path d="M480.673 451.271C483.372 451.271 485.559 449.074 485.559 446.365C485.559 443.655 483.372 441.458 480.673 441.458C477.975 441.458 475.788 443.655 475.788 446.365C475.788 449.074 477.975 451.271 480.673 451.271Z" fill="#FC7AF6" fill-opacity="0.15"/>
<path d="M358.148 504.168C360.567 504.168 362.527 502.199 362.527 499.771C362.527 497.342 360.567 495.373 358.148 495.373C355.73 495.373 353.769 497.342 353.769 499.771C353.769 502.199 355.73 504.168 358.148 504.168Z" fill="#FC7AF6" fill-opacity="0.15"/>
<path d="M434.819 514.762C434.819 517.197 432.865 519.16 430.44 519.16C428.015 519.16 426.061 517.197 426.061 514.762C426.061 512.327 428.015 510.365 430.44 510.365C432.865 510.365 434.819 512.327 434.819 514.762Z" fill="#FC7AF6" fill-opacity="0.15"/>
<path d="M361.025 570.621C361.025 573.529 358.673 575.891 355.778 575.891C352.882 575.891 350.53 573.529 350.53 570.621C350.53 567.714 352.882 565.352 355.778 565.352C358.673 565.352 361.025 567.714 361.025 570.621Z" fill="#FC7AF6" fill-opacity="0.15"/>
<path d="M358.148 506.458C361.826 506.458 364.807 503.464 364.807 499.771C364.807 496.077 361.826 493.083 358.148 493.083C354.47 493.083 351.489 496.077 351.489 499.771C351.489 503.464 354.47 506.458 358.148 506.458Z" fill="#FC7AF6" fill-opacity="0.15"/>
<path d="M287.629 597.406C287.629 599.841 285.675 601.804 283.25 601.804C280.825 601.804 278.871 599.841 278.871 597.406C278.871 594.971 280.825 593.009 283.25 593.009C285.675 593.009 287.629 594.971 287.629 597.406Z" fill="#FC7AF6" fill-opacity="0.15"/>
<path d="M434.819 514.762C434.819 517.197 432.865 519.16 430.44 519.16C428.015 519.16 426.061 517.197 426.061 514.762C426.061 512.327 428.015 510.365 430.44 510.365C432.865 510.365 434.819 512.327 434.819 514.762Z" fill="#FC7AF6" fill-opacity="0.15"/>
<path d="M141.145 554.176C141.145 556.611 139.191 558.574 136.766 558.574C134.342 558.574 132.387 556.611 132.387 554.176C132.387 551.741 134.342 549.779 136.766 549.779C139.191 549.779 141.145 551.741 141.145 554.176Z" fill="#FC7AF6" fill-opacity="0.15"/>
<path d="M249.412 444.039C249.412 446.474 247.457 448.436 245.032 448.436C242.608 448.436 240.653 446.474 240.653 444.039C240.653 441.604 242.608 439.641 245.032 439.641C247.457 439.641 249.412 441.604 249.412 444.039Z" fill="#FC7AF6" fill-opacity="0.15"/>
<path d="M287.629 597.406C287.629 599.841 285.675 601.804 283.25 601.804C280.825 601.804 278.871 599.841 278.871 597.406C278.871 594.971 280.825 593.009 283.25 593.009C285.675 593.009 287.629 594.971 287.629 597.406Z" fill="#FC7AF6" fill-opacity="0.15"/>
<path d="M144.167 554.176C144.167 558.283 140.856 561.608 136.766 561.608C132.677 561.608 129.365 558.283 129.365 554.176C129.365 550.069 132.677 546.744 136.766 546.744C140.856 546.744 144.167 550.069 144.167 554.176Z" fill="#FC7AF6" fill-opacity="0.15"/>
<path d="M194.075 603.603C194.075 606.038 192.121 608 189.696 608C187.271 608 185.317 606.038 185.317 603.603C185.317 601.168 187.271 599.205 189.696 599.205C192.121 599.205 194.075 601.168 194.075 603.603Z" fill="#FC7AF6" fill-opacity="0.15"/>
<path d="M120.933 587.448C120.933 589.883 118.979 591.846 116.554 591.846C114.129 591.846 112.175 589.883 112.175 587.448C112.175 585.013 114.129 583.051 116.554 583.051C118.979 583.051 120.933 585.013 120.933 587.448Z" fill="#FC7AF6" fill-opacity="0.15"/>
<path d="M130.288 435.062C130.288 437.497 128.334 439.46 125.909 439.46C123.484 439.46 121.53 437.497 121.53 435.062C121.53 432.627 123.484 430.665 125.909 430.665C128.334 430.665 130.288 432.627 130.288 435.062Z" fill="#FC7AF6" fill-opacity="0.15"/>
<path d="M249.412 444.039C249.412 446.474 247.457 448.436 245.032 448.436C242.608 448.436 240.653 446.474 240.653 444.039C240.653 441.604 242.608 439.641 245.032 439.641C247.457 439.641 249.412 441.604 249.412 444.039Z" fill="#FC7AF6" fill-opacity="0.15"/>
<path d="M345.825 329.249C345.825 331.684 343.871 333.647 341.446 333.647C339.021 333.647 337.067 331.684 337.067 329.249C337.067 326.814 339.021 324.852 341.446 324.852C343.871 324.852 345.825 326.814 345.825 329.249Z" fill="#FC7AF6" fill-opacity="0.15"/>
<path d="M457.511 258.689C457.511 261.124 455.557 263.087 453.132 263.087C450.707 263.087 448.753 261.124 448.753 258.689C448.753 256.254 450.707 254.292 453.132 254.292C455.557 254.292 457.511 256.254 457.511 258.689Z" fill="#FC7AF6" fill-opacity="0.15"/>
<path d="M429.77 346.621C429.77 349.892 427.128 352.527 423.889 352.527C420.65 352.527 418.008 349.874 418.008 346.621C418.008 343.369 420.65 340.716 423.889 340.716C427.128 340.716 429.77 343.369 429.77 346.621Z" fill="#FC7AF6" fill-opacity="0.15"/>
<path d="M372.045 219.984C372.045 222.419 370.091 224.382 367.666 224.382C365.241 224.382 363.287 222.419 363.287 219.984C363.287 217.549 365.241 215.587 367.666 215.587C370.091 215.587 372.045 217.549 372.045 219.984Z" fill="#FC7AF6" fill-opacity="0.15"/>
<path d="M348.431 329.249C348.431 333.12 345.3 336.264 341.446 336.264C337.591 336.264 334.461 333.12 334.461 329.249C334.461 325.379 337.591 322.235 341.446 322.235C345.3 322.235 348.431 325.379 348.431 329.249Z" fill="#FC7AF6" fill-opacity="0.15"/>
<path d="M221.671 269.901C221.671 272.336 219.717 274.299 217.292 274.299C214.867 274.299 212.913 272.336 212.913 269.901C212.913 267.466 214.867 265.504 217.292 265.504C219.717 265.504 221.671 267.466 221.671 269.901Z" fill="#FC7AF6" fill-opacity="0.15"/>
<path d="M251.927 444.039C251.927 447.855 248.851 450.944 245.051 450.944C241.251 450.944 238.174 447.855 238.174 444.039C238.174 440.223 241.251 437.134 245.051 437.134C248.851 437.134 251.927 440.223 251.927 444.039Z" fill="#FC7AF6" fill-opacity="0.15"/>
<path d="M109.822 297.722C112.241 297.722 114.201 295.753 114.201 293.324C114.201 290.896 112.241 288.927 109.822 288.927C107.403 288.927 105.443 290.896 105.443 293.324C105.443 295.753 107.403 297.722 109.822 297.722Z" fill="#FC7AF6" fill-opacity="0.15"/>
<path d="M130.288 435.062C130.288 437.497 128.334 439.46 125.909 439.46C123.484 439.46 121.53 437.497 121.53 435.062C121.53 432.627 123.484 430.665 125.909 430.665C128.334 430.665 130.288 432.627 130.288 435.062Z" fill="#FC7AF6" fill-opacity="0.15"/>
<path d="M58.6658 514.162C61.0843 514.162 63.0449 512.194 63.0449 509.765C63.0449 507.336 61.0843 505.367 58.6658 505.367C56.2472 505.367 54.2866 507.336 54.2866 509.765C54.2866 512.194 56.2472 514.162 58.6658 514.162Z" fill="#FC7AF6" fill-opacity="0.15"/>
<path d="M121.928 587.448C121.928 590.428 119.521 592.827 116.572 592.827C113.622 592.827 111.215 590.41 111.215 587.448C111.215 584.486 113.622 582.069 116.572 582.069C119.521 582.069 121.928 584.486 121.928 587.448Z" fill="#FC7AF6" fill-opacity="0.15"/>
<path d="M7.40085 516.925C7.40085 519.36 5.44653 521.322 3.02172 521.322C0.596908 521.322 -1.35742 519.36 -1.35742 516.925C-1.35742 514.49 0.596908 512.527 3.02172 512.527C5.44653 512.527 7.40085 514.49 7.40085 516.925Z" fill="#FC7AF6" fill-opacity="0.15"/>
<path d="M58.6658 514.162C61.0843 514.162 63.0449 512.194 63.0449 509.765C63.0449 507.336 61.0843 505.367 58.6658 505.367C56.2472 505.367 54.2866 507.336 54.2866 509.765C54.2866 512.194 56.2472 514.162 58.6658 514.162Z" fill="#FC7AF6" fill-opacity="0.15"/>
<path d="M52.477 381.038C52.477 383.473 50.5227 385.436 48.0979 385.436C45.6731 385.436 43.7188 383.473 43.7188 381.038C43.7188 378.603 45.6731 376.641 48.0979 376.641C50.5227 376.641 52.477 378.603 52.477 381.038Z" fill="#FC7AF6" fill-opacity="0.15"/>
<path d="M130.288 435.062C130.288 437.497 128.334 439.46 125.909 439.46C123.484 439.46 121.53 437.497 121.53 435.062C121.53 432.627 123.484 430.665 125.909 430.665C128.334 430.665 130.288 432.627 130.288 435.062Z" fill="#FC7AF6" fill-opacity="0.15"/>
<path d="M58.6658 514.162C61.0843 514.162 63.0449 512.194 63.0449 509.765C63.0449 507.336 61.0843 505.367 58.6658 505.367C56.2472 505.367 54.2866 507.336 54.2866 509.765C54.2866 512.194 56.2472 514.162 58.6658 514.162Z" fill="#FC7AF6" fill-opacity="0.15"/>
<path d="M7.40085 516.925C7.40085 519.36 5.44653 521.322 3.02172 521.322C0.596908 521.322 -1.35742 519.36 -1.35742 516.925C-1.35742 514.49 0.596908 512.527 3.02172 512.527C5.44653 512.527 7.40085 514.49 7.40085 516.925Z" fill="#FC7AF6" fill-opacity="0.15"/>
<path d="M52.477 381.038C52.477 383.473 50.5227 385.436 48.0979 385.436C45.6731 385.436 43.7188 383.473 43.7188 381.038C43.7188 378.603 45.6731 376.641 48.0979 376.641C50.5227 376.641 52.477 378.603 52.477 381.038Z" fill="#FC7AF6" fill-opacity="0.15"/>
<path d="M221.671 269.901C221.671 272.336 219.717 274.299 217.292 274.299C214.867 274.299 212.913 272.336 212.913 269.901C212.913 267.466 214.867 265.504 217.292 265.504C219.717 265.504 221.671 267.466 221.671 269.901Z" fill="#FC7AF6" fill-opacity="0.15"/>
<path d="M372.045 219.984C372.045 222.419 370.091 224.382 367.666 224.382C365.241 224.382 363.287 222.419 363.287 219.984C363.287 217.549 365.241 215.587 367.666 215.587C370.091 215.587 372.045 217.549 372.045 219.984Z" fill="#FC7AF6" fill-opacity="0.15"/>
<path d="M516.539 266.903C516.539 268.393 515.345 269.592 513.861 269.592C512.377 269.592 511.183 268.393 511.183 266.903C511.183 265.413 512.377 264.214 513.861 264.214C515.345 264.214 516.539 265.413 516.539 266.903Z" fill="#FC7AF6" fill-opacity="0.15"/>
<path d="M514.621 337.19C517.039 337.19 519 335.221 519 332.793C519 330.364 517.039 328.395 514.621 328.395C512.202 328.395 510.242 330.364 510.242 332.793C510.242 335.221 512.202 337.19 514.621 337.19Z" fill="#FC7AF6" fill-opacity="0.15"/>
<path d="M483.695 160.018C483.695 162.453 481.741 164.416 479.316 164.416C476.891 164.416 474.937 162.453 474.937 160.018C474.937 157.583 476.891 155.621 479.316 155.621C481.741 155.621 483.695 157.583 483.695 160.018Z" fill="#FC7AF6" fill-opacity="0.15"/>
<path d="M372.045 219.984C372.045 222.419 370.091 224.382 367.666 224.382C365.241 224.382 363.287 222.419 363.287 219.984C363.287 217.549 365.241 215.587 367.666 215.587C370.091 215.587 372.045 217.549 372.045 219.984Z" fill="#FC7AF6" fill-opacity="0.15"/>
<path d="M457.511 258.689C457.511 261.124 455.557 263.087 453.132 263.087C450.707 263.087 448.753 261.124 448.753 258.689C448.753 256.254 450.707 254.292 453.132 254.292C455.557 254.292 457.511 256.254 457.511 258.689Z" fill="#FC7AF6" fill-opacity="0.15"/>
<path d="M511.219 229.688C511.219 232.123 509.264 234.085 506.84 234.085C504.415 234.085 502.46 232.123 502.46 229.688C502.46 227.253 504.415 225.29 506.84 225.29C509.264 225.29 511.219 227.253 511.219 229.688Z" fill="#FC7AF6" fill-opacity="0.15"/>
<path d="M483.695 160.018C483.695 162.453 481.741 164.416 479.316 164.416C476.891 164.416 474.937 162.453 474.937 160.018C474.937 157.583 476.891 155.621 479.316 155.621C481.741 155.621 483.695 157.583 483.695 160.018Z" fill="#FC7AF6" fill-opacity="0.15"/>
<path d="M457.511 258.689C457.511 261.124 455.557 263.087 453.132 263.087C450.707 263.087 448.753 261.124 448.753 258.689C448.753 256.254 450.707 254.292 453.132 254.292C455.557 254.292 457.511 256.254 457.511 258.689Z" fill="#FC7AF6" fill-opacity="0.15"/>
<path d="M250.932 105.377C250.932 107.811 248.977 109.774 246.552 109.774C244.128 109.774 242.173 107.811 242.173 105.377C242.173 102.942 244.128 100.979 246.552 100.979C248.977 100.979 250.932 102.942 250.932 105.377Z" fill="#FC7AF6" fill-opacity="0.15"/>
<path d="M483.695 160.018C483.695 162.453 481.741 164.416 479.316 164.416C476.891 164.416 474.937 162.453 474.937 160.018C474.937 157.583 476.891 155.621 479.316 155.621C481.741 155.621 483.695 157.583 483.695 160.018Z" fill="#FC7AF6" fill-opacity="0.15"/>
<path d="M372.045 219.984C372.045 222.419 370.091 224.382 367.666 224.382C365.241 224.382 363.287 222.419 363.287 219.984C363.287 217.549 365.241 215.587 367.666 215.587C370.091 215.587 372.045 217.549 372.045 219.984Z" fill="#FC7AF6" fill-opacity="0.15"/>
<path d="M368.408 42.8665C368.408 45.3015 366.454 47.264 364.029 47.264C361.604 47.264 359.65 45.3015 359.65 42.8665C359.65 40.4315 361.604 38.469 364.029 38.469C366.454 38.469 368.408 40.4315 368.408 42.8665Z" fill="#FC7AF6" fill-opacity="0.15"/>
<path d="M437.045 96.3816C437.045 98.3078 435.489 99.8524 433.589 99.8524C431.689 99.8524 430.132 98.2897 430.132 96.3816C430.132 94.4736 431.689 92.9109 433.589 92.9109C435.489 92.9109 437.045 94.4736 437.045 96.3816Z" fill="#FC7AF6" fill-opacity="0.15"/>
<path d="M274.691 41.7037C277.11 41.7037 279.07 39.7349 279.07 37.3062C279.07 34.8775 277.11 32.9087 274.691 32.9087C272.273 32.9087 270.312 34.8775 270.312 37.3062C270.312 39.7349 272.273 41.7037 274.691 41.7037Z" fill="#FC7AF6" fill-opacity="0.15"/>
<path d="M292.407 12.5201C292.407 14.955 290.452 16.9176 288.028 16.9176C285.603 16.9176 283.648 14.955 283.648 12.5201C283.648 10.0851 285.603 8.12256 288.028 8.12256C290.452 8.12256 292.407 10.0851 292.407 12.5201Z" fill="#FC7AF6" fill-opacity="0.15"/>
<path d="M333.538 61.8195C334.997 61.8195 336.18 60.6317 336.18 59.1665C336.18 57.7012 334.997 56.5134 333.538 56.5134C332.079 56.5134 330.896 57.7012 330.896 59.1665C330.896 60.6317 332.079 61.8195 333.538 61.8195Z" fill="#FC7AF6" fill-opacity="0.15"/>
<path d="M367.25 70.7962C367.25 72.2136 366.11 73.3402 364.717 73.3402C363.324 73.3402 362.184 72.1954 362.184 70.7962C362.184 69.397 363.324 68.2522 364.717 68.2522C366.11 68.2522 367.25 69.397 367.25 70.7962Z" fill="#FC7AF6" fill-opacity="0.15"/>
<path d="M365.513 135.832C366.912 135.832 368.046 134.693 368.046 133.288C368.046 131.883 366.912 130.744 365.513 130.744C364.114 130.744 362.979 131.883 362.979 133.288C362.979 134.693 364.114 135.832 365.513 135.832Z" fill="#FC7AF6" fill-opacity="0.15"/>
<path d="M365.278 101.96C366.677 101.96 367.811 100.821 367.811 99.4163C367.811 98.0113 366.677 96.8723 365.278 96.8723C363.879 96.8723 362.745 98.0113 362.745 99.4163C362.745 100.821 363.879 101.96 365.278 101.96Z" fill="#FC7AF6" fill-opacity="0.15"/>
<path d="M408.218 146.008C409.618 146.008 410.752 144.869 410.752 143.464C410.752 142.059 409.618 140.92 408.218 140.92C406.819 140.92 405.685 142.059 405.685 143.464C405.685 144.869 406.819 146.008 408.218 146.008Z" fill="#FC7AF6" fill-opacity="0.15"/>
<path d="M439.977 153.149C441.376 153.149 442.51 152.01 442.51 150.605C442.51 149.2 441.376 148.061 439.977 148.061C438.578 148.061 437.443 149.2 437.443 150.605C437.443 152.01 438.578 153.149 439.977 153.149Z" fill="#FC7AF6" fill-opacity="0.15"/>
<path d="M446.346 179.207C446.346 180.625 445.206 181.751 443.813 181.751C442.419 181.751 441.279 180.607 441.279 179.207C441.279 177.808 442.419 176.663 443.813 176.663C445.206 176.663 446.346 177.808 446.346 179.207Z" fill="#FC7AF6" fill-opacity="0.15"/>
<path d="M451.63 249.113C453.029 249.113 454.163 247.974 454.163 246.569C454.163 245.164 453.029 244.025 451.63 244.025C450.231 244.025 449.097 245.164 449.097 246.569C449.097 247.974 450.231 249.113 451.63 249.113Z" fill="#FC7AF6" fill-opacity="0.15"/>
<path d="M468.948 251.73C468.948 253.147 467.808 254.274 466.414 254.274C465.021 254.274 463.881 253.129 463.881 251.73C463.881 250.331 465.021 249.186 466.414 249.186C467.808 249.186 468.948 250.331 468.948 251.73Z" fill="#FC7AF6" fill-opacity="0.15"/>
<path d="M400.057 294.542C401.456 294.542 402.591 293.403 402.591 291.998C402.591 290.593 401.456 289.454 400.057 289.454C398.658 289.454 397.524 290.593 397.524 291.998C397.524 293.403 398.658 294.542 400.057 294.542Z" fill="#FC7AF6" fill-opacity="0.15"/>
<path d="M464.912 343.005C466.311 343.005 467.446 341.866 467.446 340.461C467.446 339.056 466.311 337.917 464.912 337.917C463.513 337.917 462.379 339.056 462.379 340.461C462.379 341.866 463.513 343.005 464.912 343.005Z" fill="#FC7AF6" fill-opacity="0.15"/>
<path d="M472.277 374.387C472.277 375.805 471.137 376.931 469.744 376.931C468.351 376.931 467.21 375.786 467.21 374.387C467.21 372.988 468.351 371.843 469.744 371.843C471.137 371.843 472.277 372.988 472.277 374.387Z" fill="#FC7AF6" fill-opacity="0.15"/>
<path d="M395.244 416.6C396.643 416.6 397.778 415.461 397.778 414.056C397.778 412.651 396.643 411.512 395.244 411.512C393.845 411.512 392.711 412.651 392.711 414.056C392.711 415.461 393.845 416.6 395.244 416.6Z" fill="#FC7AF6" fill-opacity="0.15"/>
<path d="M350.91 426.285C352.309 426.285 353.443 425.146 353.443 423.741C353.443 422.336 352.309 421.197 350.91 421.197C349.511 421.197 348.376 422.336 348.376 423.741C348.376 425.146 349.511 426.285 350.91 426.285Z" fill="#FC7AF6" fill-opacity="0.15"/>
<path d="M268.267 539.566C269.666 539.566 270.801 538.427 270.801 537.022C270.801 535.617 269.666 534.478 268.267 534.478C266.868 534.478 265.734 535.617 265.734 537.022C265.734 538.427 266.868 539.566 268.267 539.566Z" fill="#FC7AF6" fill-opacity="0.15"/>
<path d="M259.527 505.64C260.926 505.64 262.06 504.501 262.06 503.096C262.06 501.691 260.926 500.552 259.527 500.552C258.128 500.552 256.994 501.691 256.994 503.096C256.994 504.501 258.128 505.64 259.527 505.64Z" fill="#FC7AF6" fill-opacity="0.15"/>
<path d="M184.43 508.366C185.829 508.366 186.964 507.227 186.964 505.822C186.964 504.417 185.829 503.278 184.43 503.278C183.031 503.278 181.897 504.417 181.897 505.822C181.897 507.227 183.031 508.366 184.43 508.366Z" fill="#FC7AF6" fill-opacity="0.15"/>
<path d="M121.222 549.433C121.222 550.851 120.082 551.977 118.689 551.977C117.296 551.977 116.156 550.833 116.156 549.433C116.156 548.034 117.296 546.889 118.689 546.889C120.082 546.889 121.222 548.034 121.222 549.433Z" fill="#FC7AF6" fill-opacity="0.15"/>
<path d="M80.0729 541.074C81.4721 541.074 82.6063 539.935 82.6063 538.53C82.6063 537.125 81.4721 535.986 80.0729 535.986C78.6738 535.986 77.5396 537.125 77.5396 538.53C77.5396 539.935 78.6738 541.074 80.0729 541.074Z" fill="#FC7AF6" fill-opacity="0.15"/>
<path d="M121.693 510.492C123.092 510.492 124.226 509.353 124.226 507.948C124.226 506.543 123.092 505.404 121.693 505.404C120.294 505.404 119.159 506.543 119.159 507.948C119.159 509.353 120.294 510.492 121.693 510.492Z" fill="#FC7AF6" fill-opacity="0.15"/>
<path d="M55.1735 439.187C55.1735 440.604 54.0334 441.731 52.6401 441.731C51.2467 441.731 50.1067 440.586 50.1067 439.187C50.1067 437.788 51.2467 436.643 52.6401 436.643C54.0334 436.643 55.1735 437.788 55.1735 439.187Z" fill="#FC7AF6" fill-opacity="0.15"/>
<path d="M4.37885 334.828C5.778 334.828 6.91224 333.689 6.91224 332.284C6.91224 330.879 5.778 329.74 4.37885 329.74C2.9797 329.74 1.84546 330.879 1.84546 332.284C1.84546 333.689 2.9797 334.828 4.37885 334.828Z" fill="#FC7AF6" fill-opacity="0.15"/>
<path d="M14.3315 123.439C15.7306 123.439 16.8649 122.3 16.8649 120.895C16.8649 119.49 15.7306 118.351 14.3315 118.351C12.9323 118.351 11.7981 119.49 11.7981 120.895C11.7981 122.3 12.9323 123.439 14.3315 123.439Z" fill="#FC7AF6" fill-opacity="0.15"/>
<path d="M36.9511 102.542C38.3502 102.542 39.4845 101.403 39.4845 99.9976C39.4845 98.5926 38.3502 97.4536 36.9511 97.4536C35.5519 97.4536 34.4177 98.5926 34.4177 99.9976C34.4177 101.403 35.5519 102.542 36.9511 102.542Z" fill="#FC7AF6" fill-opacity="0.15"/>
<path d="M132.369 56.2044C132.369 57.6218 131.229 58.7484 129.836 58.7484C128.443 58.7484 127.302 57.6036 127.302 56.2044C127.302 54.8052 128.443 53.6604 129.836 53.6604C131.229 53.6604 132.369 54.8052 132.369 56.2044Z" fill="#FC7AF6" fill-opacity="0.15"/>
<path d="M141.417 36.3975C141.417 37.8149 140.277 38.9415 138.883 38.9415C137.49 38.9415 136.35 37.7967 136.35 36.3975C136.35 34.9983 137.49 33.8535 138.883 33.8535C140.277 33.8535 141.417 34.9983 141.417 36.3975Z" fill="#FC7AF6" fill-opacity="0.15"/>
<path d="M98.7656 46.2101C100.165 46.2101 101.299 45.0711 101.299 43.6661C101.299 42.2611 100.165 41.1221 98.7656 41.1221C97.3664 41.1221 96.2322 42.2611 96.2322 43.6661C96.2322 45.0711 97.3664 46.2101 98.7656 46.2101Z" fill="#FC7AF6" fill-opacity="0.15"/>
<path d="M84.9045 58.9301C86.3036 58.9301 87.4379 57.7911 87.4379 56.3861C87.4379 54.981 86.3036 53.842 84.9045 53.842C83.5053 53.842 82.3711 54.981 82.3711 56.3861C82.3711 57.7911 83.5053 58.9301 84.9045 58.9301Z" fill="#FC7AF6" fill-opacity="0.15"/>
<path d="M106.619 38.6327C108.018 38.6327 109.152 37.4937 109.152 36.0887C109.152 34.6837 108.018 33.5447 106.619 33.5447C105.22 33.5447 104.086 34.6837 104.086 36.0887C104.086 37.4937 105.22 38.6327 106.619 38.6327Z" fill="#FC7AF6" fill-opacity="0.15"/>
<path d="M219.228 36.6883C219.228 38.1057 218.088 39.2323 216.695 39.2323C215.301 39.2323 214.161 38.0875 214.161 36.6883C214.161 35.2891 215.301 34.1443 216.695 34.1443C218.088 34.1443 219.228 35.2891 219.228 36.6883Z" fill="#FC7AF6" fill-opacity="0.15"/>
<path d="M164.652 158.437C164.652 159.855 163.512 160.981 162.118 160.981C160.725 160.981 159.585 159.837 159.585 158.437C159.585 157.038 160.725 155.893 162.118 155.893C163.512 155.893 164.652 157.038 164.652 158.437Z" fill="#FC7AF6" fill-opacity="0.15"/>
<path d="M131.048 180.37C132.447 180.37 133.582 179.231 133.582 177.826C133.582 176.421 132.447 175.282 131.048 175.282C129.649 175.282 128.515 176.421 128.515 177.826C128.515 179.231 129.649 180.37 131.048 180.37Z" fill="#FC7AF6" fill-opacity="0.15"/>
<path d="M235.822 179.335C235.822 180.752 234.682 181.879 233.288 181.879C231.895 181.879 230.755 180.734 230.755 179.335C230.755 177.935 231.895 176.791 233.288 176.791C234.682 176.791 235.822 177.935 235.822 179.335Z" fill="#FC7AF6" fill-opacity="0.15"/>
<path d="M282.147 25.9125C283.546 25.9125 284.68 24.7735 284.68 23.3685C284.68 21.9635 283.546 20.8245 282.147 20.8245C280.748 20.8245 279.613 21.9635 279.613 23.3685C279.613 24.7735 280.748 25.9125 282.147 25.9125Z" fill="#FC7AF6" fill-opacity="0.15"/>
<path d="M368.408 42.8665C368.408 45.3015 366.454 47.264 364.029 47.264C361.604 47.264 359.65 45.3015 359.65 42.8665C359.65 40.4315 361.604 38.469 364.029 38.469C366.454 38.469 368.408 40.4315 368.408 42.8665Z" fill="#FC7AF6" fill-opacity="0.15"/>
<path d="M206.923 4.3975C206.923 6.83248 204.969 8.795 202.544 8.795C200.119 8.795 198.165 6.83248 198.165 4.3975C198.165 1.96252 200.119 0 202.544 0C204.969 0 206.923 1.96252 206.923 4.3975Z" fill="#FC7AF6" fill-opacity="0.15"/>
<path d="M274.691 41.7037C277.11 41.7037 279.07 39.7349 279.07 37.3062C279.07 34.8775 277.11 32.9087 274.691 32.9087C272.273 32.9087 270.312 34.8775 270.312 37.3062C270.312 39.7349 272.273 41.7037 274.691 41.7037Z" fill="#FC7AF6" fill-opacity="0.15"/>
<path d="M370.67 42.8664C370.67 46.5553 367.703 49.5354 364.029 49.5354C360.356 49.5354 357.388 46.5553 357.388 42.8664C357.388 39.1776 360.356 36.1975 364.029 36.1975C367.703 36.1975 370.67 39.1776 370.67 42.8664Z" fill="#FC7AF6" fill-opacity="0.15"/>
<path d="M250.932 105.377C250.932 107.811 248.977 109.774 246.552 109.774C244.128 109.774 242.173 107.811 242.173 105.377C242.173 102.942 244.128 100.979 246.552 100.979C248.977 100.979 250.932 102.942 250.932 105.377Z" fill="#FC7AF6" fill-opacity="0.15"/>
<path d="M378.079 231.196C384.259 225.416 384.604 215.7 378.849 209.494C373.094 203.288 363.418 202.942 357.238 208.721C351.058 214.501 350.713 224.217 356.468 230.423C362.223 236.629 371.899 236.975 378.079 231.196Z" fill="#FC7AF6" fill-opacity="0.15"/>
<path d="M93.0473 141.647C95.4659 141.647 97.4265 139.678 97.4265 137.249C97.4265 134.821 95.4659 132.852 93.0473 132.852C90.6288 132.852 88.6682 134.821 88.6682 137.249C88.6682 139.678 90.6288 141.647 93.0473 141.647Z" fill="#FC7AF6" fill-opacity="0.15"/>
<path d="M221.671 269.901C221.671 272.336 219.717 274.299 217.292 274.299C214.867 274.299 212.913 272.336 212.913 269.901C212.913 267.466 214.867 265.504 217.292 265.504C219.717 265.504 221.671 267.466 221.671 269.901Z" fill="#FC7AF6" fill-opacity="0.15"/>
<path d="M250.932 105.377C250.932 107.811 248.977 109.774 246.552 109.774C244.128 109.774 242.173 107.811 242.173 105.377C242.173 102.942 244.128 100.979 246.552 100.979C248.977 100.979 250.932 102.942 250.932 105.377Z" fill="#FC7AF6" fill-opacity="0.15"/>
<path d="M64.2392 222.346C64.2392 224.781 62.2849 226.744 59.8601 226.744C57.4353 226.744 55.481 224.781 55.481 222.346C55.481 219.911 57.4353 217.949 59.8601 217.949C62.2849 217.949 64.2392 219.911 64.2392 222.346Z" fill="#FC7AF6" fill-opacity="0.15"/>
<path d="M109.822 297.722C112.241 297.722 114.201 295.753 114.201 293.324C114.201 290.896 112.241 288.927 109.822 288.927C107.403 288.927 105.443 290.896 105.443 293.324C105.443 295.753 107.403 297.722 109.822 297.722Z" fill="#FC7AF6" fill-opacity="0.15"/>
<path d="M229.054 269.901C229.054 276.425 223.788 281.713 217.292 281.713C210.796 281.713 205.53 276.425 205.53 269.901C205.53 263.378 210.796 258.09 217.292 258.09C223.788 258.09 229.054 263.378 229.054 269.901Z" fill="#FC7AF6" fill-opacity="0.15"/>
<path d="M64.2392 222.346C64.2392 224.781 62.2849 226.744 59.8601 226.744C57.4353 226.744 55.481 224.781 55.481 222.346C55.481 219.911 57.4353 217.949 59.8601 217.949C62.2849 217.949 64.2392 219.911 64.2392 222.346Z" fill="#FC7AF6" fill-opacity="0.15"/>
<path d="M52.477 381.038C52.477 383.473 50.5227 385.436 48.0979 385.436C45.6731 385.436 43.7188 383.473 43.7188 381.038C43.7188 378.603 45.6731 376.641 48.0979 376.641C50.5227 376.641 52.477 378.603 52.477 381.038Z" fill="#FC7AF6" fill-opacity="0.15"/>
<path d="M109.822 299.339C113.13 299.339 115.812 296.646 115.812 293.324C115.812 290.002 113.13 287.31 109.822 287.31C106.514 287.31 103.833 290.002 103.833 293.324C103.833 296.646 106.514 299.339 109.822 299.339Z" fill="#FC7AF6" fill-opacity="0.15"/>
<path d="M61.0247 384.154C62.716 376.987 58.3007 369.799 51.1627 368.101C44.0248 366.402 36.8674 370.836 35.1761 378.004C33.4848 385.172 37.9002 392.359 45.0381 394.058C52.176 395.756 59.3335 391.322 61.0247 384.154Z" fill="#FC7AF6" fill-opacity="0.15"/>
<path d="M64.2392 222.346C64.2392 224.781 62.2849 226.744 59.8601 226.744C57.4353 226.744 55.481 224.781 55.481 222.346C55.481 219.911 57.4353 217.949 59.8601 217.949C62.2849 217.949 64.2392 219.911 64.2392 222.346Z" fill="#FC7AF6" fill-opacity="0.15"/>
<path d="M69.7945 222.347C69.7945 227.852 65.343 232.323 59.86 232.323C54.3771 232.323 49.9255 227.852 49.9255 222.347C49.9255 216.841 54.3771 212.37 59.86 212.37C65.343 212.37 69.7945 216.841 69.7945 222.347Z" fill="#FC7AF6" fill-opacity="0.15"/>
<path d="M93.0473 141.647C95.4659 141.647 97.4265 139.678 97.4265 137.249C97.4265 134.821 95.4659 132.852 93.0473 132.852C90.6288 132.852 88.6682 134.821 88.6682 137.249C88.6682 139.678 90.6288 141.647 93.0473 141.647Z" fill="#FC7AF6" fill-opacity="0.15"/>
<path d="M250.932 105.377C250.932 107.811 248.977 109.774 246.552 109.774C244.128 109.774 242.173 107.811 242.173 105.377C242.173 102.942 244.128 100.979 246.552 100.979C248.977 100.979 250.932 102.942 250.932 105.377Z" fill="#FC7AF6" fill-opacity="0.15"/>
<path d="M274.691 43.3208C277.999 43.3208 280.681 40.6279 280.681 37.306C280.681 33.9842 277.999 31.2913 274.691 31.2913C271.383 31.2913 268.702 33.9842 268.702 37.306C268.702 40.6279 271.383 43.3208 274.691 43.3208Z" fill="#FC7AF6" fill-opacity="0.15"/>
<path d="M82.5159 40.6314C84.9344 40.6314 86.895 38.6626 86.895 36.2339C86.895 33.8053 84.9344 31.8364 82.5159 31.8364C80.0973 31.8364 78.1367 33.8053 78.1367 36.2339C78.1367 38.6626 80.0973 40.6314 82.5159 40.6314Z" fill="#FC7AF6" fill-opacity="0.15"/>
<path d="M93.0473 141.647C95.4659 141.647 97.4265 139.678 97.4265 137.249C97.4265 134.821 95.4659 132.852 93.0473 132.852C90.6288 132.852 88.6682 134.821 88.6682 137.249C88.6682 139.678 90.6288 141.647 93.0473 141.647Z" fill="#FC7AF6" fill-opacity="0.15"/>
<path d="M13.7888 87.0415C15.4478 87.0415 16.7927 85.691 16.7927 84.025C16.7927 82.3591 15.4478 81.0085 13.7888 81.0085C12.1298 81.0085 10.7849 82.3591 10.7849 84.025C10.7849 85.691 12.1298 87.0415 13.7888 87.0415Z" fill="#FC7AF6" fill-opacity="0.15"/>
<path d="M82.5159 40.6314C84.9344 40.6314 86.895 38.6626 86.895 36.2339C86.895 33.8053 84.9344 31.8364 82.5159 31.8364C80.0973 31.8364 78.1367 33.8053 78.1367 36.2339C78.1367 38.6626 80.0973 40.6314 82.5159 40.6314Z" fill="#FC7AF6" fill-opacity="0.15"/>
<path d="M93.0473 141.647C95.4659 141.647 97.4265 139.678 97.4265 137.249C97.4265 134.821 95.4659 132.852 93.0473 132.852C90.6288 132.852 88.6682 134.821 88.6682 137.249C88.6682 139.678 90.6288 141.647 93.0473 141.647Z" fill="#FC7AF6" fill-opacity="0.15"/>
<path d="M154.572 11.5025C154.572 13.9375 152.618 15.9 150.193 15.9C147.769 15.9 145.814 13.9375 145.814 11.5025C145.814 9.0675 147.769 7.10498 150.193 7.10498C152.618 7.10498 154.572 9.0675 154.572 11.5025Z" fill="#FC7AF6" fill-opacity="0.15"/>
<path d="M254.514 105.377C254.514 109.792 250.95 113.372 246.552 113.372C242.155 113.372 238.59 109.792 238.59 105.377C238.59 100.961 242.155 97.3811 246.552 97.3811C250.95 97.3811 254.514 100.961 254.514 105.377Z" fill="#FC7AF6" fill-opacity="0.15"/>
<path d="M206.923 4.3975C206.923 6.83248 204.969 8.795 202.544 8.795C200.119 8.795 198.165 6.83248 198.165 4.3975C198.165 1.96252 200.119 0 202.544 0C204.969 0 206.923 1.96252 206.923 4.3975Z" fill="#FC7AF6" fill-opacity="0.15"/>
<path d="M82.5157 42.5395C85.9836 42.5395 88.7949 39.7164 88.7949 36.234C88.7949 32.7515 85.9836 29.9285 82.5157 29.9285C79.0478 29.9285 76.2366 32.7515 76.2366 36.234C76.2366 39.7164 79.0478 42.5395 82.5157 42.5395Z" fill="#FC7AF6" fill-opacity="0.15"/>
</g>
<defs>
<clipPath id="clip0_3_1634">
<rect width="603" height="608" fill="white" transform="translate(-84)"/>
</clipPath>
</defs>
</svg>
