<svg width="36" height="36" viewBox="0 0 36 36" fill="none" xmlns="http://www.w3.org/2000/svg">
<circle cx="18.0431" cy="18.13" r="17.6203" stroke="#FC7AF6" stroke-width="0.5"/>
<path d="M18.043 17.2679L14.5944 25.8895M16.2963 22.0719C17.2343 22.4878 18.2899 22.5555 19.2733 22.2628C20.2568 21.9702 21.1036 21.3363 21.6615 20.4752C22.2195 19.614 22.452 18.5821 22.3172 17.5649C22.1824 16.5477 21.6892 15.6119 20.9263 14.9258C20.1633 14.2397 19.1807 13.8482 18.1549 13.8217C17.1292 13.7953 16.1276 14.1356 15.3303 14.7814C14.533 15.4273 13.9922 16.3364 13.8052 17.3453C13.6181 18.3542 13.7971 19.3967 14.3098 20.2855" stroke="#FC7AF6" stroke-width="0.5" stroke-linecap="round" stroke-linejoin="round"/>
<path d="M18.043 26.7515C22.8046 26.7515 26.6646 22.8915 26.6646 18.1299C26.6646 13.3683 22.8046 9.5083 18.043 9.5083C13.2814 9.5083 9.42139 13.3683 9.42139 18.1299C9.42139 22.8915 13.2814 26.7515 18.043 26.7515Z" stroke="#FC7AF6" stroke-width="0.5" stroke-linecap="round" stroke-linejoin="round"/>
</svg>
