<svg width="80" height="77" viewBox="0 0 80 77" fill="none" xmlns="http://www.w3.org/2000/svg">
<path d="M13.63 48.12C13.63 48.12 33.9452 11.5058 34.9017 9.82322C35.8583 8.14062 38.0132 0.777854 33.644 1.16143C29.3852 1.14931 24.0672 8.77944 25.1595 28.4023C27.1122 39.3228 26.3105 58.16 15.0645 63.7418C7.05158 67.2467 2.31126 61.7098 1.93515 55.152C1.43884 46.4902 11.2362 36.8103 16.9338 42.1718" stroke="#FC7AF6" stroke-miterlimit="10"/>
<path d="M16.9336 42.1718C16.9336 42.1718 17.6455 43.0038 18.0796 44.988C18.3603 46.272 17.8293 56.0182 20.5512 59.064" stroke="#FC7AF6" stroke-miterlimit="10"/>
<path d="M20.5351 59.0854C20.5351 59.0854 20.4489 60.4414 20.7451 60.4942C21.0406 60.5469 23.7993 57.9197 22.415 56.0296" stroke="#FC7AF6" stroke-miterlimit="10"/>
<path d="M22.7627 57.7977C22.7627 57.7977 23.1282 58.4801 23.6026 58.6141C24.0183 58.731 27.3051 52.0063 28.1082 50.3494C28.2234 50.1106 28.3203 49.8639 28.3966 49.6094C28.9113 47.9011 31.0902 40.8014 32.676 37.7007" stroke="#FC7AF6" stroke-miterlimit="10"/>
<path d="M28.1982 50.1627L24.0518 72.4142C24.0518 72.4142 23.5951 75.4764 22.3967 75.8521C20.9071 75.9242 17.8487 71.3163 20.7678 63.2013" stroke="#FC7AF6" stroke-miterlimit="10"/>
<path d="M23.665 58.6155C23.6608 58.6212 21.6628 60.9084 20.7671 63.202" stroke="#FC7AF6" stroke-miterlimit="10"/>
<path d="M23.665 58.6155L29.2629 55.0942C29.2629 55.0942 30.8671 53.0516 30.9547 52.8391C31.0424 52.6266 31.2269 52.1019 30.6161 52.1418C30.0053 52.1818 29.5804 53.1778 29.4482 53.7118C29.3159 54.2458 29.0713 55.1983 29.4983 55.5391C29.9247 55.8806 30.3955 55.5983 30.3955 55.5983L33.2885 53.1457C33.391 53.0587 35.3628 50.6418 35.2899 50.2532C35.2037 49.7969 34.467 50.1206 34.6282 50.4913C34.7894 50.8628 34.8248 51.5158 34.8248 51.8716C34.8248 52.2274 34.5681 53.2776 35.0842 53.7253C35.6003 54.1731 36.173 53.9328 36.5109 53.8294C36.8488 53.726 38.0154 53.0138 38.6976 50.5213" stroke="#FC7AF6" stroke-miterlimit="10"/>
<path d="M20.7671 63.202C20.7671 63.202 31.4468 55.1833 42.8002 51.312C54.1529 47.4399 78.0836 44.5359 78.0836 44.5359" stroke="#FC7AF6" stroke-miterlimit="10"/>
</svg>
