<svg width="57" height="57" viewBox="0 0 57 57" fill="none" xmlns="http://www.w3.org/2000/svg">
<path d="M23.9375 26.5C23.9375 25.4226 24.3655 24.3892 25.1274 23.6274C25.8892 22.8655 26.9226 22.4375 28 22.4375C29.0774 22.4375 30.1108 22.8655 30.8726 23.6274C31.6345 24.3892 32.0625 25.4226 32.0625 26.5C32.0625 27.5774 31.6345 28.6108 30.8726 29.3726C30.1108 30.1345 29.0774 30.5625 28 30.5625C26.9226 30.5625 25.8892 30.1345 25.1274 29.3726C24.3655 28.6108 23.9375 27.5774 23.9375 26.5Z" fill="#FC7AF6"/>
<path fill-rule="evenodd" clip-rule="evenodd" d="M17.7174 25.0962C17.9253 22.5834 19.0702 20.2406 20.9249 18.5325C22.7795 16.8244 25.2085 15.8758 27.7299 15.875H28.2699C30.7913 15.8758 33.2203 16.8244 35.075 18.5325C36.9296 20.2406 38.0745 22.5834 38.2824 25.0962C38.5131 27.9018 37.647 30.6874 35.8662 32.8675L29.8749 40.195C29.6478 40.4729 29.3618 40.6969 29.0375 40.8507C28.7132 41.0045 28.3588 41.0843 27.9999 41.0843C27.641 41.0843 27.2866 41.0045 26.9623 40.8507C26.638 40.6969 26.352 40.4729 26.1249 40.195L20.1349 32.8675C18.3536 30.6876 17.487 27.9019 17.7174 25.0962ZM27.9999 20.5625C26.4252 20.5625 24.915 21.1881 23.8015 22.3016C22.688 23.4151 22.0624 24.9253 22.0624 26.5C22.0624 28.0747 22.688 29.5849 23.8015 30.6984C24.915 31.8119 26.4252 32.4375 27.9999 32.4375C29.5746 32.4375 31.0849 31.8119 32.1984 30.6984C33.3119 29.5849 33.9374 28.0747 33.9374 26.5C33.9374 24.9253 33.3119 23.4151 32.1984 22.3016C31.0849 21.1881 29.5746 20.5625 27.9999 20.5625Z" fill="#FC7AF6"/>
<circle cx="28.5" cy="28.5" r="28" stroke="#FC7AF6"/>
</svg>
