<svg width="36" height="36" viewBox="0 0 36 36" fill="none" xmlns="http://www.w3.org/2000/svg">
<circle cx="18.1295" cy="18.13" r="17.6203" stroke="#FC7AF6" stroke-width="0.5"/>
<path d="M24.9321 14.1126C24.8545 14.3971 24.5096 15.1127 23.9233 15.7939C23.5353 23.2774 16.2759 25.7087 11.3013 23.1998C10.6202 22.2946 13.7584 22.6653 14.9051 20.9323C10.5684 18.7166 10.9133 12.7935 11.7841 13.0349C13.8274 15.7852 17.1209 16.0353 17.6554 15.7852C17.6554 15.1558 17.3881 13.785 18.8711 12.6383C19.7246 12.0262 21.5093 11.483 23.1215 13.2332C23.3974 13.4143 23.794 13.4919 24.3889 13.3626C24.7424 13.1815 25.2079 13.3022 24.9665 13.9316L24.9321 14.1126Z" stroke="#FC7AF6" stroke-width="0.5" stroke-linecap="round" stroke-linejoin="round"/>
</svg>
